G04 #@! TF.GenerationSoftware,KiCad,Pcbnew,(5.1.5)-3*
G04 #@! TF.CreationDate,2020-05-07T11:50:38+02:00*
G04 #@! TF.ProjectId,TPS16630_eFuse,54505331-3636-4333-905f-65467573652e,rev?*
G04 #@! TF.SameCoordinates,Original*
G04 #@! TF.FileFunction,Soldermask,Bot*
G04 #@! TF.FilePolarity,Negative*
%FSLAX46Y46*%
G04 Gerber Fmt 4.6, Leading zero omitted, Abs format (unit mm)*
G04 Created by KiCad (PCBNEW (5.1.5)-3) date 2020-05-07 11:50:38*
%MOMM*%
%LPD*%
G04 APERTURE LIST*
%ADD10C,0.100000*%
G04 APERTURE END LIST*
D10*
G36*
X75043512Y-147693927D02*
G01*
X75192812Y-147723624D01*
X75356784Y-147791544D01*
X75504354Y-147890147D01*
X75629853Y-148015646D01*
X75728456Y-148163216D01*
X75796376Y-148327188D01*
X75831000Y-148501259D01*
X75831000Y-148678741D01*
X75796376Y-148852812D01*
X75728456Y-149016784D01*
X75629853Y-149164354D01*
X75504354Y-149289853D01*
X75356784Y-149388456D01*
X75192812Y-149456376D01*
X75043512Y-149486073D01*
X75018742Y-149491000D01*
X74841258Y-149491000D01*
X74816488Y-149486073D01*
X74667188Y-149456376D01*
X74503216Y-149388456D01*
X74355646Y-149289853D01*
X74230147Y-149164354D01*
X74131544Y-149016784D01*
X74063624Y-148852812D01*
X74029000Y-148678741D01*
X74029000Y-148501259D01*
X74063624Y-148327188D01*
X74131544Y-148163216D01*
X74230147Y-148015646D01*
X74355646Y-147890147D01*
X74503216Y-147791544D01*
X74667188Y-147723624D01*
X74816488Y-147693927D01*
X74841258Y-147689000D01*
X75018742Y-147689000D01*
X75043512Y-147693927D01*
G37*
G36*
X52183512Y-147693927D02*
G01*
X52332812Y-147723624D01*
X52496784Y-147791544D01*
X52644354Y-147890147D01*
X52769853Y-148015646D01*
X52868456Y-148163216D01*
X52936376Y-148327188D01*
X52971000Y-148501259D01*
X52971000Y-148678741D01*
X52936376Y-148852812D01*
X52868456Y-149016784D01*
X52769853Y-149164354D01*
X52644354Y-149289853D01*
X52496784Y-149388456D01*
X52332812Y-149456376D01*
X52183512Y-149486073D01*
X52158742Y-149491000D01*
X51981258Y-149491000D01*
X51956488Y-149486073D01*
X51807188Y-149456376D01*
X51643216Y-149388456D01*
X51495646Y-149289853D01*
X51370147Y-149164354D01*
X51271544Y-149016784D01*
X51203624Y-148852812D01*
X51169000Y-148678741D01*
X51169000Y-148501259D01*
X51203624Y-148327188D01*
X51271544Y-148163216D01*
X51370147Y-148015646D01*
X51495646Y-147890147D01*
X51643216Y-147791544D01*
X51807188Y-147723624D01*
X51956488Y-147693927D01*
X51981258Y-147689000D01*
X52158742Y-147689000D01*
X52183512Y-147693927D01*
G37*
G36*
X52183512Y-145153927D02*
G01*
X52332812Y-145183624D01*
X52496784Y-145251544D01*
X52644354Y-145350147D01*
X52769853Y-145475646D01*
X52868456Y-145623216D01*
X52936376Y-145787188D01*
X52971000Y-145961259D01*
X52971000Y-146138741D01*
X52936376Y-146312812D01*
X52868456Y-146476784D01*
X52769853Y-146624354D01*
X52644354Y-146749853D01*
X52496784Y-146848456D01*
X52332812Y-146916376D01*
X52183512Y-146946073D01*
X52158742Y-146951000D01*
X51981258Y-146951000D01*
X51956488Y-146946073D01*
X51807188Y-146916376D01*
X51643216Y-146848456D01*
X51495646Y-146749853D01*
X51370147Y-146624354D01*
X51271544Y-146476784D01*
X51203624Y-146312812D01*
X51169000Y-146138741D01*
X51169000Y-145961259D01*
X51203624Y-145787188D01*
X51271544Y-145623216D01*
X51370147Y-145475646D01*
X51495646Y-145350147D01*
X51643216Y-145251544D01*
X51807188Y-145183624D01*
X51956488Y-145153927D01*
X51981258Y-145149000D01*
X52158742Y-145149000D01*
X52183512Y-145153927D01*
G37*
G36*
X75043512Y-145153927D02*
G01*
X75192812Y-145183624D01*
X75356784Y-145251544D01*
X75504354Y-145350147D01*
X75629853Y-145475646D01*
X75728456Y-145623216D01*
X75796376Y-145787188D01*
X75831000Y-145961259D01*
X75831000Y-146138741D01*
X75796376Y-146312812D01*
X75728456Y-146476784D01*
X75629853Y-146624354D01*
X75504354Y-146749853D01*
X75356784Y-146848456D01*
X75192812Y-146916376D01*
X75043512Y-146946073D01*
X75018742Y-146951000D01*
X74841258Y-146951000D01*
X74816488Y-146946073D01*
X74667188Y-146916376D01*
X74503216Y-146848456D01*
X74355646Y-146749853D01*
X74230147Y-146624354D01*
X74131544Y-146476784D01*
X74063624Y-146312812D01*
X74029000Y-146138741D01*
X74029000Y-145961259D01*
X74063624Y-145787188D01*
X74131544Y-145623216D01*
X74230147Y-145475646D01*
X74355646Y-145350147D01*
X74503216Y-145251544D01*
X74667188Y-145183624D01*
X74816488Y-145153927D01*
X74841258Y-145149000D01*
X75018742Y-145149000D01*
X75043512Y-145153927D01*
G37*
G36*
X52183512Y-142613927D02*
G01*
X52332812Y-142643624D01*
X52496784Y-142711544D01*
X52644354Y-142810147D01*
X52769853Y-142935646D01*
X52868456Y-143083216D01*
X52936376Y-143247188D01*
X52971000Y-143421259D01*
X52971000Y-143598741D01*
X52936376Y-143772812D01*
X52868456Y-143936784D01*
X52769853Y-144084354D01*
X52644354Y-144209853D01*
X52496784Y-144308456D01*
X52332812Y-144376376D01*
X52183512Y-144406073D01*
X52158742Y-144411000D01*
X51981258Y-144411000D01*
X51956488Y-144406073D01*
X51807188Y-144376376D01*
X51643216Y-144308456D01*
X51495646Y-144209853D01*
X51370147Y-144084354D01*
X51271544Y-143936784D01*
X51203624Y-143772812D01*
X51169000Y-143598741D01*
X51169000Y-143421259D01*
X51203624Y-143247188D01*
X51271544Y-143083216D01*
X51370147Y-142935646D01*
X51495646Y-142810147D01*
X51643216Y-142711544D01*
X51807188Y-142643624D01*
X51956488Y-142613927D01*
X51981258Y-142609000D01*
X52158742Y-142609000D01*
X52183512Y-142613927D01*
G37*
G36*
X75043512Y-142613927D02*
G01*
X75192812Y-142643624D01*
X75356784Y-142711544D01*
X75504354Y-142810147D01*
X75629853Y-142935646D01*
X75728456Y-143083216D01*
X75796376Y-143247188D01*
X75831000Y-143421259D01*
X75831000Y-143598741D01*
X75796376Y-143772812D01*
X75728456Y-143936784D01*
X75629853Y-144084354D01*
X75504354Y-144209853D01*
X75356784Y-144308456D01*
X75192812Y-144376376D01*
X75043512Y-144406073D01*
X75018742Y-144411000D01*
X74841258Y-144411000D01*
X74816488Y-144406073D01*
X74667188Y-144376376D01*
X74503216Y-144308456D01*
X74355646Y-144209853D01*
X74230147Y-144084354D01*
X74131544Y-143936784D01*
X74063624Y-143772812D01*
X74029000Y-143598741D01*
X74029000Y-143421259D01*
X74063624Y-143247188D01*
X74131544Y-143083216D01*
X74230147Y-142935646D01*
X74355646Y-142810147D01*
X74503216Y-142711544D01*
X74667188Y-142643624D01*
X74816488Y-142613927D01*
X74841258Y-142609000D01*
X75018742Y-142609000D01*
X75043512Y-142613927D01*
G37*
G36*
X75043512Y-140073927D02*
G01*
X75192812Y-140103624D01*
X75356784Y-140171544D01*
X75504354Y-140270147D01*
X75629853Y-140395646D01*
X75728456Y-140543216D01*
X75796376Y-140707188D01*
X75831000Y-140881259D01*
X75831000Y-141058741D01*
X75796376Y-141232812D01*
X75728456Y-141396784D01*
X75629853Y-141544354D01*
X75504354Y-141669853D01*
X75356784Y-141768456D01*
X75192812Y-141836376D01*
X75043512Y-141866073D01*
X75018742Y-141871000D01*
X74841258Y-141871000D01*
X74816488Y-141866073D01*
X74667188Y-141836376D01*
X74503216Y-141768456D01*
X74355646Y-141669853D01*
X74230147Y-141544354D01*
X74131544Y-141396784D01*
X74063624Y-141232812D01*
X74029000Y-141058741D01*
X74029000Y-140881259D01*
X74063624Y-140707188D01*
X74131544Y-140543216D01*
X74230147Y-140395646D01*
X74355646Y-140270147D01*
X74503216Y-140171544D01*
X74667188Y-140103624D01*
X74816488Y-140073927D01*
X74841258Y-140069000D01*
X75018742Y-140069000D01*
X75043512Y-140073927D01*
G37*
G36*
X52183512Y-140073927D02*
G01*
X52332812Y-140103624D01*
X52496784Y-140171544D01*
X52644354Y-140270147D01*
X52769853Y-140395646D01*
X52868456Y-140543216D01*
X52936376Y-140707188D01*
X52971000Y-140881259D01*
X52971000Y-141058741D01*
X52936376Y-141232812D01*
X52868456Y-141396784D01*
X52769853Y-141544354D01*
X52644354Y-141669853D01*
X52496784Y-141768456D01*
X52332812Y-141836376D01*
X52183512Y-141866073D01*
X52158742Y-141871000D01*
X51981258Y-141871000D01*
X51956488Y-141866073D01*
X51807188Y-141836376D01*
X51643216Y-141768456D01*
X51495646Y-141669853D01*
X51370147Y-141544354D01*
X51271544Y-141396784D01*
X51203624Y-141232812D01*
X51169000Y-141058741D01*
X51169000Y-140881259D01*
X51203624Y-140707188D01*
X51271544Y-140543216D01*
X51370147Y-140395646D01*
X51495646Y-140270147D01*
X51643216Y-140171544D01*
X51807188Y-140103624D01*
X51956488Y-140073927D01*
X51981258Y-140069000D01*
X52158742Y-140069000D01*
X52183512Y-140073927D01*
G37*
G36*
X75043512Y-137533927D02*
G01*
X75192812Y-137563624D01*
X75356784Y-137631544D01*
X75504354Y-137730147D01*
X75629853Y-137855646D01*
X75728456Y-138003216D01*
X75796376Y-138167188D01*
X75831000Y-138341259D01*
X75831000Y-138518741D01*
X75796376Y-138692812D01*
X75728456Y-138856784D01*
X75629853Y-139004354D01*
X75504354Y-139129853D01*
X75356784Y-139228456D01*
X75192812Y-139296376D01*
X75043512Y-139326073D01*
X75018742Y-139331000D01*
X74841258Y-139331000D01*
X74816488Y-139326073D01*
X74667188Y-139296376D01*
X74503216Y-139228456D01*
X74355646Y-139129853D01*
X74230147Y-139004354D01*
X74131544Y-138856784D01*
X74063624Y-138692812D01*
X74029000Y-138518741D01*
X74029000Y-138341259D01*
X74063624Y-138167188D01*
X74131544Y-138003216D01*
X74230147Y-137855646D01*
X74355646Y-137730147D01*
X74503216Y-137631544D01*
X74667188Y-137563624D01*
X74816488Y-137533927D01*
X74841258Y-137529000D01*
X75018742Y-137529000D01*
X75043512Y-137533927D01*
G37*
G36*
X52183512Y-137533927D02*
G01*
X52332812Y-137563624D01*
X52496784Y-137631544D01*
X52644354Y-137730147D01*
X52769853Y-137855646D01*
X52868456Y-138003216D01*
X52936376Y-138167188D01*
X52971000Y-138341259D01*
X52971000Y-138518741D01*
X52936376Y-138692812D01*
X52868456Y-138856784D01*
X52769853Y-139004354D01*
X52644354Y-139129853D01*
X52496784Y-139228456D01*
X52332812Y-139296376D01*
X52183512Y-139326073D01*
X52158742Y-139331000D01*
X51981258Y-139331000D01*
X51956488Y-139326073D01*
X51807188Y-139296376D01*
X51643216Y-139228456D01*
X51495646Y-139129853D01*
X51370147Y-139004354D01*
X51271544Y-138856784D01*
X51203624Y-138692812D01*
X51169000Y-138518741D01*
X51169000Y-138341259D01*
X51203624Y-138167188D01*
X51271544Y-138003216D01*
X51370147Y-137855646D01*
X51495646Y-137730147D01*
X51643216Y-137631544D01*
X51807188Y-137563624D01*
X51956488Y-137533927D01*
X51981258Y-137529000D01*
X52158742Y-137529000D01*
X52183512Y-137533927D01*
G37*
G36*
X64801000Y-137191000D02*
G01*
X62199000Y-137191000D01*
X62199000Y-134589000D01*
X64801000Y-134589000D01*
X64801000Y-137191000D01*
G37*
G36*
X52183512Y-134993927D02*
G01*
X52332812Y-135023624D01*
X52496784Y-135091544D01*
X52644354Y-135190147D01*
X52769853Y-135315646D01*
X52868456Y-135463216D01*
X52936376Y-135627188D01*
X52971000Y-135801259D01*
X52971000Y-135978741D01*
X52936376Y-136152812D01*
X52868456Y-136316784D01*
X52769853Y-136464354D01*
X52644354Y-136589853D01*
X52496784Y-136688456D01*
X52332812Y-136756376D01*
X52183512Y-136786073D01*
X52158742Y-136791000D01*
X51981258Y-136791000D01*
X51956488Y-136786073D01*
X51807188Y-136756376D01*
X51643216Y-136688456D01*
X51495646Y-136589853D01*
X51370147Y-136464354D01*
X51271544Y-136316784D01*
X51203624Y-136152812D01*
X51169000Y-135978741D01*
X51169000Y-135801259D01*
X51203624Y-135627188D01*
X51271544Y-135463216D01*
X51370147Y-135315646D01*
X51495646Y-135190147D01*
X51643216Y-135091544D01*
X51807188Y-135023624D01*
X51956488Y-134993927D01*
X51981258Y-134989000D01*
X52158742Y-134989000D01*
X52183512Y-134993927D01*
G37*
G36*
X75043512Y-134993927D02*
G01*
X75192812Y-135023624D01*
X75356784Y-135091544D01*
X75504354Y-135190147D01*
X75629853Y-135315646D01*
X75728456Y-135463216D01*
X75796376Y-135627188D01*
X75831000Y-135801259D01*
X75831000Y-135978741D01*
X75796376Y-136152812D01*
X75728456Y-136316784D01*
X75629853Y-136464354D01*
X75504354Y-136589853D01*
X75356784Y-136688456D01*
X75192812Y-136756376D01*
X75043512Y-136786073D01*
X75018742Y-136791000D01*
X74841258Y-136791000D01*
X74816488Y-136786073D01*
X74667188Y-136756376D01*
X74503216Y-136688456D01*
X74355646Y-136589853D01*
X74230147Y-136464354D01*
X74131544Y-136316784D01*
X74063624Y-136152812D01*
X74029000Y-135978741D01*
X74029000Y-135801259D01*
X74063624Y-135627188D01*
X74131544Y-135463216D01*
X74230147Y-135315646D01*
X74355646Y-135190147D01*
X74503216Y-135091544D01*
X74667188Y-135023624D01*
X74816488Y-134993927D01*
X74841258Y-134989000D01*
X75018742Y-134989000D01*
X75043512Y-134993927D01*
G37*
G36*
X52183512Y-132453927D02*
G01*
X52332812Y-132483624D01*
X52496784Y-132551544D01*
X52644354Y-132650147D01*
X52769853Y-132775646D01*
X52868456Y-132923216D01*
X52936376Y-133087188D01*
X52971000Y-133261259D01*
X52971000Y-133438741D01*
X52936376Y-133612812D01*
X52868456Y-133776784D01*
X52769853Y-133924354D01*
X52644354Y-134049853D01*
X52496784Y-134148456D01*
X52332812Y-134216376D01*
X52183512Y-134246073D01*
X52158742Y-134251000D01*
X51981258Y-134251000D01*
X51956488Y-134246073D01*
X51807188Y-134216376D01*
X51643216Y-134148456D01*
X51495646Y-134049853D01*
X51370147Y-133924354D01*
X51271544Y-133776784D01*
X51203624Y-133612812D01*
X51169000Y-133438741D01*
X51169000Y-133261259D01*
X51203624Y-133087188D01*
X51271544Y-132923216D01*
X51370147Y-132775646D01*
X51495646Y-132650147D01*
X51643216Y-132551544D01*
X51807188Y-132483624D01*
X51956488Y-132453927D01*
X51981258Y-132449000D01*
X52158742Y-132449000D01*
X52183512Y-132453927D01*
G37*
G36*
X75043512Y-132453927D02*
G01*
X75192812Y-132483624D01*
X75356784Y-132551544D01*
X75504354Y-132650147D01*
X75629853Y-132775646D01*
X75728456Y-132923216D01*
X75796376Y-133087188D01*
X75831000Y-133261259D01*
X75831000Y-133438741D01*
X75796376Y-133612812D01*
X75728456Y-133776784D01*
X75629853Y-133924354D01*
X75504354Y-134049853D01*
X75356784Y-134148456D01*
X75192812Y-134216376D01*
X75043512Y-134246073D01*
X75018742Y-134251000D01*
X74841258Y-134251000D01*
X74816488Y-134246073D01*
X74667188Y-134216376D01*
X74503216Y-134148456D01*
X74355646Y-134049853D01*
X74230147Y-133924354D01*
X74131544Y-133776784D01*
X74063624Y-133612812D01*
X74029000Y-133438741D01*
X74029000Y-133261259D01*
X74063624Y-133087188D01*
X74131544Y-132923216D01*
X74230147Y-132775646D01*
X74355646Y-132650147D01*
X74503216Y-132551544D01*
X74667188Y-132483624D01*
X74816488Y-132453927D01*
X74841258Y-132449000D01*
X75018742Y-132449000D01*
X75043512Y-132453927D01*
G37*
G36*
X75831000Y-131711000D02*
G01*
X74029000Y-131711000D01*
X74029000Y-129909000D01*
X75831000Y-129909000D01*
X75831000Y-131711000D01*
G37*
G36*
X52971000Y-131711000D02*
G01*
X51169000Y-131711000D01*
X51169000Y-129909000D01*
X52971000Y-129909000D01*
X52971000Y-131711000D01*
G37*
G36*
X52183512Y-124833927D02*
G01*
X52332812Y-124863624D01*
X52496784Y-124931544D01*
X52644354Y-125030147D01*
X52769853Y-125155646D01*
X52868456Y-125303216D01*
X52936376Y-125467188D01*
X52971000Y-125641259D01*
X52971000Y-125818741D01*
X52936376Y-125992812D01*
X52868456Y-126156784D01*
X52769853Y-126304354D01*
X52644354Y-126429853D01*
X52496784Y-126528456D01*
X52332812Y-126596376D01*
X52183512Y-126626073D01*
X52158742Y-126631000D01*
X51981258Y-126631000D01*
X51956488Y-126626073D01*
X51807188Y-126596376D01*
X51643216Y-126528456D01*
X51495646Y-126429853D01*
X51370147Y-126304354D01*
X51271544Y-126156784D01*
X51203624Y-125992812D01*
X51169000Y-125818741D01*
X51169000Y-125641259D01*
X51203624Y-125467188D01*
X51271544Y-125303216D01*
X51370147Y-125155646D01*
X51495646Y-125030147D01*
X51643216Y-124931544D01*
X51807188Y-124863624D01*
X51956488Y-124833927D01*
X51981258Y-124829000D01*
X52158742Y-124829000D01*
X52183512Y-124833927D01*
G37*
G36*
X75043512Y-124833927D02*
G01*
X75192812Y-124863624D01*
X75356784Y-124931544D01*
X75504354Y-125030147D01*
X75629853Y-125155646D01*
X75728456Y-125303216D01*
X75796376Y-125467188D01*
X75831000Y-125641259D01*
X75831000Y-125818741D01*
X75796376Y-125992812D01*
X75728456Y-126156784D01*
X75629853Y-126304354D01*
X75504354Y-126429853D01*
X75356784Y-126528456D01*
X75192812Y-126596376D01*
X75043512Y-126626073D01*
X75018742Y-126631000D01*
X74841258Y-126631000D01*
X74816488Y-126626073D01*
X74667188Y-126596376D01*
X74503216Y-126528456D01*
X74355646Y-126429853D01*
X74230147Y-126304354D01*
X74131544Y-126156784D01*
X74063624Y-125992812D01*
X74029000Y-125818741D01*
X74029000Y-125641259D01*
X74063624Y-125467188D01*
X74131544Y-125303216D01*
X74230147Y-125155646D01*
X74355646Y-125030147D01*
X74503216Y-124931544D01*
X74667188Y-124863624D01*
X74816488Y-124833927D01*
X74841258Y-124829000D01*
X75018742Y-124829000D01*
X75043512Y-124833927D01*
G37*
G36*
X75831000Y-124091000D02*
G01*
X74029000Y-124091000D01*
X74029000Y-122289000D01*
X75831000Y-122289000D01*
X75831000Y-124091000D01*
G37*
G36*
X52971000Y-124091000D02*
G01*
X51169000Y-124091000D01*
X51169000Y-122289000D01*
X52971000Y-122289000D01*
X52971000Y-124091000D01*
G37*
G36*
X66415256Y-113326298D02*
G01*
X66521579Y-113347447D01*
X66822042Y-113471903D01*
X67092451Y-113652585D01*
X67322415Y-113882549D01*
X67503097Y-114152958D01*
X67627553Y-114453421D01*
X67691000Y-114772391D01*
X67691000Y-115097609D01*
X67627553Y-115416579D01*
X67503097Y-115717042D01*
X67322415Y-115987451D01*
X67092451Y-116217415D01*
X66822042Y-116398097D01*
X66521579Y-116522553D01*
X66415256Y-116543702D01*
X66202611Y-116586000D01*
X65877389Y-116586000D01*
X65664744Y-116543702D01*
X65558421Y-116522553D01*
X65257958Y-116398097D01*
X64987549Y-116217415D01*
X64757585Y-115987451D01*
X64576903Y-115717042D01*
X64452447Y-115416579D01*
X64389000Y-115097609D01*
X64389000Y-114772391D01*
X64452447Y-114453421D01*
X64576903Y-114152958D01*
X64757585Y-113882549D01*
X64987549Y-113652585D01*
X65257958Y-113471903D01*
X65558421Y-113347447D01*
X65664744Y-113326298D01*
X65877389Y-113284000D01*
X66202611Y-113284000D01*
X66415256Y-113326298D01*
G37*
G36*
X71495256Y-113326298D02*
G01*
X71601579Y-113347447D01*
X71902042Y-113471903D01*
X72172451Y-113652585D01*
X72402415Y-113882549D01*
X72583097Y-114152958D01*
X72707553Y-114453421D01*
X72771000Y-114772391D01*
X72771000Y-115097609D01*
X72707553Y-115416579D01*
X72583097Y-115717042D01*
X72402415Y-115987451D01*
X72172451Y-116217415D01*
X71902042Y-116398097D01*
X71601579Y-116522553D01*
X71495256Y-116543702D01*
X71282611Y-116586000D01*
X70957389Y-116586000D01*
X70744744Y-116543702D01*
X70638421Y-116522553D01*
X70337958Y-116398097D01*
X70067549Y-116217415D01*
X69837585Y-115987451D01*
X69656903Y-115717042D01*
X69532447Y-115416579D01*
X69469000Y-115097609D01*
X69469000Y-114772391D01*
X69532447Y-114453421D01*
X69656903Y-114152958D01*
X69837585Y-113882549D01*
X70067549Y-113652585D01*
X70337958Y-113471903D01*
X70638421Y-113347447D01*
X70744744Y-113326298D01*
X70957389Y-113284000D01*
X71282611Y-113284000D01*
X71495256Y-113326298D01*
G37*
G36*
X61335256Y-113326298D02*
G01*
X61441579Y-113347447D01*
X61742042Y-113471903D01*
X62012451Y-113652585D01*
X62242415Y-113882549D01*
X62423097Y-114152958D01*
X62547553Y-114453421D01*
X62611000Y-114772391D01*
X62611000Y-115097609D01*
X62547553Y-115416579D01*
X62423097Y-115717042D01*
X62242415Y-115987451D01*
X62012451Y-116217415D01*
X61742042Y-116398097D01*
X61441579Y-116522553D01*
X61335256Y-116543702D01*
X61122611Y-116586000D01*
X60797389Y-116586000D01*
X60584744Y-116543702D01*
X60478421Y-116522553D01*
X60177958Y-116398097D01*
X59907549Y-116217415D01*
X59677585Y-115987451D01*
X59496903Y-115717042D01*
X59372447Y-115416579D01*
X59309000Y-115097609D01*
X59309000Y-114772391D01*
X59372447Y-114453421D01*
X59496903Y-114152958D01*
X59677585Y-113882549D01*
X59907549Y-113652585D01*
X60177958Y-113471903D01*
X60478421Y-113347447D01*
X60584744Y-113326298D01*
X60797389Y-113284000D01*
X61122611Y-113284000D01*
X61335256Y-113326298D01*
G37*
G36*
X56255256Y-113326298D02*
G01*
X56361579Y-113347447D01*
X56662042Y-113471903D01*
X56932451Y-113652585D01*
X57162415Y-113882549D01*
X57343097Y-114152958D01*
X57467553Y-114453421D01*
X57531000Y-114772391D01*
X57531000Y-115097609D01*
X57467553Y-115416579D01*
X57343097Y-115717042D01*
X57162415Y-115987451D01*
X56932451Y-116217415D01*
X56662042Y-116398097D01*
X56361579Y-116522553D01*
X56255256Y-116543702D01*
X56042611Y-116586000D01*
X55717389Y-116586000D01*
X55504744Y-116543702D01*
X55398421Y-116522553D01*
X55097958Y-116398097D01*
X54827549Y-116217415D01*
X54597585Y-115987451D01*
X54416903Y-115717042D01*
X54292447Y-115416579D01*
X54229000Y-115097609D01*
X54229000Y-114772391D01*
X54292447Y-114453421D01*
X54416903Y-114152958D01*
X54597585Y-113882549D01*
X54827549Y-113652585D01*
X55097958Y-113471903D01*
X55398421Y-113347447D01*
X55504744Y-113326298D01*
X55717389Y-113284000D01*
X56042611Y-113284000D01*
X56255256Y-113326298D01*
G37*
M02*
