G04 #@! TF.GenerationSoftware,KiCad,Pcbnew,(5.1.5)-3*
G04 #@! TF.CreationDate,2020-05-07T11:50:38+02:00*
G04 #@! TF.ProjectId,TPS16630_eFuse,54505331-3636-4333-905f-65467573652e,rev?*
G04 #@! TF.SameCoordinates,Original*
G04 #@! TF.FileFunction,Copper,L2,Bot*
G04 #@! TF.FilePolarity,Positive*
%FSLAX46Y46*%
G04 Gerber Fmt 4.6, Leading zero omitted, Abs format (unit mm)*
G04 Created by KiCad (PCBNEW (5.1.5)-3) date 2020-05-07 11:50:38*
%MOMM*%
%LPD*%
G04 APERTURE LIST*
%ADD10R,2.500000X2.500000*%
%ADD11R,1.700000X1.700000*%
%ADD12O,1.700000X1.700000*%
%ADD13C,3.200000*%
%ADD14C,0.800000*%
%ADD15C,0.431800*%
%ADD16C,0.254000*%
G04 APERTURE END LIST*
D10*
X63500000Y-135890000D03*
D11*
X52070000Y-130810000D03*
D12*
X52070000Y-133350000D03*
X52070000Y-135890000D03*
X52070000Y-138430000D03*
X52070000Y-140970000D03*
X52070000Y-143510000D03*
X52070000Y-146050000D03*
X52070000Y-148590000D03*
X74930000Y-148590000D03*
X74930000Y-146050000D03*
X74930000Y-143510000D03*
X74930000Y-140970000D03*
X74930000Y-138430000D03*
X74930000Y-135890000D03*
X74930000Y-133350000D03*
D11*
X74930000Y-130810000D03*
D13*
X66040000Y-114935000D03*
X71120000Y-114935000D03*
X60960000Y-114935000D03*
X55880000Y-114935000D03*
D11*
X52070000Y-123190000D03*
D12*
X52070000Y-125730000D03*
X74930000Y-125730000D03*
D11*
X74930000Y-123190000D03*
D14*
X70739000Y-125603000D03*
X70739000Y-124714000D03*
X61849000Y-125603000D03*
X61849000Y-124587000D03*
X65024000Y-129540000D03*
X69850000Y-136779000D03*
X70739000Y-148590000D03*
X56515000Y-141986000D03*
X64389000Y-142240000D03*
X69850000Y-140081000D03*
X69850000Y-134952500D03*
X69850000Y-129921000D03*
X57815000Y-148590000D03*
D15*
X69850000Y-134952500D02*
X67007500Y-134952500D01*
X67007500Y-134952500D02*
X65405000Y-133350000D01*
X65405000Y-133350000D02*
X55245000Y-133350000D01*
X55245000Y-133350000D02*
X54610000Y-132715000D01*
X54610000Y-132715000D02*
X54610000Y-131445000D01*
X53975000Y-130810000D02*
X52070000Y-130810000D01*
X54610000Y-131445000D02*
X53975000Y-130810000D01*
X52705000Y-110490000D02*
X52070000Y-111125000D01*
X52070000Y-111125000D02*
X52070000Y-123190000D01*
X74295000Y-110490000D02*
X52705000Y-110490000D01*
X74930000Y-123190000D02*
X74930000Y-111125000D01*
X74930000Y-111125000D02*
X74295000Y-110490000D01*
X57815000Y-148590000D02*
X67945000Y-148590000D01*
X67945000Y-148590000D02*
X69215000Y-147320000D01*
X69215000Y-147320000D02*
X70485000Y-147320000D01*
X70485000Y-147320000D02*
X71755000Y-146050000D01*
X71755000Y-146050000D02*
X71755000Y-135255000D01*
X69850000Y-133350000D02*
X69850000Y-129921000D01*
X71755000Y-135255000D02*
X69850000Y-133350000D01*
D16*
G36*
X74079101Y-111477455D02*
G01*
X74079100Y-121702017D01*
X73955518Y-121714188D01*
X73835820Y-121750498D01*
X73725506Y-121809463D01*
X73628815Y-121888815D01*
X73549463Y-121985506D01*
X73490498Y-122095820D01*
X73454188Y-122215518D01*
X73441928Y-122340000D01*
X73441928Y-124040000D01*
X73454188Y-124164482D01*
X73490498Y-124284180D01*
X73549463Y-124394494D01*
X73628815Y-124491185D01*
X73725506Y-124570537D01*
X73835820Y-124629502D01*
X73908380Y-124651513D01*
X73776525Y-124783368D01*
X73614010Y-125026589D01*
X73502068Y-125296842D01*
X73445000Y-125583740D01*
X73445000Y-125876260D01*
X73502068Y-126163158D01*
X73614010Y-126433411D01*
X73776525Y-126676632D01*
X73983368Y-126883475D01*
X74226589Y-127045990D01*
X74496842Y-127157932D01*
X74783740Y-127215000D01*
X75076260Y-127215000D01*
X75363158Y-127157932D01*
X75540001Y-127084682D01*
X75540001Y-129321928D01*
X74080000Y-129321928D01*
X73955518Y-129334188D01*
X73835820Y-129370498D01*
X73725506Y-129429463D01*
X73628815Y-129508815D01*
X73549463Y-129605506D01*
X73490498Y-129715820D01*
X73454188Y-129835518D01*
X73441928Y-129960000D01*
X73441928Y-131660000D01*
X73454188Y-131784482D01*
X73490498Y-131904180D01*
X73549463Y-132014494D01*
X73628815Y-132111185D01*
X73725506Y-132190537D01*
X73835820Y-132249502D01*
X73908380Y-132271513D01*
X73776525Y-132403368D01*
X73614010Y-132646589D01*
X73502068Y-132916842D01*
X73445000Y-133203740D01*
X73445000Y-133496260D01*
X73502068Y-133783158D01*
X73614010Y-134053411D01*
X73776525Y-134296632D01*
X73983368Y-134503475D01*
X74157760Y-134620000D01*
X73983368Y-134736525D01*
X73776525Y-134943368D01*
X73614010Y-135186589D01*
X73502068Y-135456842D01*
X73445000Y-135743740D01*
X73445000Y-136036260D01*
X73502068Y-136323158D01*
X73614010Y-136593411D01*
X73776525Y-136836632D01*
X73983368Y-137043475D01*
X74157760Y-137160000D01*
X73983368Y-137276525D01*
X73776525Y-137483368D01*
X73614010Y-137726589D01*
X73502068Y-137996842D01*
X73445000Y-138283740D01*
X73445000Y-138576260D01*
X73502068Y-138863158D01*
X73614010Y-139133411D01*
X73776525Y-139376632D01*
X73983368Y-139583475D01*
X74157760Y-139700000D01*
X73983368Y-139816525D01*
X73776525Y-140023368D01*
X73614010Y-140266589D01*
X73502068Y-140536842D01*
X73445000Y-140823740D01*
X73445000Y-141116260D01*
X73502068Y-141403158D01*
X73614010Y-141673411D01*
X73776525Y-141916632D01*
X73983368Y-142123475D01*
X74157760Y-142240000D01*
X73983368Y-142356525D01*
X73776525Y-142563368D01*
X73614010Y-142806589D01*
X73502068Y-143076842D01*
X73445000Y-143363740D01*
X73445000Y-143656260D01*
X73502068Y-143943158D01*
X73614010Y-144213411D01*
X73776525Y-144456632D01*
X73983368Y-144663475D01*
X74157760Y-144780000D01*
X73983368Y-144896525D01*
X73776525Y-145103368D01*
X73614010Y-145346589D01*
X73502068Y-145616842D01*
X73445000Y-145903740D01*
X73445000Y-146196260D01*
X73502068Y-146483158D01*
X73614010Y-146753411D01*
X73776525Y-146996632D01*
X73983368Y-147203475D01*
X74226589Y-147365990D01*
X74496842Y-147477932D01*
X74783740Y-147535000D01*
X75076260Y-147535000D01*
X75363158Y-147477932D01*
X75540000Y-147404682D01*
X75540000Y-149586619D01*
X73386620Y-151740000D01*
X51460000Y-151740000D01*
X51460000Y-147404682D01*
X51636842Y-147477932D01*
X51923740Y-147535000D01*
X52216260Y-147535000D01*
X52503158Y-147477932D01*
X52773411Y-147365990D01*
X53016632Y-147203475D01*
X53223475Y-146996632D01*
X53385990Y-146753411D01*
X53497932Y-146483158D01*
X53555000Y-146196260D01*
X53555000Y-145903740D01*
X53497932Y-145616842D01*
X53385990Y-145346589D01*
X53223475Y-145103368D01*
X53016632Y-144896525D01*
X52842240Y-144780000D01*
X53016632Y-144663475D01*
X53223475Y-144456632D01*
X53385990Y-144213411D01*
X53497932Y-143943158D01*
X53555000Y-143656260D01*
X53555000Y-143363740D01*
X53497932Y-143076842D01*
X53385990Y-142806589D01*
X53223475Y-142563368D01*
X53016632Y-142356525D01*
X52842240Y-142240000D01*
X53016632Y-142123475D01*
X53223475Y-141916632D01*
X53385990Y-141673411D01*
X53497932Y-141403158D01*
X53555000Y-141116260D01*
X53555000Y-140823740D01*
X53497932Y-140536842D01*
X53385990Y-140266589D01*
X53223475Y-140023368D01*
X53016632Y-139816525D01*
X52842240Y-139700000D01*
X53016632Y-139583475D01*
X53223475Y-139376632D01*
X53385990Y-139133411D01*
X53497932Y-138863158D01*
X53555000Y-138576260D01*
X53555000Y-138283740D01*
X53497932Y-137996842D01*
X53385990Y-137726589D01*
X53223475Y-137483368D01*
X53016632Y-137276525D01*
X52842240Y-137160000D01*
X53016632Y-137043475D01*
X53223475Y-136836632D01*
X53385990Y-136593411D01*
X53497932Y-136323158D01*
X53555000Y-136036260D01*
X53555000Y-135743740D01*
X53497932Y-135456842D01*
X53385990Y-135186589D01*
X53223475Y-134943368D01*
X53016632Y-134736525D01*
X52842240Y-134620000D01*
X53016632Y-134503475D01*
X53223475Y-134296632D01*
X53385990Y-134053411D01*
X53497932Y-133783158D01*
X53555000Y-133496260D01*
X53555000Y-133203740D01*
X53497932Y-132916842D01*
X53385990Y-132646589D01*
X53223475Y-132403368D01*
X53091620Y-132271513D01*
X53164180Y-132249502D01*
X53274494Y-132190537D01*
X53371185Y-132111185D01*
X53450537Y-132014494D01*
X53509502Y-131904180D01*
X53545812Y-131784482D01*
X53557983Y-131660900D01*
X53622546Y-131660900D01*
X53759101Y-131797455D01*
X53759100Y-132673207D01*
X53754984Y-132715000D01*
X53759100Y-132756793D01*
X53759100Y-132756799D01*
X53771412Y-132881805D01*
X53820067Y-133042200D01*
X53899079Y-133190021D01*
X54005412Y-133319588D01*
X54037880Y-133346234D01*
X54613766Y-133922120D01*
X54640412Y-133954588D01*
X54769978Y-134060921D01*
X54917799Y-134139933D01*
X55078194Y-134188588D01*
X55203200Y-134200900D01*
X55203207Y-134200900D01*
X55245000Y-134205016D01*
X55286793Y-134200900D01*
X65052546Y-134200900D01*
X66376270Y-135524625D01*
X66402912Y-135557088D01*
X66435375Y-135583730D01*
X66435379Y-135583734D01*
X66470156Y-135612274D01*
X66532478Y-135663421D01*
X66680299Y-135742433D01*
X66840694Y-135791088D01*
X66965700Y-135803400D01*
X66965706Y-135803400D01*
X67007499Y-135807516D01*
X67049292Y-135803400D01*
X69260511Y-135803400D01*
X69359744Y-135869705D01*
X69548102Y-135947726D01*
X69748061Y-135987500D01*
X69951939Y-135987500D01*
X70151898Y-135947726D01*
X70340256Y-135869705D01*
X70509774Y-135756437D01*
X70653937Y-135612274D01*
X70756069Y-135459423D01*
X70904101Y-135607455D01*
X70904100Y-145697545D01*
X70132546Y-146469100D01*
X69256792Y-146469100D01*
X69214999Y-146464984D01*
X69173206Y-146469100D01*
X69173200Y-146469100D01*
X69048194Y-146481412D01*
X68887799Y-146530067D01*
X68739978Y-146609079D01*
X68685678Y-146653642D01*
X68642879Y-146688766D01*
X68642875Y-146688770D01*
X68610412Y-146715412D01*
X68583770Y-146747875D01*
X67592546Y-147739100D01*
X58404489Y-147739100D01*
X58305256Y-147672795D01*
X58116898Y-147594774D01*
X57916939Y-147555000D01*
X57713061Y-147555000D01*
X57513102Y-147594774D01*
X57324744Y-147672795D01*
X57155226Y-147786063D01*
X57011063Y-147930226D01*
X56897795Y-148099744D01*
X56819774Y-148288102D01*
X56780000Y-148488061D01*
X56780000Y-148691939D01*
X56819774Y-148891898D01*
X56897795Y-149080256D01*
X57011063Y-149249774D01*
X57155226Y-149393937D01*
X57324744Y-149507205D01*
X57513102Y-149585226D01*
X57713061Y-149625000D01*
X57916939Y-149625000D01*
X58116898Y-149585226D01*
X58305256Y-149507205D01*
X58404489Y-149440900D01*
X67903207Y-149440900D01*
X67945000Y-149445016D01*
X67986793Y-149440900D01*
X67986800Y-149440900D01*
X68111806Y-149428588D01*
X68272201Y-149379933D01*
X68420022Y-149300921D01*
X68549588Y-149194588D01*
X68576234Y-149162120D01*
X69567455Y-148170900D01*
X70443207Y-148170900D01*
X70485000Y-148175016D01*
X70526793Y-148170900D01*
X70526800Y-148170900D01*
X70651806Y-148158588D01*
X70812201Y-148109933D01*
X70960022Y-148030921D01*
X71089588Y-147924588D01*
X71116234Y-147892120D01*
X72327126Y-146681229D01*
X72359588Y-146654588D01*
X72386230Y-146622125D01*
X72386234Y-146622121D01*
X72421358Y-146579322D01*
X72465921Y-146525022D01*
X72544933Y-146377201D01*
X72593588Y-146216806D01*
X72605900Y-146091800D01*
X72605900Y-146091794D01*
X72610016Y-146050001D01*
X72605900Y-146008208D01*
X72605900Y-135296793D01*
X72610016Y-135255000D01*
X72605900Y-135213207D01*
X72605900Y-135213200D01*
X72593588Y-135088194D01*
X72544933Y-134927799D01*
X72465921Y-134779978D01*
X72359588Y-134650412D01*
X72327120Y-134623766D01*
X70700900Y-132997546D01*
X70700900Y-130510489D01*
X70767205Y-130411256D01*
X70845226Y-130222898D01*
X70885000Y-130022939D01*
X70885000Y-129819061D01*
X70845226Y-129619102D01*
X70767205Y-129430744D01*
X70653937Y-129261226D01*
X70509774Y-129117063D01*
X70340256Y-129003795D01*
X70151898Y-128925774D01*
X69951939Y-128886000D01*
X69748061Y-128886000D01*
X69548102Y-128925774D01*
X69359744Y-129003795D01*
X69190226Y-129117063D01*
X69046063Y-129261226D01*
X68932795Y-129430744D01*
X68854774Y-129619102D01*
X68815000Y-129819061D01*
X68815000Y-130022939D01*
X68854774Y-130222898D01*
X68932795Y-130411256D01*
X68999101Y-130510490D01*
X68999100Y-133308207D01*
X68994984Y-133350000D01*
X68999100Y-133391793D01*
X68999100Y-133391799D01*
X69011412Y-133516805D01*
X69060067Y-133677200D01*
X69139079Y-133825021D01*
X69245412Y-133954588D01*
X69277880Y-133981234D01*
X69343077Y-134046431D01*
X69260511Y-134101600D01*
X67359955Y-134101600D01*
X66036234Y-132777880D01*
X66009588Y-132745412D01*
X65880022Y-132639079D01*
X65732201Y-132560067D01*
X65571806Y-132511412D01*
X65446800Y-132499100D01*
X65446793Y-132499100D01*
X65405000Y-132494984D01*
X65363207Y-132499100D01*
X55597454Y-132499100D01*
X55460900Y-132362546D01*
X55460900Y-131486793D01*
X55465016Y-131445000D01*
X55460900Y-131403207D01*
X55460900Y-131403200D01*
X55448588Y-131278194D01*
X55399933Y-131117799D01*
X55320921Y-130969978D01*
X55214588Y-130840412D01*
X55182120Y-130813766D01*
X54606234Y-130237880D01*
X54579588Y-130205412D01*
X54450022Y-130099079D01*
X54302201Y-130020067D01*
X54141806Y-129971412D01*
X54016800Y-129959100D01*
X54016793Y-129959100D01*
X53975000Y-129954984D01*
X53933207Y-129959100D01*
X53557983Y-129959100D01*
X53545812Y-129835518D01*
X53509502Y-129715820D01*
X53450537Y-129605506D01*
X53371185Y-129508815D01*
X53274494Y-129429463D01*
X53164180Y-129370498D01*
X53044482Y-129334188D01*
X52920000Y-129321928D01*
X51460000Y-129321928D01*
X51460000Y-127084682D01*
X51636842Y-127157932D01*
X51923740Y-127215000D01*
X52216260Y-127215000D01*
X52503158Y-127157932D01*
X52773411Y-127045990D01*
X53016632Y-126883475D01*
X53223475Y-126676632D01*
X53385990Y-126433411D01*
X53497932Y-126163158D01*
X53555000Y-125876260D01*
X53555000Y-125583740D01*
X53497932Y-125296842D01*
X53385990Y-125026589D01*
X53223475Y-124783368D01*
X53091620Y-124651513D01*
X53164180Y-124629502D01*
X53274494Y-124570537D01*
X53371185Y-124491185D01*
X53450537Y-124394494D01*
X53509502Y-124284180D01*
X53545812Y-124164482D01*
X53558072Y-124040000D01*
X53558072Y-122340000D01*
X53545812Y-122215518D01*
X53509502Y-122095820D01*
X53450537Y-121985506D01*
X53371185Y-121888815D01*
X53274494Y-121809463D01*
X53164180Y-121750498D01*
X53044482Y-121714188D01*
X52920900Y-121702017D01*
X52920900Y-114714872D01*
X53645000Y-114714872D01*
X53645000Y-115155128D01*
X53730890Y-115586925D01*
X53899369Y-115993669D01*
X54143962Y-116359729D01*
X54455271Y-116671038D01*
X54821331Y-116915631D01*
X55228075Y-117084110D01*
X55659872Y-117170000D01*
X56100128Y-117170000D01*
X56531925Y-117084110D01*
X56938669Y-116915631D01*
X57304729Y-116671038D01*
X57616038Y-116359729D01*
X57860631Y-115993669D01*
X58029110Y-115586925D01*
X58115000Y-115155128D01*
X58115000Y-114714872D01*
X63805000Y-114714872D01*
X63805000Y-115155128D01*
X63890890Y-115586925D01*
X64059369Y-115993669D01*
X64303962Y-116359729D01*
X64615271Y-116671038D01*
X64981331Y-116915631D01*
X65388075Y-117084110D01*
X65819872Y-117170000D01*
X66260128Y-117170000D01*
X66691925Y-117084110D01*
X67098669Y-116915631D01*
X67464729Y-116671038D01*
X67776038Y-116359729D01*
X68020631Y-115993669D01*
X68189110Y-115586925D01*
X68275000Y-115155128D01*
X68275000Y-114714872D01*
X68189110Y-114283075D01*
X68020631Y-113876331D01*
X67776038Y-113510271D01*
X67464729Y-113198962D01*
X67098669Y-112954369D01*
X66691925Y-112785890D01*
X66260128Y-112700000D01*
X65819872Y-112700000D01*
X65388075Y-112785890D01*
X64981331Y-112954369D01*
X64615271Y-113198962D01*
X64303962Y-113510271D01*
X64059369Y-113876331D01*
X63890890Y-114283075D01*
X63805000Y-114714872D01*
X58115000Y-114714872D01*
X58029110Y-114283075D01*
X57860631Y-113876331D01*
X57616038Y-113510271D01*
X57304729Y-113198962D01*
X56938669Y-112954369D01*
X56531925Y-112785890D01*
X56100128Y-112700000D01*
X55659872Y-112700000D01*
X55228075Y-112785890D01*
X54821331Y-112954369D01*
X54455271Y-113198962D01*
X54143962Y-113510271D01*
X53899369Y-113876331D01*
X53730890Y-114283075D01*
X53645000Y-114714872D01*
X52920900Y-114714872D01*
X52920900Y-111477454D01*
X53057454Y-111340900D01*
X73942546Y-111340900D01*
X74079101Y-111477455D01*
G37*
X74079101Y-111477455D02*
X74079100Y-121702017D01*
X73955518Y-121714188D01*
X73835820Y-121750498D01*
X73725506Y-121809463D01*
X73628815Y-121888815D01*
X73549463Y-121985506D01*
X73490498Y-122095820D01*
X73454188Y-122215518D01*
X73441928Y-122340000D01*
X73441928Y-124040000D01*
X73454188Y-124164482D01*
X73490498Y-124284180D01*
X73549463Y-124394494D01*
X73628815Y-124491185D01*
X73725506Y-124570537D01*
X73835820Y-124629502D01*
X73908380Y-124651513D01*
X73776525Y-124783368D01*
X73614010Y-125026589D01*
X73502068Y-125296842D01*
X73445000Y-125583740D01*
X73445000Y-125876260D01*
X73502068Y-126163158D01*
X73614010Y-126433411D01*
X73776525Y-126676632D01*
X73983368Y-126883475D01*
X74226589Y-127045990D01*
X74496842Y-127157932D01*
X74783740Y-127215000D01*
X75076260Y-127215000D01*
X75363158Y-127157932D01*
X75540001Y-127084682D01*
X75540001Y-129321928D01*
X74080000Y-129321928D01*
X73955518Y-129334188D01*
X73835820Y-129370498D01*
X73725506Y-129429463D01*
X73628815Y-129508815D01*
X73549463Y-129605506D01*
X73490498Y-129715820D01*
X73454188Y-129835518D01*
X73441928Y-129960000D01*
X73441928Y-131660000D01*
X73454188Y-131784482D01*
X73490498Y-131904180D01*
X73549463Y-132014494D01*
X73628815Y-132111185D01*
X73725506Y-132190537D01*
X73835820Y-132249502D01*
X73908380Y-132271513D01*
X73776525Y-132403368D01*
X73614010Y-132646589D01*
X73502068Y-132916842D01*
X73445000Y-133203740D01*
X73445000Y-133496260D01*
X73502068Y-133783158D01*
X73614010Y-134053411D01*
X73776525Y-134296632D01*
X73983368Y-134503475D01*
X74157760Y-134620000D01*
X73983368Y-134736525D01*
X73776525Y-134943368D01*
X73614010Y-135186589D01*
X73502068Y-135456842D01*
X73445000Y-135743740D01*
X73445000Y-136036260D01*
X73502068Y-136323158D01*
X73614010Y-136593411D01*
X73776525Y-136836632D01*
X73983368Y-137043475D01*
X74157760Y-137160000D01*
X73983368Y-137276525D01*
X73776525Y-137483368D01*
X73614010Y-137726589D01*
X73502068Y-137996842D01*
X73445000Y-138283740D01*
X73445000Y-138576260D01*
X73502068Y-138863158D01*
X73614010Y-139133411D01*
X73776525Y-139376632D01*
X73983368Y-139583475D01*
X74157760Y-139700000D01*
X73983368Y-139816525D01*
X73776525Y-140023368D01*
X73614010Y-140266589D01*
X73502068Y-140536842D01*
X73445000Y-140823740D01*
X73445000Y-141116260D01*
X73502068Y-141403158D01*
X73614010Y-141673411D01*
X73776525Y-141916632D01*
X73983368Y-142123475D01*
X74157760Y-142240000D01*
X73983368Y-142356525D01*
X73776525Y-142563368D01*
X73614010Y-142806589D01*
X73502068Y-143076842D01*
X73445000Y-143363740D01*
X73445000Y-143656260D01*
X73502068Y-143943158D01*
X73614010Y-144213411D01*
X73776525Y-144456632D01*
X73983368Y-144663475D01*
X74157760Y-144780000D01*
X73983368Y-144896525D01*
X73776525Y-145103368D01*
X73614010Y-145346589D01*
X73502068Y-145616842D01*
X73445000Y-145903740D01*
X73445000Y-146196260D01*
X73502068Y-146483158D01*
X73614010Y-146753411D01*
X73776525Y-146996632D01*
X73983368Y-147203475D01*
X74226589Y-147365990D01*
X74496842Y-147477932D01*
X74783740Y-147535000D01*
X75076260Y-147535000D01*
X75363158Y-147477932D01*
X75540000Y-147404682D01*
X75540000Y-149586619D01*
X73386620Y-151740000D01*
X51460000Y-151740000D01*
X51460000Y-147404682D01*
X51636842Y-147477932D01*
X51923740Y-147535000D01*
X52216260Y-147535000D01*
X52503158Y-147477932D01*
X52773411Y-147365990D01*
X53016632Y-147203475D01*
X53223475Y-146996632D01*
X53385990Y-146753411D01*
X53497932Y-146483158D01*
X53555000Y-146196260D01*
X53555000Y-145903740D01*
X53497932Y-145616842D01*
X53385990Y-145346589D01*
X53223475Y-145103368D01*
X53016632Y-144896525D01*
X52842240Y-144780000D01*
X53016632Y-144663475D01*
X53223475Y-144456632D01*
X53385990Y-144213411D01*
X53497932Y-143943158D01*
X53555000Y-143656260D01*
X53555000Y-143363740D01*
X53497932Y-143076842D01*
X53385990Y-142806589D01*
X53223475Y-142563368D01*
X53016632Y-142356525D01*
X52842240Y-142240000D01*
X53016632Y-142123475D01*
X53223475Y-141916632D01*
X53385990Y-141673411D01*
X53497932Y-141403158D01*
X53555000Y-141116260D01*
X53555000Y-140823740D01*
X53497932Y-140536842D01*
X53385990Y-140266589D01*
X53223475Y-140023368D01*
X53016632Y-139816525D01*
X52842240Y-139700000D01*
X53016632Y-139583475D01*
X53223475Y-139376632D01*
X53385990Y-139133411D01*
X53497932Y-138863158D01*
X53555000Y-138576260D01*
X53555000Y-138283740D01*
X53497932Y-137996842D01*
X53385990Y-137726589D01*
X53223475Y-137483368D01*
X53016632Y-137276525D01*
X52842240Y-137160000D01*
X53016632Y-137043475D01*
X53223475Y-136836632D01*
X53385990Y-136593411D01*
X53497932Y-136323158D01*
X53555000Y-136036260D01*
X53555000Y-135743740D01*
X53497932Y-135456842D01*
X53385990Y-135186589D01*
X53223475Y-134943368D01*
X53016632Y-134736525D01*
X52842240Y-134620000D01*
X53016632Y-134503475D01*
X53223475Y-134296632D01*
X53385990Y-134053411D01*
X53497932Y-133783158D01*
X53555000Y-133496260D01*
X53555000Y-133203740D01*
X53497932Y-132916842D01*
X53385990Y-132646589D01*
X53223475Y-132403368D01*
X53091620Y-132271513D01*
X53164180Y-132249502D01*
X53274494Y-132190537D01*
X53371185Y-132111185D01*
X53450537Y-132014494D01*
X53509502Y-131904180D01*
X53545812Y-131784482D01*
X53557983Y-131660900D01*
X53622546Y-131660900D01*
X53759101Y-131797455D01*
X53759100Y-132673207D01*
X53754984Y-132715000D01*
X53759100Y-132756793D01*
X53759100Y-132756799D01*
X53771412Y-132881805D01*
X53820067Y-133042200D01*
X53899079Y-133190021D01*
X54005412Y-133319588D01*
X54037880Y-133346234D01*
X54613766Y-133922120D01*
X54640412Y-133954588D01*
X54769978Y-134060921D01*
X54917799Y-134139933D01*
X55078194Y-134188588D01*
X55203200Y-134200900D01*
X55203207Y-134200900D01*
X55245000Y-134205016D01*
X55286793Y-134200900D01*
X65052546Y-134200900D01*
X66376270Y-135524625D01*
X66402912Y-135557088D01*
X66435375Y-135583730D01*
X66435379Y-135583734D01*
X66470156Y-135612274D01*
X66532478Y-135663421D01*
X66680299Y-135742433D01*
X66840694Y-135791088D01*
X66965700Y-135803400D01*
X66965706Y-135803400D01*
X67007499Y-135807516D01*
X67049292Y-135803400D01*
X69260511Y-135803400D01*
X69359744Y-135869705D01*
X69548102Y-135947726D01*
X69748061Y-135987500D01*
X69951939Y-135987500D01*
X70151898Y-135947726D01*
X70340256Y-135869705D01*
X70509774Y-135756437D01*
X70653937Y-135612274D01*
X70756069Y-135459423D01*
X70904101Y-135607455D01*
X70904100Y-145697545D01*
X70132546Y-146469100D01*
X69256792Y-146469100D01*
X69214999Y-146464984D01*
X69173206Y-146469100D01*
X69173200Y-146469100D01*
X69048194Y-146481412D01*
X68887799Y-146530067D01*
X68739978Y-146609079D01*
X68685678Y-146653642D01*
X68642879Y-146688766D01*
X68642875Y-146688770D01*
X68610412Y-146715412D01*
X68583770Y-146747875D01*
X67592546Y-147739100D01*
X58404489Y-147739100D01*
X58305256Y-147672795D01*
X58116898Y-147594774D01*
X57916939Y-147555000D01*
X57713061Y-147555000D01*
X57513102Y-147594774D01*
X57324744Y-147672795D01*
X57155226Y-147786063D01*
X57011063Y-147930226D01*
X56897795Y-148099744D01*
X56819774Y-148288102D01*
X56780000Y-148488061D01*
X56780000Y-148691939D01*
X56819774Y-148891898D01*
X56897795Y-149080256D01*
X57011063Y-149249774D01*
X57155226Y-149393937D01*
X57324744Y-149507205D01*
X57513102Y-149585226D01*
X57713061Y-149625000D01*
X57916939Y-149625000D01*
X58116898Y-149585226D01*
X58305256Y-149507205D01*
X58404489Y-149440900D01*
X67903207Y-149440900D01*
X67945000Y-149445016D01*
X67986793Y-149440900D01*
X67986800Y-149440900D01*
X68111806Y-149428588D01*
X68272201Y-149379933D01*
X68420022Y-149300921D01*
X68549588Y-149194588D01*
X68576234Y-149162120D01*
X69567455Y-148170900D01*
X70443207Y-148170900D01*
X70485000Y-148175016D01*
X70526793Y-148170900D01*
X70526800Y-148170900D01*
X70651806Y-148158588D01*
X70812201Y-148109933D01*
X70960022Y-148030921D01*
X71089588Y-147924588D01*
X71116234Y-147892120D01*
X72327126Y-146681229D01*
X72359588Y-146654588D01*
X72386230Y-146622125D01*
X72386234Y-146622121D01*
X72421358Y-146579322D01*
X72465921Y-146525022D01*
X72544933Y-146377201D01*
X72593588Y-146216806D01*
X72605900Y-146091800D01*
X72605900Y-146091794D01*
X72610016Y-146050001D01*
X72605900Y-146008208D01*
X72605900Y-135296793D01*
X72610016Y-135255000D01*
X72605900Y-135213207D01*
X72605900Y-135213200D01*
X72593588Y-135088194D01*
X72544933Y-134927799D01*
X72465921Y-134779978D01*
X72359588Y-134650412D01*
X72327120Y-134623766D01*
X70700900Y-132997546D01*
X70700900Y-130510489D01*
X70767205Y-130411256D01*
X70845226Y-130222898D01*
X70885000Y-130022939D01*
X70885000Y-129819061D01*
X70845226Y-129619102D01*
X70767205Y-129430744D01*
X70653937Y-129261226D01*
X70509774Y-129117063D01*
X70340256Y-129003795D01*
X70151898Y-128925774D01*
X69951939Y-128886000D01*
X69748061Y-128886000D01*
X69548102Y-128925774D01*
X69359744Y-129003795D01*
X69190226Y-129117063D01*
X69046063Y-129261226D01*
X68932795Y-129430744D01*
X68854774Y-129619102D01*
X68815000Y-129819061D01*
X68815000Y-130022939D01*
X68854774Y-130222898D01*
X68932795Y-130411256D01*
X68999101Y-130510490D01*
X68999100Y-133308207D01*
X68994984Y-133350000D01*
X68999100Y-133391793D01*
X68999100Y-133391799D01*
X69011412Y-133516805D01*
X69060067Y-133677200D01*
X69139079Y-133825021D01*
X69245412Y-133954588D01*
X69277880Y-133981234D01*
X69343077Y-134046431D01*
X69260511Y-134101600D01*
X67359955Y-134101600D01*
X66036234Y-132777880D01*
X66009588Y-132745412D01*
X65880022Y-132639079D01*
X65732201Y-132560067D01*
X65571806Y-132511412D01*
X65446800Y-132499100D01*
X65446793Y-132499100D01*
X65405000Y-132494984D01*
X65363207Y-132499100D01*
X55597454Y-132499100D01*
X55460900Y-132362546D01*
X55460900Y-131486793D01*
X55465016Y-131445000D01*
X55460900Y-131403207D01*
X55460900Y-131403200D01*
X55448588Y-131278194D01*
X55399933Y-131117799D01*
X55320921Y-130969978D01*
X55214588Y-130840412D01*
X55182120Y-130813766D01*
X54606234Y-130237880D01*
X54579588Y-130205412D01*
X54450022Y-130099079D01*
X54302201Y-130020067D01*
X54141806Y-129971412D01*
X54016800Y-129959100D01*
X54016793Y-129959100D01*
X53975000Y-129954984D01*
X53933207Y-129959100D01*
X53557983Y-129959100D01*
X53545812Y-129835518D01*
X53509502Y-129715820D01*
X53450537Y-129605506D01*
X53371185Y-129508815D01*
X53274494Y-129429463D01*
X53164180Y-129370498D01*
X53044482Y-129334188D01*
X52920000Y-129321928D01*
X51460000Y-129321928D01*
X51460000Y-127084682D01*
X51636842Y-127157932D01*
X51923740Y-127215000D01*
X52216260Y-127215000D01*
X52503158Y-127157932D01*
X52773411Y-127045990D01*
X53016632Y-126883475D01*
X53223475Y-126676632D01*
X53385990Y-126433411D01*
X53497932Y-126163158D01*
X53555000Y-125876260D01*
X53555000Y-125583740D01*
X53497932Y-125296842D01*
X53385990Y-125026589D01*
X53223475Y-124783368D01*
X53091620Y-124651513D01*
X53164180Y-124629502D01*
X53274494Y-124570537D01*
X53371185Y-124491185D01*
X53450537Y-124394494D01*
X53509502Y-124284180D01*
X53545812Y-124164482D01*
X53558072Y-124040000D01*
X53558072Y-122340000D01*
X53545812Y-122215518D01*
X53509502Y-122095820D01*
X53450537Y-121985506D01*
X53371185Y-121888815D01*
X53274494Y-121809463D01*
X53164180Y-121750498D01*
X53044482Y-121714188D01*
X52920900Y-121702017D01*
X52920900Y-114714872D01*
X53645000Y-114714872D01*
X53645000Y-115155128D01*
X53730890Y-115586925D01*
X53899369Y-115993669D01*
X54143962Y-116359729D01*
X54455271Y-116671038D01*
X54821331Y-116915631D01*
X55228075Y-117084110D01*
X55659872Y-117170000D01*
X56100128Y-117170000D01*
X56531925Y-117084110D01*
X56938669Y-116915631D01*
X57304729Y-116671038D01*
X57616038Y-116359729D01*
X57860631Y-115993669D01*
X58029110Y-115586925D01*
X58115000Y-115155128D01*
X58115000Y-114714872D01*
X63805000Y-114714872D01*
X63805000Y-115155128D01*
X63890890Y-115586925D01*
X64059369Y-115993669D01*
X64303962Y-116359729D01*
X64615271Y-116671038D01*
X64981331Y-116915631D01*
X65388075Y-117084110D01*
X65819872Y-117170000D01*
X66260128Y-117170000D01*
X66691925Y-117084110D01*
X67098669Y-116915631D01*
X67464729Y-116671038D01*
X67776038Y-116359729D01*
X68020631Y-115993669D01*
X68189110Y-115586925D01*
X68275000Y-115155128D01*
X68275000Y-114714872D01*
X68189110Y-114283075D01*
X68020631Y-113876331D01*
X67776038Y-113510271D01*
X67464729Y-113198962D01*
X67098669Y-112954369D01*
X66691925Y-112785890D01*
X66260128Y-112700000D01*
X65819872Y-112700000D01*
X65388075Y-112785890D01*
X64981331Y-112954369D01*
X64615271Y-113198962D01*
X64303962Y-113510271D01*
X64059369Y-113876331D01*
X63890890Y-114283075D01*
X63805000Y-114714872D01*
X58115000Y-114714872D01*
X58029110Y-114283075D01*
X57860631Y-113876331D01*
X57616038Y-113510271D01*
X57304729Y-113198962D01*
X56938669Y-112954369D01*
X56531925Y-112785890D01*
X56100128Y-112700000D01*
X55659872Y-112700000D01*
X55228075Y-112785890D01*
X54821331Y-112954369D01*
X54455271Y-113198962D01*
X54143962Y-113510271D01*
X53899369Y-113876331D01*
X53730890Y-114283075D01*
X53645000Y-114714872D01*
X52920900Y-114714872D01*
X52920900Y-111477454D01*
X53057454Y-111340900D01*
X73942546Y-111340900D01*
X74079101Y-111477455D01*
M02*
