M48
; DRILL file {KiCad (5.1.5)-3} date 7.5.2020. 11:50:37
; FORMAT={-:-/ absolute / inch / decimal}
; #@! TF.CreationDate,2020-05-07T11:50:37+02:00
; #@! TF.GenerationSoftware,Kicad,Pcbnew,(5.1.5)-3
; #@! TF.FileFunction,Plated,1,2,PTH
FMAT,2
INCH
T1C0.0157
T2C0.0394
T3C0.0591
%
G90
G05
T1
X2.225Y-5.59
X2.2762Y-5.85
X2.435Y-4.905
X2.435Y-4.945
X2.535Y-5.6
X2.56Y-5.1
X2.75Y-5.115
X2.75Y-5.3131
X2.75Y-5.385
X2.75Y-5.515
X2.785Y-4.91
X2.785Y-4.945
X2.785Y-5.85
T2
X2.95Y-4.85
X2.95Y-4.95
X2.05Y-4.85
X2.05Y-4.95
X2.95Y-5.15
X2.95Y-5.25
X2.95Y-5.35
X2.95Y-5.45
X2.95Y-5.55
X2.95Y-5.65
X2.95Y-5.75
X2.95Y-5.85
X2.05Y-5.15
X2.05Y-5.25
X2.05Y-5.35
X2.05Y-5.45
X2.05Y-5.55
X2.05Y-5.65
X2.05Y-5.75
X2.05Y-5.85
T3
X2.2Y-4.525
X2.4Y-4.525
X2.6Y-4.525
X2.8Y-4.525
X2.5Y-5.35
T0
M30
