G04 #@! TF.GenerationSoftware,KiCad,Pcbnew,(5.1.5)-3*
G04 #@! TF.CreationDate,2020-05-07T11:50:38+02:00*
G04 #@! TF.ProjectId,TPS16630_eFuse,54505331-3636-4333-905f-65467573652e,rev?*
G04 #@! TF.SameCoordinates,Original*
G04 #@! TF.FileFunction,Legend,Bot*
G04 #@! TF.FilePolarity,Positive*
%FSLAX46Y46*%
G04 Gerber Fmt 4.6, Leading zero omitted, Abs format (unit mm)*
G04 Created by KiCad (PCBNEW (5.1.5)-3) date 2020-05-07 11:50:38*
%MOMM*%
%LPD*%
G04 APERTURE LIST*
%ADD10C,0.150000*%
%ADD11C,0.010000*%
%ADD12C,0.120000*%
G04 APERTURE END LIST*
D10*
X72879857Y-133295571D02*
X73133857Y-133295571D01*
X73133857Y-133694714D02*
X73133857Y-132932714D01*
X72771000Y-132932714D01*
X72117857Y-133694714D02*
X72480714Y-133694714D01*
X72480714Y-132932714D01*
X71972714Y-132932714D02*
X71537285Y-132932714D01*
X71755000Y-133694714D02*
X71755000Y-132932714D01*
X72988714Y-131154714D02*
X72988714Y-130392714D01*
X72553285Y-131154714D01*
X72553285Y-130392714D01*
X71755000Y-131082142D02*
X71791285Y-131118428D01*
X71900142Y-131154714D01*
X71972714Y-131154714D01*
X72081571Y-131118428D01*
X72154142Y-131045857D01*
X72190428Y-130973285D01*
X72226714Y-130828142D01*
X72226714Y-130719285D01*
X72190428Y-130574142D01*
X72154142Y-130501571D01*
X72081571Y-130429000D01*
X71972714Y-130392714D01*
X71900142Y-130392714D01*
X71791285Y-130429000D01*
X71755000Y-130465285D01*
X72988714Y-136234714D02*
X72988714Y-135472714D01*
X72553285Y-136234714D01*
X72553285Y-135472714D01*
X71755000Y-136162142D02*
X71791285Y-136198428D01*
X71900142Y-136234714D01*
X71972714Y-136234714D01*
X72081571Y-136198428D01*
X72154142Y-136125857D01*
X72190428Y-136053285D01*
X72226714Y-135908142D01*
X72226714Y-135799285D01*
X72190428Y-135654142D01*
X72154142Y-135581571D01*
X72081571Y-135509000D01*
X71972714Y-135472714D01*
X71900142Y-135472714D01*
X71791285Y-135509000D01*
X71755000Y-135545285D01*
X72988714Y-138774714D02*
X72988714Y-138012714D01*
X72553285Y-138774714D01*
X72553285Y-138012714D01*
X71755000Y-138702142D02*
X71791285Y-138738428D01*
X71900142Y-138774714D01*
X71972714Y-138774714D01*
X72081571Y-138738428D01*
X72154142Y-138665857D01*
X72190428Y-138593285D01*
X72226714Y-138448142D01*
X72226714Y-138339285D01*
X72190428Y-138194142D01*
X72154142Y-138121571D01*
X72081571Y-138049000D01*
X71972714Y-138012714D01*
X71900142Y-138012714D01*
X71791285Y-138049000D01*
X71755000Y-138085285D01*
X72988714Y-141314714D02*
X72988714Y-140552714D01*
X72553285Y-141314714D01*
X72553285Y-140552714D01*
X71755000Y-141242142D02*
X71791285Y-141278428D01*
X71900142Y-141314714D01*
X71972714Y-141314714D01*
X72081571Y-141278428D01*
X72154142Y-141205857D01*
X72190428Y-141133285D01*
X72226714Y-140988142D01*
X72226714Y-140879285D01*
X72190428Y-140734142D01*
X72154142Y-140661571D01*
X72081571Y-140589000D01*
X71972714Y-140552714D01*
X71900142Y-140552714D01*
X71791285Y-140589000D01*
X71755000Y-140625285D01*
X72988714Y-143854714D02*
X72988714Y-143092714D01*
X72553285Y-143854714D01*
X72553285Y-143092714D01*
X71755000Y-143782142D02*
X71791285Y-143818428D01*
X71900142Y-143854714D01*
X71972714Y-143854714D01*
X72081571Y-143818428D01*
X72154142Y-143745857D01*
X72190428Y-143673285D01*
X72226714Y-143528142D01*
X72226714Y-143419285D01*
X72190428Y-143274142D01*
X72154142Y-143201571D01*
X72081571Y-143129000D01*
X71972714Y-143092714D01*
X71900142Y-143092714D01*
X71791285Y-143129000D01*
X71755000Y-143165285D01*
X72535142Y-145632714D02*
X72898000Y-145632714D01*
X72934285Y-145995571D01*
X72898000Y-145959285D01*
X72825428Y-145923000D01*
X72644000Y-145923000D01*
X72571428Y-145959285D01*
X72535142Y-145995571D01*
X72498857Y-146068142D01*
X72498857Y-146249571D01*
X72535142Y-146322142D01*
X72571428Y-146358428D01*
X72644000Y-146394714D01*
X72825428Y-146394714D01*
X72898000Y-146358428D01*
X72934285Y-146322142D01*
X72281142Y-145632714D02*
X72027142Y-146394714D01*
X71773142Y-145632714D01*
X72970571Y-148209000D02*
X73043142Y-148172714D01*
X73152000Y-148172714D01*
X73260857Y-148209000D01*
X73333428Y-148281571D01*
X73369714Y-148354142D01*
X73406000Y-148499285D01*
X73406000Y-148608142D01*
X73369714Y-148753285D01*
X73333428Y-148825857D01*
X73260857Y-148898428D01*
X73152000Y-148934714D01*
X73079428Y-148934714D01*
X72970571Y-148898428D01*
X72934285Y-148862142D01*
X72934285Y-148608142D01*
X73079428Y-148608142D01*
X72607714Y-148934714D02*
X72607714Y-148172714D01*
X72172285Y-148934714D01*
X72172285Y-148172714D01*
X71809428Y-148934714D02*
X71809428Y-148172714D01*
X71628000Y-148172714D01*
X71519142Y-148209000D01*
X71446571Y-148281571D01*
X71410285Y-148354142D01*
X71374000Y-148499285D01*
X71374000Y-148608142D01*
X71410285Y-148753285D01*
X71446571Y-148825857D01*
X71519142Y-148898428D01*
X71628000Y-148934714D01*
X71809428Y-148934714D01*
X55444571Y-148209000D02*
X55517142Y-148172714D01*
X55626000Y-148172714D01*
X55734857Y-148209000D01*
X55807428Y-148281571D01*
X55843714Y-148354142D01*
X55880000Y-148499285D01*
X55880000Y-148608142D01*
X55843714Y-148753285D01*
X55807428Y-148825857D01*
X55734857Y-148898428D01*
X55626000Y-148934714D01*
X55553428Y-148934714D01*
X55444571Y-148898428D01*
X55408285Y-148862142D01*
X55408285Y-148608142D01*
X55553428Y-148608142D01*
X55081714Y-148934714D02*
X55081714Y-148172714D01*
X54646285Y-148934714D01*
X54646285Y-148172714D01*
X54283428Y-148934714D02*
X54283428Y-148172714D01*
X54102000Y-148172714D01*
X53993142Y-148209000D01*
X53920571Y-148281571D01*
X53884285Y-148354142D01*
X53848000Y-148499285D01*
X53848000Y-148608142D01*
X53884285Y-148753285D01*
X53920571Y-148825857D01*
X53993142Y-148898428D01*
X54102000Y-148934714D01*
X54283428Y-148934714D01*
X55807428Y-145632714D02*
X55335714Y-145632714D01*
X55589714Y-145923000D01*
X55480857Y-145923000D01*
X55408285Y-145959285D01*
X55372000Y-145995571D01*
X55335714Y-146068142D01*
X55335714Y-146249571D01*
X55372000Y-146322142D01*
X55408285Y-146358428D01*
X55480857Y-146394714D01*
X55698571Y-146394714D01*
X55771142Y-146358428D01*
X55807428Y-146322142D01*
X55118000Y-145632714D02*
X54864000Y-146394714D01*
X54610000Y-145632714D01*
X54428571Y-145632714D02*
X53956857Y-145632714D01*
X54210857Y-145923000D01*
X54102000Y-145923000D01*
X54029428Y-145959285D01*
X53993142Y-145995571D01*
X53956857Y-146068142D01*
X53956857Y-146249571D01*
X53993142Y-146322142D01*
X54029428Y-146358428D01*
X54102000Y-146394714D01*
X54319714Y-146394714D01*
X54392285Y-146358428D01*
X54428571Y-146322142D01*
X55208714Y-143854714D02*
X55208714Y-143092714D01*
X54773285Y-143854714D01*
X54773285Y-143092714D01*
X53975000Y-143782142D02*
X54011285Y-143818428D01*
X54120142Y-143854714D01*
X54192714Y-143854714D01*
X54301571Y-143818428D01*
X54374142Y-143745857D01*
X54410428Y-143673285D01*
X54446714Y-143528142D01*
X54446714Y-143419285D01*
X54410428Y-143274142D01*
X54374142Y-143201571D01*
X54301571Y-143129000D01*
X54192714Y-143092714D01*
X54120142Y-143092714D01*
X54011285Y-143129000D01*
X53975000Y-143165285D01*
X55208714Y-141314714D02*
X55208714Y-140552714D01*
X54773285Y-141314714D01*
X54773285Y-140552714D01*
X53975000Y-141242142D02*
X54011285Y-141278428D01*
X54120142Y-141314714D01*
X54192714Y-141314714D01*
X54301571Y-141278428D01*
X54374142Y-141205857D01*
X54410428Y-141133285D01*
X54446714Y-140988142D01*
X54446714Y-140879285D01*
X54410428Y-140734142D01*
X54374142Y-140661571D01*
X54301571Y-140589000D01*
X54192714Y-140552714D01*
X54120142Y-140552714D01*
X54011285Y-140589000D01*
X53975000Y-140625285D01*
X55208714Y-138774714D02*
X55208714Y-138012714D01*
X54773285Y-138774714D01*
X54773285Y-138012714D01*
X53975000Y-138702142D02*
X54011285Y-138738428D01*
X54120142Y-138774714D01*
X54192714Y-138774714D01*
X54301571Y-138738428D01*
X54374142Y-138665857D01*
X54410428Y-138593285D01*
X54446714Y-138448142D01*
X54446714Y-138339285D01*
X54410428Y-138194142D01*
X54374142Y-138121571D01*
X54301571Y-138049000D01*
X54192714Y-138012714D01*
X54120142Y-138012714D01*
X54011285Y-138049000D01*
X53975000Y-138085285D01*
X56642000Y-136198428D02*
X56533142Y-136234714D01*
X56351714Y-136234714D01*
X56279142Y-136198428D01*
X56242857Y-136162142D01*
X56206571Y-136089571D01*
X56206571Y-136017000D01*
X56242857Y-135944428D01*
X56279142Y-135908142D01*
X56351714Y-135871857D01*
X56496857Y-135835571D01*
X56569428Y-135799285D01*
X56605714Y-135763000D01*
X56642000Y-135690428D01*
X56642000Y-135617857D01*
X56605714Y-135545285D01*
X56569428Y-135509000D01*
X56496857Y-135472714D01*
X56315428Y-135472714D01*
X56206571Y-135509000D01*
X55880000Y-136234714D02*
X55880000Y-135472714D01*
X55880000Y-135835571D02*
X55444571Y-135835571D01*
X55444571Y-136234714D02*
X55444571Y-135472714D01*
X55081714Y-136234714D02*
X55081714Y-135472714D01*
X54646285Y-136234714D01*
X54646285Y-135472714D01*
X54283428Y-136234714D02*
X54283428Y-135472714D01*
X54102000Y-135472714D01*
X53993142Y-135509000D01*
X53920571Y-135581571D01*
X53884285Y-135654142D01*
X53848000Y-135799285D01*
X53848000Y-135908142D01*
X53884285Y-136053285D01*
X53920571Y-136125857D01*
X53993142Y-136198428D01*
X54102000Y-136234714D01*
X54283428Y-136234714D01*
X55208714Y-133694714D02*
X55208714Y-132932714D01*
X54773285Y-133694714D01*
X54773285Y-132932714D01*
X53975000Y-133622142D02*
X54011285Y-133658428D01*
X54120142Y-133694714D01*
X54192714Y-133694714D01*
X54301571Y-133658428D01*
X54374142Y-133585857D01*
X54410428Y-133513285D01*
X54446714Y-133368142D01*
X54446714Y-133259285D01*
X54410428Y-133114142D01*
X54374142Y-133041571D01*
X54301571Y-132969000D01*
X54192714Y-132932714D01*
X54120142Y-132932714D01*
X54011285Y-132969000D01*
X53975000Y-133005285D01*
X55190571Y-130937000D02*
X54827714Y-130937000D01*
X55263142Y-131154714D02*
X55009142Y-130392714D01*
X54755142Y-131154714D01*
X54501142Y-131154714D02*
X54501142Y-130392714D01*
X54065714Y-131154714D01*
X54065714Y-130392714D01*
X74676000Y-110834714D02*
X74676000Y-110072714D01*
X74494571Y-110072714D01*
X74385714Y-110109000D01*
X74313142Y-110181571D01*
X74276857Y-110254142D01*
X74240571Y-110399285D01*
X74240571Y-110508142D01*
X74276857Y-110653285D01*
X74313142Y-110725857D01*
X74385714Y-110798428D01*
X74494571Y-110834714D01*
X74676000Y-110834714D01*
X73914000Y-110435571D02*
X73660000Y-110435571D01*
X73551142Y-110834714D02*
X73914000Y-110834714D01*
X73914000Y-110072714D01*
X73551142Y-110072714D01*
X73260857Y-110798428D02*
X73152000Y-110834714D01*
X72970571Y-110834714D01*
X72898000Y-110798428D01*
X72861714Y-110762142D01*
X72825428Y-110689571D01*
X72825428Y-110617000D01*
X72861714Y-110544428D01*
X72898000Y-110508142D01*
X72970571Y-110471857D01*
X73115714Y-110435571D01*
X73188285Y-110399285D01*
X73224571Y-110363000D01*
X73260857Y-110290428D01*
X73260857Y-110217857D01*
X73224571Y-110145285D01*
X73188285Y-110109000D01*
X73115714Y-110072714D01*
X72934285Y-110072714D01*
X72825428Y-110109000D01*
X72498857Y-110834714D02*
X72498857Y-110072714D01*
X71736857Y-110109000D02*
X71809428Y-110072714D01*
X71918285Y-110072714D01*
X72027142Y-110109000D01*
X72099714Y-110181571D01*
X72136000Y-110254142D01*
X72172285Y-110399285D01*
X72172285Y-110508142D01*
X72136000Y-110653285D01*
X72099714Y-110725857D01*
X72027142Y-110798428D01*
X71918285Y-110834714D01*
X71845714Y-110834714D01*
X71736857Y-110798428D01*
X71700571Y-110762142D01*
X71700571Y-110508142D01*
X71845714Y-110508142D01*
X71374000Y-110834714D02*
X71374000Y-110072714D01*
X70938571Y-110834714D01*
X70938571Y-110072714D01*
X70575714Y-110435571D02*
X70321714Y-110435571D01*
X70212857Y-110834714D02*
X70575714Y-110834714D01*
X70575714Y-110072714D01*
X70212857Y-110072714D01*
X69886285Y-110834714D02*
X69886285Y-110072714D01*
X69704857Y-110072714D01*
X69596000Y-110109000D01*
X69523428Y-110181571D01*
X69487142Y-110254142D01*
X69450857Y-110399285D01*
X69450857Y-110508142D01*
X69487142Y-110653285D01*
X69523428Y-110725857D01*
X69596000Y-110798428D01*
X69704857Y-110834714D01*
X69886285Y-110834714D01*
X68289714Y-110435571D02*
X68180857Y-110471857D01*
X68144571Y-110508142D01*
X68108285Y-110580714D01*
X68108285Y-110689571D01*
X68144571Y-110762142D01*
X68180857Y-110798428D01*
X68253428Y-110834714D01*
X68543714Y-110834714D01*
X68543714Y-110072714D01*
X68289714Y-110072714D01*
X68217142Y-110109000D01*
X68180857Y-110145285D01*
X68144571Y-110217857D01*
X68144571Y-110290428D01*
X68180857Y-110363000D01*
X68217142Y-110399285D01*
X68289714Y-110435571D01*
X68543714Y-110435571D01*
X67636571Y-110471857D02*
X67636571Y-110834714D01*
X67890571Y-110072714D02*
X67636571Y-110471857D01*
X67382571Y-110072714D01*
X67128571Y-110762142D02*
X67092285Y-110798428D01*
X67128571Y-110834714D01*
X67164857Y-110798428D01*
X67128571Y-110762142D01*
X67128571Y-110834714D01*
X67128571Y-110363000D02*
X67092285Y-110399285D01*
X67128571Y-110435571D01*
X67164857Y-110399285D01*
X67128571Y-110363000D01*
X67128571Y-110435571D01*
X66185142Y-110834714D02*
X66185142Y-110072714D01*
X65931142Y-110617000D01*
X65677142Y-110072714D01*
X65677142Y-110834714D01*
X65350571Y-110617000D02*
X64987714Y-110617000D01*
X65423142Y-110834714D02*
X65169142Y-110072714D01*
X64915142Y-110834714D01*
X64225714Y-110834714D02*
X64479714Y-110471857D01*
X64661142Y-110834714D02*
X64661142Y-110072714D01*
X64370857Y-110072714D01*
X64298285Y-110109000D01*
X64262000Y-110145285D01*
X64225714Y-110217857D01*
X64225714Y-110326714D01*
X64262000Y-110399285D01*
X64298285Y-110435571D01*
X64370857Y-110471857D01*
X64661142Y-110471857D01*
X63899142Y-110834714D02*
X63899142Y-110072714D01*
X63391142Y-110072714D02*
X63246000Y-110072714D01*
X63173428Y-110109000D01*
X63100857Y-110181571D01*
X63064571Y-110326714D01*
X63064571Y-110580714D01*
X63100857Y-110725857D01*
X63173428Y-110798428D01*
X63246000Y-110834714D01*
X63391142Y-110834714D01*
X63463714Y-110798428D01*
X63536285Y-110725857D01*
X63572571Y-110580714D01*
X63572571Y-110326714D01*
X63536285Y-110181571D01*
X63463714Y-110109000D01*
X63391142Y-110072714D01*
X62012285Y-110072714D02*
X61867142Y-110072714D01*
X61794571Y-110109000D01*
X61722000Y-110181571D01*
X61685714Y-110326714D01*
X61685714Y-110580714D01*
X61722000Y-110725857D01*
X61794571Y-110798428D01*
X61867142Y-110834714D01*
X62012285Y-110834714D01*
X62084857Y-110798428D01*
X62157428Y-110725857D01*
X62193714Y-110580714D01*
X62193714Y-110326714D01*
X62157428Y-110181571D01*
X62084857Y-110109000D01*
X62012285Y-110072714D01*
X60996285Y-110834714D02*
X61359142Y-110834714D01*
X61359142Y-110072714D01*
X60742285Y-110435571D02*
X60488285Y-110435571D01*
X60379428Y-110834714D02*
X60742285Y-110834714D01*
X60742285Y-110072714D01*
X60379428Y-110072714D01*
X60161714Y-110072714D02*
X59726285Y-110072714D01*
X59944000Y-110834714D02*
X59944000Y-110072714D01*
X59472285Y-110834714D02*
X59472285Y-110072714D01*
X58674000Y-110762142D02*
X58710285Y-110798428D01*
X58819142Y-110834714D01*
X58891714Y-110834714D01*
X59000571Y-110798428D01*
X59073142Y-110725857D01*
X59109428Y-110653285D01*
X59145714Y-110508142D01*
X59145714Y-110399285D01*
X59109428Y-110254142D01*
X59073142Y-110181571D01*
X59000571Y-110109000D01*
X58891714Y-110072714D01*
X58819142Y-110072714D01*
X58710285Y-110109000D01*
X58674000Y-110145285D01*
X58782857Y-109782428D02*
X58891714Y-109891285D01*
X58311142Y-110798428D02*
X58311142Y-110834714D01*
X58347428Y-110907285D01*
X58383714Y-110943571D01*
X57404000Y-110834714D02*
X57404000Y-110326714D01*
X57404000Y-110399285D02*
X57367714Y-110363000D01*
X57295142Y-110326714D01*
X57186285Y-110326714D01*
X57113714Y-110363000D01*
X57077428Y-110435571D01*
X57077428Y-110834714D01*
X57077428Y-110435571D02*
X57041142Y-110363000D01*
X56968571Y-110326714D01*
X56859714Y-110326714D01*
X56787142Y-110363000D01*
X56750857Y-110435571D01*
X56750857Y-110834714D01*
X56061428Y-110834714D02*
X56061428Y-110435571D01*
X56097714Y-110363000D01*
X56170285Y-110326714D01*
X56315428Y-110326714D01*
X56388000Y-110363000D01*
X56061428Y-110798428D02*
X56134000Y-110834714D01*
X56315428Y-110834714D01*
X56388000Y-110798428D01*
X56424285Y-110725857D01*
X56424285Y-110653285D01*
X56388000Y-110580714D01*
X56315428Y-110544428D01*
X56134000Y-110544428D01*
X56061428Y-110508142D01*
X55372000Y-110326714D02*
X55372000Y-110943571D01*
X55408285Y-111016142D01*
X55444571Y-111052428D01*
X55517142Y-111088714D01*
X55626000Y-111088714D01*
X55698571Y-111052428D01*
X55372000Y-110798428D02*
X55444571Y-110834714D01*
X55589714Y-110834714D01*
X55662285Y-110798428D01*
X55698571Y-110762142D01*
X55734857Y-110689571D01*
X55734857Y-110471857D01*
X55698571Y-110399285D01*
X55662285Y-110363000D01*
X55589714Y-110326714D01*
X55444571Y-110326714D01*
X55372000Y-110363000D01*
X55009142Y-110762142D02*
X54972857Y-110798428D01*
X55009142Y-110834714D01*
X55045428Y-110798428D01*
X55009142Y-110762142D01*
X55009142Y-110834714D01*
X54065714Y-110834714D02*
X54065714Y-110326714D01*
X54065714Y-110072714D02*
X54102000Y-110109000D01*
X54065714Y-110145285D01*
X54029428Y-110109000D01*
X54065714Y-110072714D01*
X54065714Y-110145285D01*
X53702857Y-110326714D02*
X53702857Y-110834714D01*
X53702857Y-110399285D02*
X53666571Y-110363000D01*
X53594000Y-110326714D01*
X53485142Y-110326714D01*
X53412571Y-110363000D01*
X53376285Y-110435571D01*
X53376285Y-110834714D01*
X52686857Y-110326714D02*
X52686857Y-110943571D01*
X52723142Y-111016142D01*
X52759428Y-111052428D01*
X52832000Y-111088714D01*
X52940857Y-111088714D01*
X53013428Y-111052428D01*
X52686857Y-110798428D02*
X52759428Y-110834714D01*
X52904571Y-110834714D01*
X52977142Y-110798428D01*
X53013428Y-110762142D01*
X53049714Y-110689571D01*
X53049714Y-110471857D01*
X53013428Y-110399285D01*
X52977142Y-110363000D01*
X52904571Y-110326714D01*
X52759428Y-110326714D01*
X52686857Y-110363000D01*
X52324000Y-110762142D02*
X52287714Y-110798428D01*
X52324000Y-110834714D01*
X52360285Y-110798428D01*
X52324000Y-110762142D01*
X52324000Y-110834714D01*
X73224571Y-151474714D02*
X73224571Y-150712714D01*
X73224571Y-151075571D02*
X72789142Y-151075571D01*
X72789142Y-151474714D02*
X72789142Y-150712714D01*
X72498857Y-150712714D02*
X72317428Y-151474714D01*
X72172285Y-150930428D01*
X72027142Y-151474714D01*
X71845714Y-150712714D01*
X70539428Y-151474714D02*
X70793428Y-151111857D01*
X70974857Y-151474714D02*
X70974857Y-150712714D01*
X70684571Y-150712714D01*
X70612000Y-150749000D01*
X70575714Y-150785285D01*
X70539428Y-150857857D01*
X70539428Y-150966714D01*
X70575714Y-151039285D01*
X70612000Y-151075571D01*
X70684571Y-151111857D01*
X70974857Y-151111857D01*
X70212857Y-151075571D02*
X69958857Y-151075571D01*
X69850000Y-151474714D02*
X70212857Y-151474714D01*
X70212857Y-150712714D01*
X69850000Y-150712714D01*
X69632285Y-150712714D02*
X69378285Y-151474714D01*
X69124285Y-150712714D01*
X68870285Y-151402142D02*
X68834000Y-151438428D01*
X68870285Y-151474714D01*
X68906571Y-151438428D01*
X68870285Y-151402142D01*
X68870285Y-151474714D01*
X67527714Y-151474714D02*
X67963142Y-151474714D01*
X67745428Y-151474714D02*
X67745428Y-150712714D01*
X67818000Y-150821571D01*
X67890571Y-150894142D01*
X67963142Y-150930428D01*
X67201142Y-151402142D02*
X67164857Y-151438428D01*
X67201142Y-151474714D01*
X67237428Y-151438428D01*
X67201142Y-151402142D01*
X67201142Y-151474714D01*
X66693142Y-150712714D02*
X66620571Y-150712714D01*
X66548000Y-150749000D01*
X66511714Y-150785285D01*
X66475428Y-150857857D01*
X66439142Y-151003000D01*
X66439142Y-151184428D01*
X66475428Y-151329571D01*
X66511714Y-151402142D01*
X66548000Y-151438428D01*
X66620571Y-151474714D01*
X66693142Y-151474714D01*
X66765714Y-151438428D01*
X66802000Y-151402142D01*
X66838285Y-151329571D01*
X66874571Y-151184428D01*
X66874571Y-151003000D01*
X66838285Y-150857857D01*
X66802000Y-150785285D01*
X66765714Y-150749000D01*
X66693142Y-150712714D01*
D11*
G36*
X63811152Y-120091202D02*
G01*
X63766103Y-120047538D01*
X63452077Y-120359899D01*
X63138050Y-120672260D01*
X63069925Y-120635730D01*
X63026385Y-120615733D01*
X62985527Y-120602464D01*
X62963773Y-120599200D01*
X62937626Y-120596901D01*
X62930480Y-120585056D01*
X62934073Y-120564275D01*
X62947810Y-120528396D01*
X62967580Y-120494425D01*
X62983440Y-120470899D01*
X62984277Y-120461337D01*
X62970465Y-120459501D01*
X62969672Y-120459500D01*
X62932767Y-120467998D01*
X62888468Y-120489617D01*
X62846316Y-120518552D01*
X62815853Y-120548996D01*
X62811357Y-120555854D01*
X62786605Y-120623950D01*
X62783440Y-120701893D01*
X62800141Y-120780157D01*
X62822264Y-120832681D01*
X62852990Y-120888275D01*
X62873145Y-120917959D01*
X62903955Y-120953422D01*
X62943359Y-120991552D01*
X62985872Y-121027868D01*
X63026008Y-121057889D01*
X63058278Y-121077133D01*
X63073741Y-121081800D01*
X63087915Y-121073270D01*
X63115491Y-121050151D01*
X63152254Y-121016156D01*
X63186945Y-120982117D01*
X63286043Y-120882434D01*
X63267318Y-120837618D01*
X63251218Y-120805854D01*
X63235580Y-120785108D01*
X63233154Y-120783260D01*
X63237361Y-120771500D01*
X63260053Y-120742585D01*
X63301108Y-120696648D01*
X63360403Y-120633821D01*
X63437816Y-120554238D01*
X63533223Y-120458032D01*
X63536959Y-120454292D01*
X63856202Y-120134866D01*
X63811152Y-120091202D01*
G37*
X63811152Y-120091202D02*
X63766103Y-120047538D01*
X63452077Y-120359899D01*
X63138050Y-120672260D01*
X63069925Y-120635730D01*
X63026385Y-120615733D01*
X62985527Y-120602464D01*
X62963773Y-120599200D01*
X62937626Y-120596901D01*
X62930480Y-120585056D01*
X62934073Y-120564275D01*
X62947810Y-120528396D01*
X62967580Y-120494425D01*
X62983440Y-120470899D01*
X62984277Y-120461337D01*
X62970465Y-120459501D01*
X62969672Y-120459500D01*
X62932767Y-120467998D01*
X62888468Y-120489617D01*
X62846316Y-120518552D01*
X62815853Y-120548996D01*
X62811357Y-120555854D01*
X62786605Y-120623950D01*
X62783440Y-120701893D01*
X62800141Y-120780157D01*
X62822264Y-120832681D01*
X62852990Y-120888275D01*
X62873145Y-120917959D01*
X62903955Y-120953422D01*
X62943359Y-120991552D01*
X62985872Y-121027868D01*
X63026008Y-121057889D01*
X63058278Y-121077133D01*
X63073741Y-121081800D01*
X63087915Y-121073270D01*
X63115491Y-121050151D01*
X63152254Y-121016156D01*
X63186945Y-120982117D01*
X63286043Y-120882434D01*
X63267318Y-120837618D01*
X63251218Y-120805854D01*
X63235580Y-120785108D01*
X63233154Y-120783260D01*
X63237361Y-120771500D01*
X63260053Y-120742585D01*
X63301108Y-120696648D01*
X63360403Y-120633821D01*
X63437816Y-120554238D01*
X63533223Y-120458032D01*
X63536959Y-120454292D01*
X63856202Y-120134866D01*
X63811152Y-120091202D01*
G36*
X65350967Y-119494693D02*
G01*
X65317107Y-119403515D01*
X65265339Y-119303506D01*
X65196578Y-119196649D01*
X65111740Y-119084925D01*
X65093200Y-119062500D01*
X64996699Y-118954986D01*
X64895394Y-118856145D01*
X64791698Y-118767493D01*
X64688024Y-118690546D01*
X64586784Y-118626820D01*
X64490391Y-118577832D01*
X64401257Y-118545098D01*
X64321794Y-118530133D01*
X64254415Y-118534455D01*
X64253376Y-118534707D01*
X64236925Y-118545371D01*
X64205148Y-118571863D01*
X64160451Y-118611822D01*
X64105240Y-118662888D01*
X64041918Y-118722702D01*
X63972893Y-118788904D01*
X63900570Y-118859133D01*
X63827353Y-118931030D01*
X63755649Y-119002235D01*
X63687863Y-119070389D01*
X63626400Y-119133130D01*
X63573665Y-119188100D01*
X63532065Y-119232939D01*
X63504004Y-119265287D01*
X63492727Y-119280945D01*
X63480908Y-119316330D01*
X63474822Y-119360003D01*
X63474600Y-119368757D01*
X63474368Y-119380277D01*
X63472765Y-119391468D01*
X63468434Y-119403840D01*
X63460017Y-119418902D01*
X63446156Y-119438164D01*
X63425493Y-119463134D01*
X63396671Y-119495321D01*
X63358332Y-119536235D01*
X63309117Y-119587385D01*
X63247670Y-119650280D01*
X63172631Y-119726429D01*
X63082644Y-119817342D01*
X62976351Y-119924527D01*
X62957075Y-119943957D01*
X62847767Y-120054098D01*
X62754797Y-120147591D01*
X62676638Y-120225841D01*
X62611763Y-120290253D01*
X62558643Y-120342233D01*
X62515752Y-120383187D01*
X62481562Y-120414519D01*
X62454544Y-120437637D01*
X62433172Y-120453944D01*
X62415918Y-120464848D01*
X62401254Y-120471753D01*
X62387653Y-120476065D01*
X62375891Y-120478720D01*
X62327827Y-120492482D01*
X62282018Y-120511670D01*
X62267941Y-120519511D01*
X62248255Y-120535164D01*
X62213280Y-120566502D01*
X62165550Y-120611114D01*
X62107597Y-120666586D01*
X62041955Y-120730506D01*
X61971155Y-120800460D01*
X61932681Y-120838883D01*
X61641711Y-121130546D01*
X61637578Y-121198248D01*
X61638445Y-121248946D01*
X61645406Y-121298982D01*
X61650153Y-121317114D01*
X61692847Y-121419200D01*
X61755230Y-121528593D01*
X61834029Y-121641748D01*
X61925969Y-121755120D01*
X62027774Y-121865163D01*
X62136171Y-121968332D01*
X62247885Y-122061083D01*
X62359640Y-122139868D01*
X62465547Y-122199870D01*
X62526248Y-122225717D01*
X62526248Y-121970800D01*
X62502380Y-121963206D01*
X62467496Y-121943432D01*
X62434341Y-121919705D01*
X62408997Y-121899605D01*
X62389343Y-121881946D01*
X62376542Y-121864762D01*
X62371760Y-121846087D01*
X62376158Y-121823957D01*
X62390903Y-121796405D01*
X62417156Y-121761465D01*
X62456082Y-121717173D01*
X62508845Y-121661562D01*
X62576609Y-121592668D01*
X62660538Y-121508524D01*
X62702879Y-121466171D01*
X63036057Y-121132814D01*
X63004504Y-121111071D01*
X62942447Y-121061239D01*
X62874418Y-120994811D01*
X62805747Y-120917934D01*
X62741762Y-120836761D01*
X62687792Y-120757440D01*
X62666615Y-120721108D01*
X62632728Y-120658866D01*
X63117186Y-120176275D01*
X63601643Y-119693684D01*
X63686821Y-119806717D01*
X63719626Y-119847877D01*
X63761135Y-119896449D01*
X63808061Y-119948979D01*
X63857118Y-120002012D01*
X63905020Y-120052096D01*
X63948480Y-120095776D01*
X63984211Y-120129599D01*
X64008926Y-120150111D01*
X64017960Y-120154700D01*
X64028887Y-120146042D01*
X64055483Y-120121501D01*
X64095531Y-120083227D01*
X64146812Y-120033369D01*
X64207108Y-119974077D01*
X64274199Y-119907501D01*
X64311362Y-119870390D01*
X64595461Y-119586080D01*
X64540869Y-119537015D01*
X64468791Y-119464251D01*
X64400144Y-119380214D01*
X64338993Y-119290979D01*
X64289401Y-119202621D01*
X64255432Y-119121215D01*
X64249574Y-119101617D01*
X64241466Y-119065698D01*
X64242964Y-119043688D01*
X64255445Y-119025464D01*
X64260663Y-119020093D01*
X64280328Y-119003289D01*
X64290665Y-118999706D01*
X64373831Y-119108611D01*
X64468811Y-119216994D01*
X64571977Y-119321702D01*
X64679703Y-119419582D01*
X64788359Y-119507482D01*
X64894319Y-119582247D01*
X64993953Y-119640727D01*
X65065779Y-119673326D01*
X65139307Y-119701411D01*
X65104677Y-119737556D01*
X65076915Y-119761097D01*
X65046142Y-119771614D01*
X65009401Y-119773700D01*
X64962190Y-119768915D01*
X64907477Y-119756667D01*
X64876851Y-119746798D01*
X64804948Y-119719896D01*
X63679232Y-120845348D01*
X63495415Y-121028962D01*
X63328982Y-121194869D01*
X63179516Y-121343478D01*
X63046597Y-121475197D01*
X62929807Y-121590435D01*
X62828726Y-121689601D01*
X62742936Y-121773104D01*
X62672018Y-121841353D01*
X62615554Y-121894756D01*
X62573124Y-121933722D01*
X62544309Y-121958661D01*
X62528691Y-121969980D01*
X62526248Y-121970800D01*
X62526248Y-122225717D01*
X62564110Y-122241840D01*
X62648068Y-122264229D01*
X62716909Y-122266919D01*
X62740107Y-122262451D01*
X62757922Y-122253833D01*
X62784212Y-122234828D01*
X62820493Y-122204050D01*
X62868282Y-122160107D01*
X62929094Y-122101613D01*
X63004446Y-122027179D01*
X63082648Y-121948738D01*
X63165765Y-121864673D01*
X63232661Y-121796253D01*
X63285232Y-121741321D01*
X63325375Y-121697720D01*
X63354986Y-121663292D01*
X63375960Y-121635881D01*
X63390195Y-121613327D01*
X63399586Y-121593475D01*
X63402899Y-121584363D01*
X63415071Y-121543026D01*
X63422606Y-121508024D01*
X63423800Y-121495819D01*
X63432988Y-121480235D01*
X63460520Y-121447183D01*
X63506348Y-121396714D01*
X63570422Y-121328879D01*
X63652695Y-121243729D01*
X63753119Y-121141314D01*
X63871646Y-121021685D01*
X63947469Y-120945632D01*
X64471138Y-120421400D01*
X64525950Y-120421400D01*
X64569426Y-120417102D01*
X64608196Y-120406451D01*
X64615056Y-120403274D01*
X64635260Y-120388260D01*
X64669912Y-120357713D01*
X64716651Y-120314038D01*
X64773117Y-120259640D01*
X64836952Y-120196925D01*
X64905795Y-120128298D01*
X64977286Y-120056164D01*
X65049065Y-119982930D01*
X65118772Y-119911000D01*
X65184049Y-119842780D01*
X65242533Y-119780676D01*
X65291867Y-119727092D01*
X65329690Y-119684434D01*
X65353641Y-119655109D01*
X65361294Y-119642625D01*
X65366001Y-119575057D01*
X65350967Y-119494693D01*
G37*
X65350967Y-119494693D02*
X65317107Y-119403515D01*
X65265339Y-119303506D01*
X65196578Y-119196649D01*
X65111740Y-119084925D01*
X65093200Y-119062500D01*
X64996699Y-118954986D01*
X64895394Y-118856145D01*
X64791698Y-118767493D01*
X64688024Y-118690546D01*
X64586784Y-118626820D01*
X64490391Y-118577832D01*
X64401257Y-118545098D01*
X64321794Y-118530133D01*
X64254415Y-118534455D01*
X64253376Y-118534707D01*
X64236925Y-118545371D01*
X64205148Y-118571863D01*
X64160451Y-118611822D01*
X64105240Y-118662888D01*
X64041918Y-118722702D01*
X63972893Y-118788904D01*
X63900570Y-118859133D01*
X63827353Y-118931030D01*
X63755649Y-119002235D01*
X63687863Y-119070389D01*
X63626400Y-119133130D01*
X63573665Y-119188100D01*
X63532065Y-119232939D01*
X63504004Y-119265287D01*
X63492727Y-119280945D01*
X63480908Y-119316330D01*
X63474822Y-119360003D01*
X63474600Y-119368757D01*
X63474368Y-119380277D01*
X63472765Y-119391468D01*
X63468434Y-119403840D01*
X63460017Y-119418902D01*
X63446156Y-119438164D01*
X63425493Y-119463134D01*
X63396671Y-119495321D01*
X63358332Y-119536235D01*
X63309117Y-119587385D01*
X63247670Y-119650280D01*
X63172631Y-119726429D01*
X63082644Y-119817342D01*
X62976351Y-119924527D01*
X62957075Y-119943957D01*
X62847767Y-120054098D01*
X62754797Y-120147591D01*
X62676638Y-120225841D01*
X62611763Y-120290253D01*
X62558643Y-120342233D01*
X62515752Y-120383187D01*
X62481562Y-120414519D01*
X62454544Y-120437637D01*
X62433172Y-120453944D01*
X62415918Y-120464848D01*
X62401254Y-120471753D01*
X62387653Y-120476065D01*
X62375891Y-120478720D01*
X62327827Y-120492482D01*
X62282018Y-120511670D01*
X62267941Y-120519511D01*
X62248255Y-120535164D01*
X62213280Y-120566502D01*
X62165550Y-120611114D01*
X62107597Y-120666586D01*
X62041955Y-120730506D01*
X61971155Y-120800460D01*
X61932681Y-120838883D01*
X61641711Y-121130546D01*
X61637578Y-121198248D01*
X61638445Y-121248946D01*
X61645406Y-121298982D01*
X61650153Y-121317114D01*
X61692847Y-121419200D01*
X61755230Y-121528593D01*
X61834029Y-121641748D01*
X61925969Y-121755120D01*
X62027774Y-121865163D01*
X62136171Y-121968332D01*
X62247885Y-122061083D01*
X62359640Y-122139868D01*
X62465547Y-122199870D01*
X62526248Y-122225717D01*
X62526248Y-121970800D01*
X62502380Y-121963206D01*
X62467496Y-121943432D01*
X62434341Y-121919705D01*
X62408997Y-121899605D01*
X62389343Y-121881946D01*
X62376542Y-121864762D01*
X62371760Y-121846087D01*
X62376158Y-121823957D01*
X62390903Y-121796405D01*
X62417156Y-121761465D01*
X62456082Y-121717173D01*
X62508845Y-121661562D01*
X62576609Y-121592668D01*
X62660538Y-121508524D01*
X62702879Y-121466171D01*
X63036057Y-121132814D01*
X63004504Y-121111071D01*
X62942447Y-121061239D01*
X62874418Y-120994811D01*
X62805747Y-120917934D01*
X62741762Y-120836761D01*
X62687792Y-120757440D01*
X62666615Y-120721108D01*
X62632728Y-120658866D01*
X63117186Y-120176275D01*
X63601643Y-119693684D01*
X63686821Y-119806717D01*
X63719626Y-119847877D01*
X63761135Y-119896449D01*
X63808061Y-119948979D01*
X63857118Y-120002012D01*
X63905020Y-120052096D01*
X63948480Y-120095776D01*
X63984211Y-120129599D01*
X64008926Y-120150111D01*
X64017960Y-120154700D01*
X64028887Y-120146042D01*
X64055483Y-120121501D01*
X64095531Y-120083227D01*
X64146812Y-120033369D01*
X64207108Y-119974077D01*
X64274199Y-119907501D01*
X64311362Y-119870390D01*
X64595461Y-119586080D01*
X64540869Y-119537015D01*
X64468791Y-119464251D01*
X64400144Y-119380214D01*
X64338993Y-119290979D01*
X64289401Y-119202621D01*
X64255432Y-119121215D01*
X64249574Y-119101617D01*
X64241466Y-119065698D01*
X64242964Y-119043688D01*
X64255445Y-119025464D01*
X64260663Y-119020093D01*
X64280328Y-119003289D01*
X64290665Y-118999706D01*
X64373831Y-119108611D01*
X64468811Y-119216994D01*
X64571977Y-119321702D01*
X64679703Y-119419582D01*
X64788359Y-119507482D01*
X64894319Y-119582247D01*
X64993953Y-119640727D01*
X65065779Y-119673326D01*
X65139307Y-119701411D01*
X65104677Y-119737556D01*
X65076915Y-119761097D01*
X65046142Y-119771614D01*
X65009401Y-119773700D01*
X64962190Y-119768915D01*
X64907477Y-119756667D01*
X64876851Y-119746798D01*
X64804948Y-119719896D01*
X63679232Y-120845348D01*
X63495415Y-121028962D01*
X63328982Y-121194869D01*
X63179516Y-121343478D01*
X63046597Y-121475197D01*
X62929807Y-121590435D01*
X62828726Y-121689601D01*
X62742936Y-121773104D01*
X62672018Y-121841353D01*
X62615554Y-121894756D01*
X62573124Y-121933722D01*
X62544309Y-121958661D01*
X62528691Y-121969980D01*
X62526248Y-121970800D01*
X62526248Y-122225717D01*
X62564110Y-122241840D01*
X62648068Y-122264229D01*
X62716909Y-122266919D01*
X62740107Y-122262451D01*
X62757922Y-122253833D01*
X62784212Y-122234828D01*
X62820493Y-122204050D01*
X62868282Y-122160107D01*
X62929094Y-122101613D01*
X63004446Y-122027179D01*
X63082648Y-121948738D01*
X63165765Y-121864673D01*
X63232661Y-121796253D01*
X63285232Y-121741321D01*
X63325375Y-121697720D01*
X63354986Y-121663292D01*
X63375960Y-121635881D01*
X63390195Y-121613327D01*
X63399586Y-121593475D01*
X63402899Y-121584363D01*
X63415071Y-121543026D01*
X63422606Y-121508024D01*
X63423800Y-121495819D01*
X63432988Y-121480235D01*
X63460520Y-121447183D01*
X63506348Y-121396714D01*
X63570422Y-121328879D01*
X63652695Y-121243729D01*
X63753119Y-121141314D01*
X63871646Y-121021685D01*
X63947469Y-120945632D01*
X64471138Y-120421400D01*
X64525950Y-120421400D01*
X64569426Y-120417102D01*
X64608196Y-120406451D01*
X64615056Y-120403274D01*
X64635260Y-120388260D01*
X64669912Y-120357713D01*
X64716651Y-120314038D01*
X64773117Y-120259640D01*
X64836952Y-120196925D01*
X64905795Y-120128298D01*
X64977286Y-120056164D01*
X65049065Y-119982930D01*
X65118772Y-119911000D01*
X65184049Y-119842780D01*
X65242533Y-119780676D01*
X65291867Y-119727092D01*
X65329690Y-119684434D01*
X65353641Y-119655109D01*
X65361294Y-119642625D01*
X65366001Y-119575057D01*
X65350967Y-119494693D01*
G36*
X65108996Y-143596454D02*
G01*
X64981667Y-143671547D01*
X64817299Y-143859315D01*
X64766079Y-144093567D01*
X64831496Y-144312737D01*
X64939333Y-144418649D01*
X65059168Y-144550996D01*
X65106049Y-144778781D01*
X65108667Y-144880808D01*
X65108667Y-145237216D01*
X64621833Y-145262608D01*
X64135000Y-145288000D01*
X64108380Y-145710121D01*
X64043270Y-146077962D01*
X63917880Y-146284919D01*
X63783753Y-146500710D01*
X63772071Y-146740060D01*
X63866453Y-146952172D01*
X64050522Y-147086253D01*
X64183381Y-147108333D01*
X64375167Y-147043320D01*
X64560260Y-146888528D01*
X64674146Y-146704327D01*
X64685333Y-146638624D01*
X64627181Y-146494741D01*
X64485964Y-146323032D01*
X64473667Y-146311415D01*
X64318962Y-146108444D01*
X64263806Y-145844989D01*
X64262000Y-145765124D01*
X64262000Y-145415000D01*
X66124667Y-145415000D01*
X66124667Y-145765124D01*
X66088638Y-146054416D01*
X65960271Y-146264620D01*
X65913000Y-146311415D01*
X65767645Y-146482128D01*
X65701689Y-146630681D01*
X65701334Y-146638624D01*
X65770809Y-146818090D01*
X65936227Y-146991294D01*
X66133072Y-147097864D01*
X66203286Y-147108333D01*
X66431519Y-147039067D01*
X66576193Y-146865102D01*
X66620899Y-146637187D01*
X66549229Y-146406072D01*
X66463333Y-146304000D01*
X66335834Y-146106761D01*
X66294096Y-145802453D01*
X66294000Y-145782878D01*
X66294000Y-145415000D01*
X68156667Y-145415000D01*
X68156667Y-145762648D01*
X68126910Y-146031858D01*
X68017368Y-146212954D01*
X67945000Y-146276793D01*
X67772740Y-146495679D01*
X67749164Y-146737384D01*
X67877831Y-146958607D01*
X67888167Y-146968211D01*
X68130219Y-147094614D01*
X68375317Y-147065153D01*
X68524545Y-146953500D01*
X68651682Y-146711302D01*
X68615101Y-146467605D01*
X68453000Y-146276793D01*
X68321340Y-146142429D01*
X68258242Y-145969975D01*
X68241365Y-145696222D01*
X68241333Y-145677981D01*
X68241333Y-145245667D01*
X67310000Y-145245667D01*
X67310000Y-144883483D01*
X67346782Y-144580487D01*
X67467204Y-144387069D01*
X67479333Y-144376312D01*
X67627238Y-144156586D01*
X67626337Y-143914863D01*
X67480015Y-143703386D01*
X67433532Y-143669275D01*
X67179677Y-143586679D01*
X66947189Y-143653002D01*
X66782215Y-143849653D01*
X66749182Y-143944964D01*
X66737687Y-144134605D01*
X66837691Y-144294400D01*
X66916180Y-144367115D01*
X67077506Y-144556956D01*
X67137321Y-144796755D01*
X67140667Y-144902939D01*
X67140667Y-145245667D01*
X65278000Y-145245667D01*
X65278000Y-144885033D01*
X65304387Y-144615217D01*
X65395864Y-144457307D01*
X65447333Y-144418649D01*
X65591095Y-144242768D01*
X65615935Y-144011451D01*
X65525340Y-143786262D01*
X65405000Y-143671547D01*
X65239291Y-143581965D01*
X65108996Y-143596454D01*
G37*
X65108996Y-143596454D02*
X64981667Y-143671547D01*
X64817299Y-143859315D01*
X64766079Y-144093567D01*
X64831496Y-144312737D01*
X64939333Y-144418649D01*
X65059168Y-144550996D01*
X65106049Y-144778781D01*
X65108667Y-144880808D01*
X65108667Y-145237216D01*
X64621833Y-145262608D01*
X64135000Y-145288000D01*
X64108380Y-145710121D01*
X64043270Y-146077962D01*
X63917880Y-146284919D01*
X63783753Y-146500710D01*
X63772071Y-146740060D01*
X63866453Y-146952172D01*
X64050522Y-147086253D01*
X64183381Y-147108333D01*
X64375167Y-147043320D01*
X64560260Y-146888528D01*
X64674146Y-146704327D01*
X64685333Y-146638624D01*
X64627181Y-146494741D01*
X64485964Y-146323032D01*
X64473667Y-146311415D01*
X64318962Y-146108444D01*
X64263806Y-145844989D01*
X64262000Y-145765124D01*
X64262000Y-145415000D01*
X66124667Y-145415000D01*
X66124667Y-145765124D01*
X66088638Y-146054416D01*
X65960271Y-146264620D01*
X65913000Y-146311415D01*
X65767645Y-146482128D01*
X65701689Y-146630681D01*
X65701334Y-146638624D01*
X65770809Y-146818090D01*
X65936227Y-146991294D01*
X66133072Y-147097864D01*
X66203286Y-147108333D01*
X66431519Y-147039067D01*
X66576193Y-146865102D01*
X66620899Y-146637187D01*
X66549229Y-146406072D01*
X66463333Y-146304000D01*
X66335834Y-146106761D01*
X66294096Y-145802453D01*
X66294000Y-145782878D01*
X66294000Y-145415000D01*
X68156667Y-145415000D01*
X68156667Y-145762648D01*
X68126910Y-146031858D01*
X68017368Y-146212954D01*
X67945000Y-146276793D01*
X67772740Y-146495679D01*
X67749164Y-146737384D01*
X67877831Y-146958607D01*
X67888167Y-146968211D01*
X68130219Y-147094614D01*
X68375317Y-147065153D01*
X68524545Y-146953500D01*
X68651682Y-146711302D01*
X68615101Y-146467605D01*
X68453000Y-146276793D01*
X68321340Y-146142429D01*
X68258242Y-145969975D01*
X68241365Y-145696222D01*
X68241333Y-145677981D01*
X68241333Y-145245667D01*
X67310000Y-145245667D01*
X67310000Y-144883483D01*
X67346782Y-144580487D01*
X67467204Y-144387069D01*
X67479333Y-144376312D01*
X67627238Y-144156586D01*
X67626337Y-143914863D01*
X67480015Y-143703386D01*
X67433532Y-143669275D01*
X67179677Y-143586679D01*
X66947189Y-143653002D01*
X66782215Y-143849653D01*
X66749182Y-143944964D01*
X66737687Y-144134605D01*
X66837691Y-144294400D01*
X66916180Y-144367115D01*
X67077506Y-144556956D01*
X67137321Y-144796755D01*
X67140667Y-144902939D01*
X67140667Y-145245667D01*
X65278000Y-145245667D01*
X65278000Y-144885033D01*
X65304387Y-144615217D01*
X65395864Y-144457307D01*
X65447333Y-144418649D01*
X65591095Y-144242768D01*
X65615935Y-144011451D01*
X65525340Y-143786262D01*
X65405000Y-143671547D01*
X65239291Y-143581965D01*
X65108996Y-143596454D01*
G36*
X62287530Y-145448862D02*
G01*
X61979313Y-145550545D01*
X61825648Y-145720196D01*
X61806667Y-145829682D01*
X61838612Y-146034558D01*
X61898711Y-146150510D01*
X61944966Y-146252710D01*
X61898711Y-146299440D01*
X61825639Y-146428628D01*
X61811363Y-146634763D01*
X61854633Y-146836461D01*
X61908267Y-146922067D01*
X62047840Y-146977479D01*
X62310217Y-147013479D01*
X62585600Y-147023667D01*
X63161333Y-147023667D01*
X63161333Y-146558000D01*
X62822667Y-146558000D01*
X62806772Y-146701971D01*
X62726363Y-146757825D01*
X62532357Y-146755803D01*
X62505167Y-146753611D01*
X62289111Y-146716296D01*
X62198987Y-146635425D01*
X62187667Y-146558000D01*
X62224103Y-146439754D01*
X62361751Y-146380296D01*
X62505167Y-146362389D01*
X62713057Y-146356292D01*
X62802501Y-146405083D01*
X62822584Y-146539005D01*
X62822667Y-146558000D01*
X63161333Y-146558000D01*
X63161333Y-145923000D01*
X62822667Y-145923000D01*
X62794267Y-146033784D01*
X62679478Y-146082746D01*
X62484000Y-146092333D01*
X62262432Y-146078133D01*
X62164508Y-146020739D01*
X62145333Y-145923000D01*
X62173734Y-145812216D01*
X62288523Y-145763254D01*
X62484000Y-145753667D01*
X62705568Y-145767867D01*
X62803493Y-145825261D01*
X62822667Y-145923000D01*
X63161333Y-145923000D01*
X63161333Y-145415000D01*
X62750634Y-145415000D01*
X62287530Y-145448862D01*
G37*
X62287530Y-145448862D02*
X61979313Y-145550545D01*
X61825648Y-145720196D01*
X61806667Y-145829682D01*
X61838612Y-146034558D01*
X61898711Y-146150510D01*
X61944966Y-146252710D01*
X61898711Y-146299440D01*
X61825639Y-146428628D01*
X61811363Y-146634763D01*
X61854633Y-146836461D01*
X61908267Y-146922067D01*
X62047840Y-146977479D01*
X62310217Y-147013479D01*
X62585600Y-147023667D01*
X63161333Y-147023667D01*
X63161333Y-146558000D01*
X62822667Y-146558000D01*
X62806772Y-146701971D01*
X62726363Y-146757825D01*
X62532357Y-146755803D01*
X62505167Y-146753611D01*
X62289111Y-146716296D01*
X62198987Y-146635425D01*
X62187667Y-146558000D01*
X62224103Y-146439754D01*
X62361751Y-146380296D01*
X62505167Y-146362389D01*
X62713057Y-146356292D01*
X62802501Y-146405083D01*
X62822584Y-146539005D01*
X62822667Y-146558000D01*
X63161333Y-146558000D01*
X63161333Y-145923000D01*
X62822667Y-145923000D01*
X62794267Y-146033784D01*
X62679478Y-146082746D01*
X62484000Y-146092333D01*
X62262432Y-146078133D01*
X62164508Y-146020739D01*
X62145333Y-145923000D01*
X62173734Y-145812216D01*
X62288523Y-145763254D01*
X62484000Y-145753667D01*
X62705568Y-145767867D01*
X62803493Y-145825261D01*
X62822667Y-145923000D01*
X63161333Y-145923000D01*
X63161333Y-145415000D01*
X62750634Y-145415000D01*
X62287530Y-145448862D01*
G36*
X61268841Y-145452557D02*
G01*
X61229233Y-145586382D01*
X61214634Y-145848200D01*
X61214000Y-145949151D01*
X61190039Y-146350938D01*
X61111158Y-146607339D01*
X60966865Y-146736370D01*
X60746665Y-146756045D01*
X60744158Y-146755763D01*
X60616745Y-146734581D01*
X60539358Y-146682167D01*
X60495613Y-146561316D01*
X60469125Y-146334823D01*
X60452000Y-146092333D01*
X60421166Y-145751632D01*
X60379794Y-145552312D01*
X60320436Y-145466449D01*
X60282667Y-145457333D01*
X60210463Y-145497600D01*
X60164495Y-145637998D01*
X60137050Y-145907921D01*
X60130434Y-146037489D01*
X60132908Y-146466402D01*
X60194949Y-146755498D01*
X60332370Y-146928545D01*
X60560985Y-147009310D01*
X60786571Y-147023667D01*
X61119940Y-146990907D01*
X61327192Y-146897991D01*
X61334953Y-146890619D01*
X61406307Y-146743465D01*
X61453623Y-146499095D01*
X61476715Y-146203215D01*
X61475394Y-145901533D01*
X61449475Y-145639754D01*
X61398768Y-145463587D01*
X61341000Y-145415000D01*
X61268841Y-145452557D01*
G37*
X61268841Y-145452557D02*
X61229233Y-145586382D01*
X61214634Y-145848200D01*
X61214000Y-145949151D01*
X61190039Y-146350938D01*
X61111158Y-146607339D01*
X60966865Y-146736370D01*
X60746665Y-146756045D01*
X60744158Y-146755763D01*
X60616745Y-146734581D01*
X60539358Y-146682167D01*
X60495613Y-146561316D01*
X60469125Y-146334823D01*
X60452000Y-146092333D01*
X60421166Y-145751632D01*
X60379794Y-145552312D01*
X60320436Y-145466449D01*
X60282667Y-145457333D01*
X60210463Y-145497600D01*
X60164495Y-145637998D01*
X60137050Y-145907921D01*
X60130434Y-146037489D01*
X60132908Y-146466402D01*
X60194949Y-146755498D01*
X60332370Y-146928545D01*
X60560985Y-147009310D01*
X60786571Y-147023667D01*
X61119940Y-146990907D01*
X61327192Y-146897991D01*
X61334953Y-146890619D01*
X61406307Y-146743465D01*
X61453623Y-146499095D01*
X61476715Y-146203215D01*
X61475394Y-145901533D01*
X61449475Y-145639754D01*
X61398768Y-145463587D01*
X61341000Y-145415000D01*
X61268841Y-145452557D01*
G36*
X58928000Y-145435421D02*
G01*
X58642724Y-145461947D01*
X58497350Y-145513314D01*
X58462333Y-145584333D01*
X58505886Y-145659883D01*
X58656053Y-145706973D01*
X58942102Y-145734023D01*
X58991500Y-145736540D01*
X59283931Y-145757117D01*
X59444471Y-145792502D01*
X59510555Y-145856172D01*
X59520667Y-145927040D01*
X59496171Y-146027914D01*
X59394818Y-146077254D01*
X59174809Y-146092032D01*
X59113516Y-146092333D01*
X58735669Y-146134145D01*
X58500418Y-146261800D01*
X58402490Y-146478622D01*
X58398833Y-146543175D01*
X58426186Y-146766507D01*
X58526597Y-146910148D01*
X58727599Y-146989791D01*
X59056724Y-147021132D01*
X59241756Y-147023667D01*
X59581696Y-147015612D01*
X59774252Y-146988932D01*
X59840722Y-146939849D01*
X59838533Y-146917833D01*
X59735111Y-146849811D01*
X59497507Y-146801562D01*
X59319150Y-146786479D01*
X59000673Y-146751766D01*
X58827213Y-146685226D01*
X58784335Y-146629767D01*
X58797038Y-146480841D01*
X58964546Y-146385734D01*
X59279933Y-146348094D01*
X59319800Y-146347630D01*
X59630078Y-146302596D01*
X59803247Y-146164348D01*
X59849088Y-145923915D01*
X59844285Y-145866582D01*
X59742899Y-145632084D01*
X59502002Y-145487833D01*
X59119377Y-145432785D01*
X58928000Y-145435421D01*
G37*
X58928000Y-145435421D02*
X58642724Y-145461947D01*
X58497350Y-145513314D01*
X58462333Y-145584333D01*
X58505886Y-145659883D01*
X58656053Y-145706973D01*
X58942102Y-145734023D01*
X58991500Y-145736540D01*
X59283931Y-145757117D01*
X59444471Y-145792502D01*
X59510555Y-145856172D01*
X59520667Y-145927040D01*
X59496171Y-146027914D01*
X59394818Y-146077254D01*
X59174809Y-146092032D01*
X59113516Y-146092333D01*
X58735669Y-146134145D01*
X58500418Y-146261800D01*
X58402490Y-146478622D01*
X58398833Y-146543175D01*
X58426186Y-146766507D01*
X58526597Y-146910148D01*
X58727599Y-146989791D01*
X59056724Y-147021132D01*
X59241756Y-147023667D01*
X59581696Y-147015612D01*
X59774252Y-146988932D01*
X59840722Y-146939849D01*
X59838533Y-146917833D01*
X59735111Y-146849811D01*
X59497507Y-146801562D01*
X59319150Y-146786479D01*
X59000673Y-146751766D01*
X58827213Y-146685226D01*
X58784335Y-146629767D01*
X58797038Y-146480841D01*
X58964546Y-146385734D01*
X59279933Y-146348094D01*
X59319800Y-146347630D01*
X59630078Y-146302596D01*
X59803247Y-146164348D01*
X59849088Y-145923915D01*
X59844285Y-145866582D01*
X59742899Y-145632084D01*
X59502002Y-145487833D01*
X59119377Y-145432785D01*
X58928000Y-145435421D01*
G36*
X61933667Y-144018000D02*
G01*
X61908076Y-144462500D01*
X61907789Y-144720991D01*
X61937212Y-144878458D01*
X61966707Y-144907000D01*
X62023687Y-144831521D01*
X62067222Y-144641767D01*
X62076965Y-144547897D01*
X62118272Y-144295456D01*
X62204043Y-144177184D01*
X62251167Y-144160689D01*
X62343168Y-144170547D01*
X62387359Y-144271213D01*
X62399302Y-144500408D01*
X62399333Y-144519792D01*
X62415443Y-144773160D01*
X62470383Y-144889926D01*
X62526333Y-144907000D01*
X62610041Y-144857138D01*
X62648170Y-144687597D01*
X62653333Y-144526000D01*
X62669954Y-144274878D01*
X62726468Y-144160492D01*
X62780333Y-144145000D01*
X62864041Y-144194862D01*
X62902170Y-144364403D01*
X62907333Y-144526000D01*
X62923954Y-144777122D01*
X62980468Y-144891508D01*
X63034333Y-144907000D01*
X63110657Y-144865463D01*
X63150111Y-144719567D01*
X63161333Y-144437624D01*
X63161333Y-143968248D01*
X61933667Y-144018000D01*
G37*
X61933667Y-144018000D02*
X61908076Y-144462500D01*
X61907789Y-144720991D01*
X61937212Y-144878458D01*
X61966707Y-144907000D01*
X62023687Y-144831521D01*
X62067222Y-144641767D01*
X62076965Y-144547897D01*
X62118272Y-144295456D01*
X62204043Y-144177184D01*
X62251167Y-144160689D01*
X62343168Y-144170547D01*
X62387359Y-144271213D01*
X62399302Y-144500408D01*
X62399333Y-144519792D01*
X62415443Y-144773160D01*
X62470383Y-144889926D01*
X62526333Y-144907000D01*
X62610041Y-144857138D01*
X62648170Y-144687597D01*
X62653333Y-144526000D01*
X62669954Y-144274878D01*
X62726468Y-144160492D01*
X62780333Y-144145000D01*
X62864041Y-144194862D01*
X62902170Y-144364403D01*
X62907333Y-144526000D01*
X62923954Y-144777122D01*
X62980468Y-144891508D01*
X63034333Y-144907000D01*
X63110657Y-144865463D01*
X63150111Y-144719567D01*
X63161333Y-144437624D01*
X63161333Y-143968248D01*
X61933667Y-144018000D01*
G36*
X61433745Y-144017473D02*
G01*
X61394314Y-144164170D01*
X61383333Y-144441333D01*
X61394735Y-144722158D01*
X61434743Y-144866738D01*
X61510333Y-144907000D01*
X61586922Y-144865193D01*
X61626353Y-144718497D01*
X61637333Y-144441333D01*
X61625932Y-144160508D01*
X61585924Y-144015928D01*
X61510333Y-143975667D01*
X61433745Y-144017473D01*
G37*
X61433745Y-144017473D02*
X61394314Y-144164170D01*
X61383333Y-144441333D01*
X61394735Y-144722158D01*
X61434743Y-144866738D01*
X61510333Y-144907000D01*
X61586922Y-144865193D01*
X61626353Y-144718497D01*
X61637333Y-144441333D01*
X61625932Y-144160508D01*
X61585924Y-144015928D01*
X61510333Y-143975667D01*
X61433745Y-144017473D01*
G36*
X60920040Y-143600469D02*
G01*
X60881535Y-143765284D01*
X60875333Y-143948092D01*
X60875333Y-144343850D01*
X60679377Y-144159758D01*
X60489147Y-144011621D01*
X60373007Y-143977010D01*
X60352684Y-144050498D01*
X60444059Y-144218514D01*
X60554515Y-144385418D01*
X60567258Y-144483662D01*
X60483295Y-144582166D01*
X60449824Y-144612636D01*
X60324728Y-144750065D01*
X60282667Y-144835455D01*
X60336125Y-144908550D01*
X60464870Y-144881546D01*
X60621462Y-144771013D01*
X60693525Y-144691963D01*
X60810637Y-144550679D01*
X60862295Y-144537174D01*
X60887483Y-144645937D01*
X60890170Y-144664164D01*
X60954378Y-144827526D01*
X61023500Y-144886257D01*
X61079001Y-144857889D01*
X61112552Y-144714001D01*
X61127633Y-144433238D01*
X61129333Y-144236722D01*
X61123452Y-143887122D01*
X61102099Y-143676593D01*
X61059714Y-143575162D01*
X61002333Y-143552333D01*
X60920040Y-143600469D01*
G37*
X60920040Y-143600469D02*
X60881535Y-143765284D01*
X60875333Y-143948092D01*
X60875333Y-144343850D01*
X60679377Y-144159758D01*
X60489147Y-144011621D01*
X60373007Y-143977010D01*
X60352684Y-144050498D01*
X60444059Y-144218514D01*
X60554515Y-144385418D01*
X60567258Y-144483662D01*
X60483295Y-144582166D01*
X60449824Y-144612636D01*
X60324728Y-144750065D01*
X60282667Y-144835455D01*
X60336125Y-144908550D01*
X60464870Y-144881546D01*
X60621462Y-144771013D01*
X60693525Y-144691963D01*
X60810637Y-144550679D01*
X60862295Y-144537174D01*
X60887483Y-144645937D01*
X60890170Y-144664164D01*
X60954378Y-144827526D01*
X61023500Y-144886257D01*
X61079001Y-144857889D01*
X61112552Y-144714001D01*
X61127633Y-144433238D01*
X61129333Y-144236722D01*
X61123452Y-143887122D01*
X61102099Y-143676593D01*
X61059714Y-143575162D01*
X61002333Y-143552333D01*
X60920040Y-143600469D01*
G36*
X59796538Y-143991722D02*
G01*
X59555231Y-144043673D01*
X59454399Y-144154079D01*
X59451663Y-144166167D01*
X59484563Y-144292202D01*
X59556792Y-144314333D01*
X59673392Y-144270480D01*
X59690000Y-144229667D01*
X59754429Y-144147460D01*
X59774667Y-144145000D01*
X59825160Y-144220674D01*
X59855449Y-144412138D01*
X59859333Y-144526000D01*
X59875954Y-144777122D01*
X59932468Y-144891508D01*
X59986333Y-144907000D01*
X60062558Y-144865564D01*
X60102020Y-144719967D01*
X60113333Y-144438277D01*
X60113333Y-143965445D01*
X59796538Y-143991722D01*
G37*
X59796538Y-143991722D02*
X59555231Y-144043673D01*
X59454399Y-144154079D01*
X59451663Y-144166167D01*
X59484563Y-144292202D01*
X59556792Y-144314333D01*
X59673392Y-144270480D01*
X59690000Y-144229667D01*
X59754429Y-144147460D01*
X59774667Y-144145000D01*
X59825160Y-144220674D01*
X59855449Y-144412138D01*
X59859333Y-144526000D01*
X59875954Y-144777122D01*
X59932468Y-144891508D01*
X59986333Y-144907000D01*
X60062558Y-144865564D01*
X60102020Y-144719967D01*
X60113333Y-144438277D01*
X60113333Y-143965445D01*
X59796538Y-143991722D01*
G36*
X58576313Y-144040681D02*
G01*
X58401884Y-144205672D01*
X58335601Y-144425565D01*
X58397339Y-144655281D01*
X58490167Y-144766878D01*
X58711683Y-144882204D01*
X58959636Y-144894721D01*
X59160328Y-144803059D01*
X59182217Y-144779739D01*
X59265745Y-144596791D01*
X59287833Y-144441333D01*
X59277741Y-144399472D01*
X59070073Y-144399472D01*
X59040025Y-144573752D01*
X59018557Y-144603570D01*
X58889727Y-144721061D01*
X58761625Y-144705917D01*
X58687759Y-144663295D01*
X58602182Y-144531083D01*
X58610257Y-144359107D01*
X58695629Y-144222210D01*
X58791773Y-144187333D01*
X58976317Y-144250467D01*
X59070073Y-144399472D01*
X59277741Y-144399472D01*
X59222289Y-144169473D01*
X59036345Y-144010668D01*
X58839014Y-143975666D01*
X58576313Y-144040681D01*
G37*
X58576313Y-144040681D02*
X58401884Y-144205672D01*
X58335601Y-144425565D01*
X58397339Y-144655281D01*
X58490167Y-144766878D01*
X58711683Y-144882204D01*
X58959636Y-144894721D01*
X59160328Y-144803059D01*
X59182217Y-144779739D01*
X59265745Y-144596791D01*
X59287833Y-144441333D01*
X59277741Y-144399472D01*
X59070073Y-144399472D01*
X59040025Y-144573752D01*
X59018557Y-144603570D01*
X58889727Y-144721061D01*
X58761625Y-144705917D01*
X58687759Y-144663295D01*
X58602182Y-144531083D01*
X58610257Y-144359107D01*
X58695629Y-144222210D01*
X58791773Y-144187333D01*
X58976317Y-144250467D01*
X59070073Y-144399472D01*
X59277741Y-144399472D01*
X59222289Y-144169473D01*
X59036345Y-144010668D01*
X58839014Y-143975666D01*
X58576313Y-144040681D01*
G36*
X61397662Y-143598051D02*
G01*
X61383333Y-143637000D01*
X61451910Y-143712114D01*
X61510333Y-143721667D01*
X61623005Y-143675949D01*
X61637333Y-143637000D01*
X61568757Y-143561885D01*
X61510333Y-143552333D01*
X61397662Y-143598051D01*
G37*
X61397662Y-143598051D02*
X61383333Y-143637000D01*
X61451910Y-143712114D01*
X61510333Y-143721667D01*
X61623005Y-143675949D01*
X61637333Y-143637000D01*
X61568757Y-143561885D01*
X61510333Y-143552333D01*
X61397662Y-143598051D01*
G36*
X66929000Y-122690466D02*
G01*
X66937467Y-122698933D01*
X66945933Y-122690466D01*
X66937467Y-122682000D01*
X66929000Y-122690466D01*
G37*
X66929000Y-122690466D02*
X66937467Y-122698933D01*
X66945933Y-122690466D01*
X66937467Y-122682000D01*
X66929000Y-122690466D01*
G36*
X67360481Y-119883479D02*
G01*
X67363143Y-119896466D01*
X67375162Y-119918747D01*
X67379545Y-119921866D01*
X67385464Y-119908039D01*
X67386200Y-119896466D01*
X67377338Y-119873928D01*
X67369798Y-119871066D01*
X67360481Y-119883479D01*
G37*
X67360481Y-119883479D02*
X67363143Y-119896466D01*
X67375162Y-119918747D01*
X67379545Y-119921866D01*
X67385464Y-119908039D01*
X67386200Y-119896466D01*
X67377338Y-119873928D01*
X67369798Y-119871066D01*
X67360481Y-119883479D01*
G36*
X69051041Y-120742387D02*
G01*
X69062600Y-120749830D01*
X69097462Y-120763395D01*
X69138800Y-120774019D01*
X69189600Y-120784075D01*
X69138800Y-120760134D01*
X69101054Y-120745106D01*
X69068752Y-120736449D01*
X69049533Y-120735199D01*
X69051041Y-120742387D01*
G37*
X69051041Y-120742387D02*
X69062600Y-120749830D01*
X69097462Y-120763395D01*
X69138800Y-120774019D01*
X69189600Y-120784075D01*
X69138800Y-120760134D01*
X69101054Y-120745106D01*
X69068752Y-120736449D01*
X69049533Y-120735199D01*
X69051041Y-120742387D01*
G36*
X67931128Y-119005467D02*
G01*
X67874804Y-119023608D01*
X67789348Y-119067553D01*
X67699944Y-119133647D01*
X67616667Y-119213209D01*
X67549592Y-119297561D01*
X67540751Y-119311386D01*
X67506948Y-119360448D01*
X67474411Y-119398205D01*
X67457259Y-119412086D01*
X67424977Y-119420878D01*
X67370260Y-119427835D01*
X67304537Y-119431540D01*
X67299846Y-119431640D01*
X67203958Y-119435068D01*
X67138198Y-119441556D01*
X67098913Y-119451789D01*
X67082449Y-119466450D01*
X67081400Y-119472531D01*
X67097089Y-119503785D01*
X67139445Y-119528980D01*
X67201405Y-119545068D01*
X67259374Y-119549333D01*
X67320055Y-119552292D01*
X67360054Y-119563788D01*
X67392242Y-119587753D01*
X67395436Y-119590897D01*
X67423718Y-119625515D01*
X67436879Y-119654111D01*
X67437000Y-119656029D01*
X67424512Y-119704526D01*
X67393835Y-119755738D01*
X67355148Y-119793880D01*
X67344016Y-119800184D01*
X67312239Y-119818378D01*
X67304985Y-119840204D01*
X67318079Y-119878630D01*
X67318466Y-119879533D01*
X67329555Y-119902232D01*
X67333409Y-119893298D01*
X67334210Y-119874881D01*
X67347283Y-119842428D01*
X67377456Y-119819711D01*
X67414547Y-119808945D01*
X67448374Y-119812347D01*
X67468758Y-119832133D01*
X67470866Y-119845135D01*
X67461886Y-119868008D01*
X67453933Y-119871066D01*
X67437955Y-119857838D01*
X67437000Y-119851311D01*
X67430346Y-119839769D01*
X67426120Y-119842435D01*
X67426108Y-119862462D01*
X67435316Y-119877504D01*
X67446816Y-119907754D01*
X67444917Y-119943857D01*
X67432686Y-119973324D01*
X67413186Y-119983663D01*
X67409511Y-119982675D01*
X67389981Y-119978944D01*
X67390436Y-119993046D01*
X67411335Y-120029110D01*
X67415362Y-120035298D01*
X67435135Y-120083256D01*
X67439527Y-120127443D01*
X67445201Y-120177379D01*
X67461165Y-120213109D01*
X67481907Y-120260143D01*
X67487800Y-120297661D01*
X67502265Y-120345478D01*
X67538600Y-120381744D01*
X67572091Y-120413319D01*
X67588929Y-120442539D01*
X67589400Y-120446598D01*
X67575111Y-120486175D01*
X67541060Y-120511445D01*
X67523215Y-120514533D01*
X67498875Y-120525851D01*
X67460075Y-120555458D01*
X67417262Y-120594967D01*
X67343279Y-120667955D01*
X67284713Y-120722349D01*
X67233782Y-120764227D01*
X67182703Y-120799667D01*
X67123692Y-120834746D01*
X67077971Y-120859920D01*
X66995091Y-120908096D01*
X66938083Y-120949750D01*
X66900854Y-120989556D01*
X66892348Y-121002299D01*
X66857103Y-121053013D01*
X66811917Y-121109387D01*
X66791317Y-121132600D01*
X66736747Y-121193618D01*
X66688176Y-121251798D01*
X66650376Y-121301048D01*
X66628114Y-121335278D01*
X66624200Y-121346006D01*
X66613837Y-121365878D01*
X66587466Y-121400729D01*
X66569167Y-121422209D01*
X66526567Y-121478423D01*
X66474804Y-121559510D01*
X66417463Y-121658969D01*
X66358129Y-121770299D01*
X66300389Y-121886998D01*
X66247827Y-122002564D01*
X66243282Y-122013133D01*
X66220830Y-122057605D01*
X66185201Y-122119442D01*
X66142533Y-122188191D01*
X66122254Y-122219226D01*
X66071114Y-122301228D01*
X66038137Y-122368321D01*
X66018683Y-122430637D01*
X66013682Y-122456293D01*
X66004542Y-122577924D01*
X66016117Y-122696446D01*
X66047085Y-122799902D01*
X66053127Y-122812984D01*
X66082943Y-122856915D01*
X66133021Y-122913425D01*
X66195960Y-122975553D01*
X66264360Y-123036338D01*
X66330820Y-123088820D01*
X66383050Y-123123309D01*
X66470697Y-123174860D01*
X66527749Y-123212235D01*
X66554329Y-123235517D01*
X66556467Y-123240637D01*
X66568213Y-123254435D01*
X66604976Y-123264705D01*
X66669045Y-123271718D01*
X66762706Y-123275742D01*
X66864280Y-123277006D01*
X66963464Y-123278334D01*
X67032624Y-123282580D01*
X67075578Y-123291321D01*
X67096141Y-123306131D01*
X67098131Y-123328586D01*
X67085365Y-123360260D01*
X67081921Y-123366825D01*
X67069575Y-123407048D01*
X67081101Y-123443441D01*
X67097148Y-123479605D01*
X67118030Y-123534629D01*
X67134452Y-123582295D01*
X67167711Y-123683608D01*
X67108579Y-123749060D01*
X67055503Y-123824691D01*
X67035984Y-123897257D01*
X67049908Y-123967353D01*
X67062699Y-123991474D01*
X67091259Y-124067787D01*
X67096924Y-124164198D01*
X67082241Y-124263418D01*
X67075517Y-124318136D01*
X67087708Y-124366059D01*
X67099579Y-124390167D01*
X67124625Y-124463795D01*
X67132200Y-124540726D01*
X67137238Y-124606247D01*
X67149989Y-124668857D01*
X67157600Y-124691212D01*
X67173782Y-124747991D01*
X67182523Y-124813796D01*
X67183023Y-124830368D01*
X67186092Y-124884928D01*
X67194199Y-124958545D01*
X67205729Y-125037073D01*
X67208400Y-125052667D01*
X67220417Y-125130036D01*
X67229360Y-125205033D01*
X67233623Y-125263725D01*
X67233773Y-125272800D01*
X67239560Y-125331584D01*
X67255975Y-125416233D01*
X67281632Y-125520947D01*
X67315147Y-125639927D01*
X67342990Y-125730000D01*
X67359569Y-125790818D01*
X67375849Y-125864884D01*
X67384095Y-125910612D01*
X67397373Y-125975629D01*
X67414202Y-126034368D01*
X67426377Y-126064496D01*
X67440725Y-126108141D01*
X67451604Y-126170355D01*
X67455868Y-126222551D01*
X67463426Y-126302104D01*
X67478523Y-126387584D01*
X67489910Y-126432733D01*
X67508588Y-126504072D01*
X67527384Y-126589256D01*
X67540757Y-126661333D01*
X67555534Y-126734852D01*
X67577795Y-126825551D01*
X67603787Y-126918660D01*
X67616806Y-126960862D01*
X67641228Y-127039875D01*
X67662504Y-127113941D01*
X67677764Y-127172793D01*
X67683081Y-127197929D01*
X67696474Y-127257123D01*
X67715714Y-127321627D01*
X67720114Y-127334182D01*
X67738267Y-127428260D01*
X67735163Y-127474974D01*
X67731978Y-127530245D01*
X67746687Y-127573828D01*
X67760123Y-127594619D01*
X67775165Y-127619344D01*
X67785651Y-127648434D01*
X67792577Y-127688621D01*
X67796936Y-127746636D01*
X67799722Y-127829211D01*
X67800580Y-127868693D01*
X67802923Y-127954089D01*
X67806162Y-128028493D01*
X67809897Y-128084685D01*
X67813730Y-128115442D01*
X67814354Y-128117600D01*
X67822117Y-128149923D01*
X67829966Y-128199137D01*
X67831849Y-128214381D01*
X67846189Y-128272493D01*
X67871122Y-128324604D01*
X67876752Y-128332459D01*
X67902930Y-128379569D01*
X67903772Y-128430755D01*
X67903075Y-128434645D01*
X67892665Y-128490133D01*
X68677083Y-128490133D01*
X68665365Y-128452033D01*
X68654535Y-128411517D01*
X68641747Y-128356690D01*
X68637951Y-128339024D01*
X68621898Y-128285391D01*
X68600741Y-128241902D01*
X68593724Y-128232587D01*
X68580269Y-128209509D01*
X68570023Y-128170567D01*
X68562066Y-128110254D01*
X68555473Y-128023065D01*
X68553809Y-127994230D01*
X68547561Y-127908071D01*
X68539118Y-127829081D01*
X68529617Y-127766347D01*
X68520781Y-127730426D01*
X68510627Y-127689893D01*
X68506692Y-127633930D01*
X68508746Y-127555669D01*
X68512895Y-127493360D01*
X68521303Y-127340346D01*
X68525482Y-127160369D01*
X68525344Y-126960080D01*
X68522254Y-126796800D01*
X68521161Y-126735910D01*
X68520325Y-126650198D01*
X68519800Y-126548707D01*
X68519638Y-126440482D01*
X68519742Y-126375115D01*
X68519213Y-126277811D01*
X68517219Y-126191873D01*
X68514019Y-126123201D01*
X68509872Y-126077696D01*
X68505981Y-126061848D01*
X68495548Y-126035231D01*
X68485110Y-125987904D01*
X68480366Y-125956597D01*
X68476049Y-125898677D01*
X68482826Y-125860370D01*
X68500875Y-125831007D01*
X68532469Y-125804552D01*
X68564128Y-125806621D01*
X68598914Y-125838644D01*
X68635158Y-125893796D01*
X68674447Y-125953995D01*
X68723315Y-126018979D01*
X68750177Y-126050913D01*
X68792640Y-126100389D01*
X68829625Y-126146524D01*
X68846905Y-126170266D01*
X68870938Y-126205374D01*
X68906989Y-126256877D01*
X68947293Y-126313685D01*
X68947661Y-126314200D01*
X68981834Y-126363123D01*
X69003204Y-126400609D01*
X69014863Y-126437383D01*
X69019900Y-126484171D01*
X69021406Y-126551698D01*
X69021573Y-126570743D01*
X69022880Y-126725687D01*
X69092268Y-126804516D01*
X69139952Y-126865263D01*
X69173988Y-126927012D01*
X69196409Y-126997104D01*
X69209248Y-127082883D01*
X69214539Y-127191691D01*
X69215000Y-127247723D01*
X69217927Y-127368808D01*
X69226290Y-127471868D01*
X69239460Y-127549353D01*
X69240465Y-127553314D01*
X69250910Y-127610298D01*
X69259860Y-127695992D01*
X69267414Y-127811806D01*
X69273672Y-127959153D01*
X69277041Y-128070607D01*
X69288153Y-128490133D01*
X69947279Y-128490133D01*
X69941932Y-127986367D01*
X69941005Y-127856983D01*
X69940994Y-127736869D01*
X69941831Y-127630688D01*
X69943451Y-127543100D01*
X69945788Y-127478769D01*
X69948776Y-127442356D01*
X69949703Y-127437857D01*
X69950686Y-127380419D01*
X69934453Y-127338254D01*
X69914538Y-127272772D01*
X69918217Y-127222130D01*
X69924383Y-127176311D01*
X69929185Y-127112859D01*
X69932485Y-127039739D01*
X69934147Y-126964916D01*
X69934036Y-126896354D01*
X69932013Y-126842021D01*
X69927944Y-126809879D01*
X69925370Y-126804753D01*
X69919850Y-126784998D01*
X69918840Y-126742234D01*
X69921143Y-126703276D01*
X69923945Y-126644468D01*
X69917042Y-126604137D01*
X69896946Y-126567467D01*
X69885506Y-126551911D01*
X69857371Y-126503853D01*
X69842322Y-126456385D01*
X69841533Y-126446312D01*
X69833424Y-126400136D01*
X69813358Y-126346477D01*
X69807666Y-126335177D01*
X69785459Y-126279362D01*
X69774161Y-126222832D01*
X69773800Y-126213661D01*
X69769317Y-126171461D01*
X69758374Y-126146029D01*
X69756866Y-126144866D01*
X69749625Y-126124300D01*
X69743987Y-126077052D01*
X69740607Y-126010295D01*
X69739933Y-125959912D01*
X69738268Y-125874920D01*
X69733802Y-125792037D01*
X69727330Y-125723873D01*
X69723452Y-125698520D01*
X69715325Y-125639361D01*
X69708710Y-125561320D01*
X69704820Y-125479381D01*
X69704467Y-125463375D01*
X69701393Y-125390522D01*
X69695401Y-125326245D01*
X69687609Y-125281413D01*
X69684858Y-125272800D01*
X69674692Y-125232113D01*
X69667052Y-125173370D01*
X69664537Y-125133179D01*
X69657487Y-125062849D01*
X69640141Y-125015686D01*
X69626747Y-124997713D01*
X69601459Y-124953980D01*
X69580519Y-124890143D01*
X69566543Y-124819152D01*
X69562148Y-124753957D01*
X69568716Y-124710489D01*
X69575912Y-124656276D01*
X69567475Y-124588402D01*
X69559748Y-124543491D01*
X69560750Y-124506885D01*
X69572812Y-124466643D01*
X69598266Y-124410823D01*
X69604731Y-124397630D01*
X69632628Y-124338430D01*
X69646189Y-124299803D01*
X69647338Y-124272619D01*
X69638001Y-124247743D01*
X69636806Y-124245480D01*
X69623986Y-124209552D01*
X69633076Y-124192199D01*
X69643080Y-124168879D01*
X69641105Y-124117270D01*
X69637212Y-124089577D01*
X69631498Y-124012720D01*
X69634356Y-123920630D01*
X69639562Y-123869443D01*
X69645727Y-123795151D01*
X69648465Y-123701875D01*
X69647509Y-123604351D01*
X69645276Y-123553623D01*
X69640707Y-123464761D01*
X69641313Y-123403741D01*
X69649916Y-123364619D01*
X69669334Y-123341453D01*
X69702387Y-123328300D01*
X69751897Y-123319217D01*
X69756866Y-123318456D01*
X69842760Y-123293932D01*
X69906219Y-123248190D01*
X69950096Y-123178054D01*
X69977243Y-123080348D01*
X69978742Y-123071466D01*
X69991487Y-123005440D01*
X70007243Y-122939241D01*
X70010471Y-122927533D01*
X70045199Y-122792066D01*
X67027299Y-122792066D01*
X67025468Y-122820986D01*
X67020167Y-122823532D01*
X67019493Y-122822022D01*
X67016143Y-122788406D01*
X67018865Y-122771222D01*
X67024255Y-122764317D01*
X67027187Y-122786808D01*
X67027299Y-122792066D01*
X70045199Y-122792066D01*
X70045518Y-122790823D01*
X70065016Y-122678056D01*
X70067931Y-122618556D01*
X67021594Y-122618556D01*
X67020276Y-122666490D01*
X67014558Y-122691486D01*
X67003901Y-122698925D01*
X67003396Y-122698933D01*
X66982752Y-122713396D01*
X66969467Y-122742675D01*
X66962571Y-122762819D01*
X66953726Y-122764041D01*
X66939343Y-122742597D01*
X66915834Y-122694747D01*
X66908554Y-122679175D01*
X66893988Y-122648133D01*
X66844333Y-122648133D01*
X66840918Y-122675048D01*
X66828150Y-122672343D01*
X66824013Y-122668453D01*
X66812412Y-122645410D01*
X66824013Y-122627813D01*
X66839178Y-122619478D01*
X66844210Y-122639983D01*
X66844333Y-122648133D01*
X66893988Y-122648133D01*
X66879452Y-122617159D01*
X66852722Y-122561018D01*
X66835548Y-122525745D01*
X66822874Y-122487246D01*
X66828944Y-122469379D01*
X66845366Y-122449039D01*
X66868435Y-122408902D01*
X66880604Y-122384334D01*
X66907781Y-122335891D01*
X66934035Y-122313438D01*
X66955942Y-122309466D01*
X66976943Y-122311884D01*
X66991901Y-122322610D01*
X67002227Y-122346852D01*
X67009334Y-122389816D01*
X67014632Y-122456712D01*
X67019050Y-122542300D01*
X67021594Y-122618556D01*
X70067931Y-122618556D01*
X70069652Y-122583456D01*
X70060746Y-122504313D01*
X70049851Y-122439404D01*
X70038926Y-122355714D01*
X70029865Y-122268273D01*
X70027652Y-122241733D01*
X70017341Y-122149719D01*
X70001200Y-122050365D01*
X69982330Y-121962145D01*
X69977937Y-121945400D01*
X69956675Y-121866674D01*
X69946238Y-121826867D01*
X67913958Y-121826867D01*
X67883494Y-121881900D01*
X67859202Y-121923018D01*
X67846774Y-121935983D01*
X67843776Y-121924233D01*
X67853840Y-121903541D01*
X67877683Y-121870874D01*
X67879055Y-121869200D01*
X67913958Y-121826867D01*
X69946238Y-121826867D01*
X69935633Y-121786426D01*
X69919103Y-121721041D01*
X69918069Y-121716800D01*
X69895084Y-121630537D01*
X69873428Y-121565036D01*
X69854747Y-121524734D01*
X69842646Y-121513600D01*
X69833928Y-121507130D01*
X69819583Y-121485393D01*
X69797779Y-121444896D01*
X69766684Y-121382147D01*
X69724469Y-121293655D01*
X69699704Y-121240979D01*
X69675641Y-121183375D01*
X69659260Y-121132226D01*
X69654666Y-121105512D01*
X69645077Y-121055720D01*
X69614934Y-121005476D01*
X69559884Y-120947987D01*
X69545200Y-120934755D01*
X69541793Y-120932187D01*
X69483988Y-120932187D01*
X69477450Y-120932715D01*
X69454850Y-120921539D01*
X69429187Y-120903363D01*
X69425619Y-120890936D01*
X69443378Y-120893651D01*
X69465170Y-120911219D01*
X69483988Y-120932187D01*
X69541793Y-120932187D01*
X69490997Y-120893900D01*
X69426126Y-120855175D01*
X69361095Y-120823910D01*
X69306413Y-120805437D01*
X69284814Y-120802659D01*
X69266780Y-120805438D01*
X69279904Y-120817181D01*
X69282243Y-120818672D01*
X69301492Y-120836559D01*
X69293973Y-120845623D01*
X69265886Y-120844801D01*
X69223428Y-120833032D01*
X69215741Y-120830072D01*
X69158242Y-120812241D01*
X69087634Y-120797185D01*
X69049938Y-120791734D01*
X68985812Y-120781003D01*
X68927493Y-120765449D01*
X68901733Y-120755205D01*
X68846453Y-120723308D01*
X68795923Y-120687233D01*
X68759595Y-120654709D01*
X68719494Y-120654709D01*
X68716378Y-120665458D01*
X68699629Y-120682837D01*
X68691175Y-120667396D01*
X68690067Y-120646613D01*
X68694215Y-120622047D01*
X68708518Y-120627814D01*
X68708911Y-120628204D01*
X68719494Y-120654709D01*
X68759595Y-120654709D01*
X68758149Y-120653415D01*
X68741136Y-120628291D01*
X68740867Y-120625912D01*
X68727327Y-120597400D01*
X68691557Y-120558627D01*
X68679398Y-120548400D01*
X67631733Y-120548400D01*
X67630391Y-120564004D01*
X67624266Y-120565333D01*
X67607022Y-120553041D01*
X67606333Y-120548400D01*
X67612111Y-120531907D01*
X67613800Y-120531467D01*
X67628258Y-120543332D01*
X67631733Y-120548400D01*
X68679398Y-120548400D01*
X68640829Y-120515962D01*
X68582416Y-120475772D01*
X68545595Y-120454924D01*
X68502120Y-120430947D01*
X68488924Y-120418925D01*
X68504975Y-120417902D01*
X68505708Y-120418004D01*
X68527102Y-120419886D01*
X68540676Y-120413875D01*
X68548888Y-120393607D01*
X68554198Y-120352717D01*
X68559065Y-120284843D01*
X68559453Y-120278907D01*
X68566066Y-120205459D01*
X68575198Y-120139368D01*
X68585153Y-120092276D01*
X68587808Y-120084209D01*
X68597551Y-120038778D01*
X68590309Y-120018536D01*
X68582342Y-120006997D01*
X68582941Y-119990363D01*
X68594416Y-119961168D01*
X68619076Y-119911948D01*
X68629459Y-119892031D01*
X68646169Y-119846592D01*
X68647345Y-119830640D01*
X68633446Y-119830640D01*
X68630800Y-119837200D01*
X68615583Y-119853354D01*
X68612867Y-119854133D01*
X68605594Y-119841032D01*
X68605400Y-119837200D01*
X68618417Y-119820917D01*
X68623333Y-119820266D01*
X68633446Y-119830640D01*
X68647345Y-119830640D01*
X68649005Y-119808137D01*
X68648091Y-119804460D01*
X68652756Y-119765392D01*
X68674817Y-119737666D01*
X68697371Y-119710819D01*
X68705267Y-119678935D01*
X68701571Y-119628621D01*
X68700907Y-119623694D01*
X68682708Y-119552017D01*
X68648455Y-119466021D01*
X68603746Y-119377429D01*
X68554174Y-119297966D01*
X68530625Y-119266909D01*
X68491993Y-119228431D01*
X68435388Y-119182066D01*
X68372103Y-119136967D01*
X68362868Y-119130964D01*
X68303593Y-119091067D01*
X68271280Y-119064002D01*
X68262907Y-119046858D01*
X68268310Y-119040000D01*
X68281402Y-119029882D01*
X68275680Y-119023733D01*
X68245293Y-119018838D01*
X68215933Y-119015696D01*
X68176109Y-119011529D01*
X68117418Y-119005290D01*
X68070298Y-119000237D01*
X67994911Y-118996393D01*
X67931128Y-119005467D01*
G37*
X67931128Y-119005467D02*
X67874804Y-119023608D01*
X67789348Y-119067553D01*
X67699944Y-119133647D01*
X67616667Y-119213209D01*
X67549592Y-119297561D01*
X67540751Y-119311386D01*
X67506948Y-119360448D01*
X67474411Y-119398205D01*
X67457259Y-119412086D01*
X67424977Y-119420878D01*
X67370260Y-119427835D01*
X67304537Y-119431540D01*
X67299846Y-119431640D01*
X67203958Y-119435068D01*
X67138198Y-119441556D01*
X67098913Y-119451789D01*
X67082449Y-119466450D01*
X67081400Y-119472531D01*
X67097089Y-119503785D01*
X67139445Y-119528980D01*
X67201405Y-119545068D01*
X67259374Y-119549333D01*
X67320055Y-119552292D01*
X67360054Y-119563788D01*
X67392242Y-119587753D01*
X67395436Y-119590897D01*
X67423718Y-119625515D01*
X67436879Y-119654111D01*
X67437000Y-119656029D01*
X67424512Y-119704526D01*
X67393835Y-119755738D01*
X67355148Y-119793880D01*
X67344016Y-119800184D01*
X67312239Y-119818378D01*
X67304985Y-119840204D01*
X67318079Y-119878630D01*
X67318466Y-119879533D01*
X67329555Y-119902232D01*
X67333409Y-119893298D01*
X67334210Y-119874881D01*
X67347283Y-119842428D01*
X67377456Y-119819711D01*
X67414547Y-119808945D01*
X67448374Y-119812347D01*
X67468758Y-119832133D01*
X67470866Y-119845135D01*
X67461886Y-119868008D01*
X67453933Y-119871066D01*
X67437955Y-119857838D01*
X67437000Y-119851311D01*
X67430346Y-119839769D01*
X67426120Y-119842435D01*
X67426108Y-119862462D01*
X67435316Y-119877504D01*
X67446816Y-119907754D01*
X67444917Y-119943857D01*
X67432686Y-119973324D01*
X67413186Y-119983663D01*
X67409511Y-119982675D01*
X67389981Y-119978944D01*
X67390436Y-119993046D01*
X67411335Y-120029110D01*
X67415362Y-120035298D01*
X67435135Y-120083256D01*
X67439527Y-120127443D01*
X67445201Y-120177379D01*
X67461165Y-120213109D01*
X67481907Y-120260143D01*
X67487800Y-120297661D01*
X67502265Y-120345478D01*
X67538600Y-120381744D01*
X67572091Y-120413319D01*
X67588929Y-120442539D01*
X67589400Y-120446598D01*
X67575111Y-120486175D01*
X67541060Y-120511445D01*
X67523215Y-120514533D01*
X67498875Y-120525851D01*
X67460075Y-120555458D01*
X67417262Y-120594967D01*
X67343279Y-120667955D01*
X67284713Y-120722349D01*
X67233782Y-120764227D01*
X67182703Y-120799667D01*
X67123692Y-120834746D01*
X67077971Y-120859920D01*
X66995091Y-120908096D01*
X66938083Y-120949750D01*
X66900854Y-120989556D01*
X66892348Y-121002299D01*
X66857103Y-121053013D01*
X66811917Y-121109387D01*
X66791317Y-121132600D01*
X66736747Y-121193618D01*
X66688176Y-121251798D01*
X66650376Y-121301048D01*
X66628114Y-121335278D01*
X66624200Y-121346006D01*
X66613837Y-121365878D01*
X66587466Y-121400729D01*
X66569167Y-121422209D01*
X66526567Y-121478423D01*
X66474804Y-121559510D01*
X66417463Y-121658969D01*
X66358129Y-121770299D01*
X66300389Y-121886998D01*
X66247827Y-122002564D01*
X66243282Y-122013133D01*
X66220830Y-122057605D01*
X66185201Y-122119442D01*
X66142533Y-122188191D01*
X66122254Y-122219226D01*
X66071114Y-122301228D01*
X66038137Y-122368321D01*
X66018683Y-122430637D01*
X66013682Y-122456293D01*
X66004542Y-122577924D01*
X66016117Y-122696446D01*
X66047085Y-122799902D01*
X66053127Y-122812984D01*
X66082943Y-122856915D01*
X66133021Y-122913425D01*
X66195960Y-122975553D01*
X66264360Y-123036338D01*
X66330820Y-123088820D01*
X66383050Y-123123309D01*
X66470697Y-123174860D01*
X66527749Y-123212235D01*
X66554329Y-123235517D01*
X66556467Y-123240637D01*
X66568213Y-123254435D01*
X66604976Y-123264705D01*
X66669045Y-123271718D01*
X66762706Y-123275742D01*
X66864280Y-123277006D01*
X66963464Y-123278334D01*
X67032624Y-123282580D01*
X67075578Y-123291321D01*
X67096141Y-123306131D01*
X67098131Y-123328586D01*
X67085365Y-123360260D01*
X67081921Y-123366825D01*
X67069575Y-123407048D01*
X67081101Y-123443441D01*
X67097148Y-123479605D01*
X67118030Y-123534629D01*
X67134452Y-123582295D01*
X67167711Y-123683608D01*
X67108579Y-123749060D01*
X67055503Y-123824691D01*
X67035984Y-123897257D01*
X67049908Y-123967353D01*
X67062699Y-123991474D01*
X67091259Y-124067787D01*
X67096924Y-124164198D01*
X67082241Y-124263418D01*
X67075517Y-124318136D01*
X67087708Y-124366059D01*
X67099579Y-124390167D01*
X67124625Y-124463795D01*
X67132200Y-124540726D01*
X67137238Y-124606247D01*
X67149989Y-124668857D01*
X67157600Y-124691212D01*
X67173782Y-124747991D01*
X67182523Y-124813796D01*
X67183023Y-124830368D01*
X67186092Y-124884928D01*
X67194199Y-124958545D01*
X67205729Y-125037073D01*
X67208400Y-125052667D01*
X67220417Y-125130036D01*
X67229360Y-125205033D01*
X67233623Y-125263725D01*
X67233773Y-125272800D01*
X67239560Y-125331584D01*
X67255975Y-125416233D01*
X67281632Y-125520947D01*
X67315147Y-125639927D01*
X67342990Y-125730000D01*
X67359569Y-125790818D01*
X67375849Y-125864884D01*
X67384095Y-125910612D01*
X67397373Y-125975629D01*
X67414202Y-126034368D01*
X67426377Y-126064496D01*
X67440725Y-126108141D01*
X67451604Y-126170355D01*
X67455868Y-126222551D01*
X67463426Y-126302104D01*
X67478523Y-126387584D01*
X67489910Y-126432733D01*
X67508588Y-126504072D01*
X67527384Y-126589256D01*
X67540757Y-126661333D01*
X67555534Y-126734852D01*
X67577795Y-126825551D01*
X67603787Y-126918660D01*
X67616806Y-126960862D01*
X67641228Y-127039875D01*
X67662504Y-127113941D01*
X67677764Y-127172793D01*
X67683081Y-127197929D01*
X67696474Y-127257123D01*
X67715714Y-127321627D01*
X67720114Y-127334182D01*
X67738267Y-127428260D01*
X67735163Y-127474974D01*
X67731978Y-127530245D01*
X67746687Y-127573828D01*
X67760123Y-127594619D01*
X67775165Y-127619344D01*
X67785651Y-127648434D01*
X67792577Y-127688621D01*
X67796936Y-127746636D01*
X67799722Y-127829211D01*
X67800580Y-127868693D01*
X67802923Y-127954089D01*
X67806162Y-128028493D01*
X67809897Y-128084685D01*
X67813730Y-128115442D01*
X67814354Y-128117600D01*
X67822117Y-128149923D01*
X67829966Y-128199137D01*
X67831849Y-128214381D01*
X67846189Y-128272493D01*
X67871122Y-128324604D01*
X67876752Y-128332459D01*
X67902930Y-128379569D01*
X67903772Y-128430755D01*
X67903075Y-128434645D01*
X67892665Y-128490133D01*
X68677083Y-128490133D01*
X68665365Y-128452033D01*
X68654535Y-128411517D01*
X68641747Y-128356690D01*
X68637951Y-128339024D01*
X68621898Y-128285391D01*
X68600741Y-128241902D01*
X68593724Y-128232587D01*
X68580269Y-128209509D01*
X68570023Y-128170567D01*
X68562066Y-128110254D01*
X68555473Y-128023065D01*
X68553809Y-127994230D01*
X68547561Y-127908071D01*
X68539118Y-127829081D01*
X68529617Y-127766347D01*
X68520781Y-127730426D01*
X68510627Y-127689893D01*
X68506692Y-127633930D01*
X68508746Y-127555669D01*
X68512895Y-127493360D01*
X68521303Y-127340346D01*
X68525482Y-127160369D01*
X68525344Y-126960080D01*
X68522254Y-126796800D01*
X68521161Y-126735910D01*
X68520325Y-126650198D01*
X68519800Y-126548707D01*
X68519638Y-126440482D01*
X68519742Y-126375115D01*
X68519213Y-126277811D01*
X68517219Y-126191873D01*
X68514019Y-126123201D01*
X68509872Y-126077696D01*
X68505981Y-126061848D01*
X68495548Y-126035231D01*
X68485110Y-125987904D01*
X68480366Y-125956597D01*
X68476049Y-125898677D01*
X68482826Y-125860370D01*
X68500875Y-125831007D01*
X68532469Y-125804552D01*
X68564128Y-125806621D01*
X68598914Y-125838644D01*
X68635158Y-125893796D01*
X68674447Y-125953995D01*
X68723315Y-126018979D01*
X68750177Y-126050913D01*
X68792640Y-126100389D01*
X68829625Y-126146524D01*
X68846905Y-126170266D01*
X68870938Y-126205374D01*
X68906989Y-126256877D01*
X68947293Y-126313685D01*
X68947661Y-126314200D01*
X68981834Y-126363123D01*
X69003204Y-126400609D01*
X69014863Y-126437383D01*
X69019900Y-126484171D01*
X69021406Y-126551698D01*
X69021573Y-126570743D01*
X69022880Y-126725687D01*
X69092268Y-126804516D01*
X69139952Y-126865263D01*
X69173988Y-126927012D01*
X69196409Y-126997104D01*
X69209248Y-127082883D01*
X69214539Y-127191691D01*
X69215000Y-127247723D01*
X69217927Y-127368808D01*
X69226290Y-127471868D01*
X69239460Y-127549353D01*
X69240465Y-127553314D01*
X69250910Y-127610298D01*
X69259860Y-127695992D01*
X69267414Y-127811806D01*
X69273672Y-127959153D01*
X69277041Y-128070607D01*
X69288153Y-128490133D01*
X69947279Y-128490133D01*
X69941932Y-127986367D01*
X69941005Y-127856983D01*
X69940994Y-127736869D01*
X69941831Y-127630688D01*
X69943451Y-127543100D01*
X69945788Y-127478769D01*
X69948776Y-127442356D01*
X69949703Y-127437857D01*
X69950686Y-127380419D01*
X69934453Y-127338254D01*
X69914538Y-127272772D01*
X69918217Y-127222130D01*
X69924383Y-127176311D01*
X69929185Y-127112859D01*
X69932485Y-127039739D01*
X69934147Y-126964916D01*
X69934036Y-126896354D01*
X69932013Y-126842021D01*
X69927944Y-126809879D01*
X69925370Y-126804753D01*
X69919850Y-126784998D01*
X69918840Y-126742234D01*
X69921143Y-126703276D01*
X69923945Y-126644468D01*
X69917042Y-126604137D01*
X69896946Y-126567467D01*
X69885506Y-126551911D01*
X69857371Y-126503853D01*
X69842322Y-126456385D01*
X69841533Y-126446312D01*
X69833424Y-126400136D01*
X69813358Y-126346477D01*
X69807666Y-126335177D01*
X69785459Y-126279362D01*
X69774161Y-126222832D01*
X69773800Y-126213661D01*
X69769317Y-126171461D01*
X69758374Y-126146029D01*
X69756866Y-126144866D01*
X69749625Y-126124300D01*
X69743987Y-126077052D01*
X69740607Y-126010295D01*
X69739933Y-125959912D01*
X69738268Y-125874920D01*
X69733802Y-125792037D01*
X69727330Y-125723873D01*
X69723452Y-125698520D01*
X69715325Y-125639361D01*
X69708710Y-125561320D01*
X69704820Y-125479381D01*
X69704467Y-125463375D01*
X69701393Y-125390522D01*
X69695401Y-125326245D01*
X69687609Y-125281413D01*
X69684858Y-125272800D01*
X69674692Y-125232113D01*
X69667052Y-125173370D01*
X69664537Y-125133179D01*
X69657487Y-125062849D01*
X69640141Y-125015686D01*
X69626747Y-124997713D01*
X69601459Y-124953980D01*
X69580519Y-124890143D01*
X69566543Y-124819152D01*
X69562148Y-124753957D01*
X69568716Y-124710489D01*
X69575912Y-124656276D01*
X69567475Y-124588402D01*
X69559748Y-124543491D01*
X69560750Y-124506885D01*
X69572812Y-124466643D01*
X69598266Y-124410823D01*
X69604731Y-124397630D01*
X69632628Y-124338430D01*
X69646189Y-124299803D01*
X69647338Y-124272619D01*
X69638001Y-124247743D01*
X69636806Y-124245480D01*
X69623986Y-124209552D01*
X69633076Y-124192199D01*
X69643080Y-124168879D01*
X69641105Y-124117270D01*
X69637212Y-124089577D01*
X69631498Y-124012720D01*
X69634356Y-123920630D01*
X69639562Y-123869443D01*
X69645727Y-123795151D01*
X69648465Y-123701875D01*
X69647509Y-123604351D01*
X69645276Y-123553623D01*
X69640707Y-123464761D01*
X69641313Y-123403741D01*
X69649916Y-123364619D01*
X69669334Y-123341453D01*
X69702387Y-123328300D01*
X69751897Y-123319217D01*
X69756866Y-123318456D01*
X69842760Y-123293932D01*
X69906219Y-123248190D01*
X69950096Y-123178054D01*
X69977243Y-123080348D01*
X69978742Y-123071466D01*
X69991487Y-123005440D01*
X70007243Y-122939241D01*
X70010471Y-122927533D01*
X70045199Y-122792066D01*
X67027299Y-122792066D01*
X67025468Y-122820986D01*
X67020167Y-122823532D01*
X67019493Y-122822022D01*
X67016143Y-122788406D01*
X67018865Y-122771222D01*
X67024255Y-122764317D01*
X67027187Y-122786808D01*
X67027299Y-122792066D01*
X70045199Y-122792066D01*
X70045518Y-122790823D01*
X70065016Y-122678056D01*
X70067931Y-122618556D01*
X67021594Y-122618556D01*
X67020276Y-122666490D01*
X67014558Y-122691486D01*
X67003901Y-122698925D01*
X67003396Y-122698933D01*
X66982752Y-122713396D01*
X66969467Y-122742675D01*
X66962571Y-122762819D01*
X66953726Y-122764041D01*
X66939343Y-122742597D01*
X66915834Y-122694747D01*
X66908554Y-122679175D01*
X66893988Y-122648133D01*
X66844333Y-122648133D01*
X66840918Y-122675048D01*
X66828150Y-122672343D01*
X66824013Y-122668453D01*
X66812412Y-122645410D01*
X66824013Y-122627813D01*
X66839178Y-122619478D01*
X66844210Y-122639983D01*
X66844333Y-122648133D01*
X66893988Y-122648133D01*
X66879452Y-122617159D01*
X66852722Y-122561018D01*
X66835548Y-122525745D01*
X66822874Y-122487246D01*
X66828944Y-122469379D01*
X66845366Y-122449039D01*
X66868435Y-122408902D01*
X66880604Y-122384334D01*
X66907781Y-122335891D01*
X66934035Y-122313438D01*
X66955942Y-122309466D01*
X66976943Y-122311884D01*
X66991901Y-122322610D01*
X67002227Y-122346852D01*
X67009334Y-122389816D01*
X67014632Y-122456712D01*
X67019050Y-122542300D01*
X67021594Y-122618556D01*
X70067931Y-122618556D01*
X70069652Y-122583456D01*
X70060746Y-122504313D01*
X70049851Y-122439404D01*
X70038926Y-122355714D01*
X70029865Y-122268273D01*
X70027652Y-122241733D01*
X70017341Y-122149719D01*
X70001200Y-122050365D01*
X69982330Y-121962145D01*
X69977937Y-121945400D01*
X69956675Y-121866674D01*
X69946238Y-121826867D01*
X67913958Y-121826867D01*
X67883494Y-121881900D01*
X67859202Y-121923018D01*
X67846774Y-121935983D01*
X67843776Y-121924233D01*
X67853840Y-121903541D01*
X67877683Y-121870874D01*
X67879055Y-121869200D01*
X67913958Y-121826867D01*
X69946238Y-121826867D01*
X69935633Y-121786426D01*
X69919103Y-121721041D01*
X69918069Y-121716800D01*
X69895084Y-121630537D01*
X69873428Y-121565036D01*
X69854747Y-121524734D01*
X69842646Y-121513600D01*
X69833928Y-121507130D01*
X69819583Y-121485393D01*
X69797779Y-121444896D01*
X69766684Y-121382147D01*
X69724469Y-121293655D01*
X69699704Y-121240979D01*
X69675641Y-121183375D01*
X69659260Y-121132226D01*
X69654666Y-121105512D01*
X69645077Y-121055720D01*
X69614934Y-121005476D01*
X69559884Y-120947987D01*
X69545200Y-120934755D01*
X69541793Y-120932187D01*
X69483988Y-120932187D01*
X69477450Y-120932715D01*
X69454850Y-120921539D01*
X69429187Y-120903363D01*
X69425619Y-120890936D01*
X69443378Y-120893651D01*
X69465170Y-120911219D01*
X69483988Y-120932187D01*
X69541793Y-120932187D01*
X69490997Y-120893900D01*
X69426126Y-120855175D01*
X69361095Y-120823910D01*
X69306413Y-120805437D01*
X69284814Y-120802659D01*
X69266780Y-120805438D01*
X69279904Y-120817181D01*
X69282243Y-120818672D01*
X69301492Y-120836559D01*
X69293973Y-120845623D01*
X69265886Y-120844801D01*
X69223428Y-120833032D01*
X69215741Y-120830072D01*
X69158242Y-120812241D01*
X69087634Y-120797185D01*
X69049938Y-120791734D01*
X68985812Y-120781003D01*
X68927493Y-120765449D01*
X68901733Y-120755205D01*
X68846453Y-120723308D01*
X68795923Y-120687233D01*
X68759595Y-120654709D01*
X68719494Y-120654709D01*
X68716378Y-120665458D01*
X68699629Y-120682837D01*
X68691175Y-120667396D01*
X68690067Y-120646613D01*
X68694215Y-120622047D01*
X68708518Y-120627814D01*
X68708911Y-120628204D01*
X68719494Y-120654709D01*
X68759595Y-120654709D01*
X68758149Y-120653415D01*
X68741136Y-120628291D01*
X68740867Y-120625912D01*
X68727327Y-120597400D01*
X68691557Y-120558627D01*
X68679398Y-120548400D01*
X67631733Y-120548400D01*
X67630391Y-120564004D01*
X67624266Y-120565333D01*
X67607022Y-120553041D01*
X67606333Y-120548400D01*
X67612111Y-120531907D01*
X67613800Y-120531467D01*
X67628258Y-120543332D01*
X67631733Y-120548400D01*
X68679398Y-120548400D01*
X68640829Y-120515962D01*
X68582416Y-120475772D01*
X68545595Y-120454924D01*
X68502120Y-120430947D01*
X68488924Y-120418925D01*
X68504975Y-120417902D01*
X68505708Y-120418004D01*
X68527102Y-120419886D01*
X68540676Y-120413875D01*
X68548888Y-120393607D01*
X68554198Y-120352717D01*
X68559065Y-120284843D01*
X68559453Y-120278907D01*
X68566066Y-120205459D01*
X68575198Y-120139368D01*
X68585153Y-120092276D01*
X68587808Y-120084209D01*
X68597551Y-120038778D01*
X68590309Y-120018536D01*
X68582342Y-120006997D01*
X68582941Y-119990363D01*
X68594416Y-119961168D01*
X68619076Y-119911948D01*
X68629459Y-119892031D01*
X68646169Y-119846592D01*
X68647345Y-119830640D01*
X68633446Y-119830640D01*
X68630800Y-119837200D01*
X68615583Y-119853354D01*
X68612867Y-119854133D01*
X68605594Y-119841032D01*
X68605400Y-119837200D01*
X68618417Y-119820917D01*
X68623333Y-119820266D01*
X68633446Y-119830640D01*
X68647345Y-119830640D01*
X68649005Y-119808137D01*
X68648091Y-119804460D01*
X68652756Y-119765392D01*
X68674817Y-119737666D01*
X68697371Y-119710819D01*
X68705267Y-119678935D01*
X68701571Y-119628621D01*
X68700907Y-119623694D01*
X68682708Y-119552017D01*
X68648455Y-119466021D01*
X68603746Y-119377429D01*
X68554174Y-119297966D01*
X68530625Y-119266909D01*
X68491993Y-119228431D01*
X68435388Y-119182066D01*
X68372103Y-119136967D01*
X68362868Y-119130964D01*
X68303593Y-119091067D01*
X68271280Y-119064002D01*
X68262907Y-119046858D01*
X68268310Y-119040000D01*
X68281402Y-119029882D01*
X68275680Y-119023733D01*
X68245293Y-119018838D01*
X68215933Y-119015696D01*
X68176109Y-119011529D01*
X68117418Y-119005290D01*
X68070298Y-119000237D01*
X67994911Y-118996393D01*
X67931128Y-119005467D01*
G36*
X59506593Y-119581083D02*
G01*
X59505474Y-119598417D01*
X59506593Y-119602249D01*
X59509683Y-119603313D01*
X59510863Y-119591666D01*
X59509532Y-119579647D01*
X59506593Y-119581083D01*
G37*
X59506593Y-119581083D02*
X59505474Y-119598417D01*
X59506593Y-119602249D01*
X59509683Y-119603313D01*
X59510863Y-119591666D01*
X59509532Y-119579647D01*
X59506593Y-119581083D01*
G36*
X60023662Y-118632366D02*
G01*
X59981750Y-118634469D01*
X59971160Y-118635102D01*
X59922806Y-118638636D01*
X59888767Y-118642689D01*
X59866428Y-118647708D01*
X59853173Y-118654140D01*
X59851512Y-118655515D01*
X59832716Y-118667362D01*
X59807762Y-118677360D01*
X59805301Y-118678070D01*
X59785495Y-118685386D01*
X59775116Y-118692826D01*
X59774667Y-118694271D01*
X59767288Y-118700962D01*
X59748707Y-118708712D01*
X59739048Y-118711605D01*
X59703510Y-118728264D01*
X59671070Y-118757958D01*
X59647114Y-118782393D01*
X59621708Y-118804157D01*
X59609321Y-118812884D01*
X59590802Y-118826652D01*
X59580614Y-118838736D01*
X59579933Y-118841363D01*
X59574458Y-118856231D01*
X59570613Y-118861000D01*
X59562058Y-118874073D01*
X59549587Y-118898432D01*
X59535106Y-118929667D01*
X59520525Y-118963367D01*
X59507752Y-118995121D01*
X59498697Y-119020518D01*
X59495266Y-119035128D01*
X59491297Y-119055534D01*
X59486107Y-119068028D01*
X59481236Y-119088990D01*
X59481818Y-119119663D01*
X59482668Y-119126738D01*
X59487550Y-119152476D01*
X59494291Y-119165076D01*
X59504528Y-119168333D01*
X59517891Y-119170127D01*
X59518192Y-119177204D01*
X59505351Y-119192106D01*
X59503733Y-119193733D01*
X59494516Y-119206170D01*
X59489299Y-119223466D01*
X59487091Y-119250244D01*
X59486800Y-119272755D01*
X59487612Y-119303852D01*
X59489752Y-119328098D01*
X59492779Y-119340717D01*
X59493150Y-119341194D01*
X59498536Y-119353730D01*
X59501265Y-119370122D01*
X59505773Y-119421717D01*
X59510225Y-119458371D01*
X59515019Y-119482067D01*
X59520556Y-119494793D01*
X59527140Y-119498533D01*
X59533721Y-119501109D01*
X59536905Y-119511047D01*
X59537136Y-119531661D01*
X59535351Y-119559916D01*
X59532260Y-119597730D01*
X59529166Y-119623167D01*
X59524897Y-119640745D01*
X59518282Y-119654980D01*
X59508149Y-119670388D01*
X59505850Y-119673651D01*
X59491233Y-119697604D01*
X59488673Y-119715470D01*
X59498515Y-119733391D01*
X59509934Y-119746120D01*
X59524026Y-119762994D01*
X59526031Y-119772985D01*
X59521697Y-119777296D01*
X59504568Y-119781129D01*
X59493092Y-119779817D01*
X59480849Y-119778997D01*
X59478961Y-119788741D01*
X59480240Y-119795672D01*
X59486192Y-119817804D01*
X59490557Y-119830085D01*
X59490140Y-119843653D01*
X59481062Y-119849122D01*
X59466862Y-119858962D01*
X59450038Y-119877531D01*
X59444843Y-119884700D01*
X59425405Y-119907349D01*
X59398860Y-119931223D01*
X59383474Y-119942621D01*
X59365295Y-119956707D01*
X59337570Y-119980534D01*
X59302744Y-120011885D01*
X59263265Y-120048545D01*
X59221580Y-120088302D01*
X59208261Y-120101230D01*
X59164182Y-120144402D01*
X59130872Y-120177672D01*
X59106842Y-120202821D01*
X59090604Y-120221630D01*
X59080668Y-120235881D01*
X59075546Y-120247354D01*
X59073748Y-120257830D01*
X59073626Y-120262284D01*
X59067329Y-120295485D01*
X59050699Y-120326705D01*
X59027135Y-120352181D01*
X59000031Y-120368148D01*
X58975301Y-120371261D01*
X58956137Y-120364956D01*
X58933332Y-120352604D01*
X58912069Y-120337701D01*
X58897533Y-120323744D01*
X58894133Y-120316497D01*
X58900102Y-120301755D01*
X58906833Y-120294399D01*
X58916351Y-120280610D01*
X58919290Y-120264751D01*
X58915083Y-120253674D01*
X58910334Y-120252066D01*
X58898751Y-120247444D01*
X58878883Y-120235573D01*
X58863767Y-120225231D01*
X58841621Y-120207854D01*
X58830457Y-120193312D01*
X58826664Y-120175851D01*
X58826400Y-120165692D01*
X58829946Y-120134485D01*
X58838523Y-120103994D01*
X58838956Y-120102937D01*
X58849301Y-120070743D01*
X58859483Y-120025639D01*
X58868806Y-119971640D01*
X58876574Y-119912761D01*
X58881989Y-119854470D01*
X58885961Y-119810459D01*
X58891288Y-119778881D01*
X58899243Y-119755234D01*
X58911097Y-119735018D01*
X58918504Y-119725264D01*
X58923095Y-119716069D01*
X58925890Y-119700552D01*
X58926997Y-119676125D01*
X58926525Y-119640201D01*
X58924582Y-119590189D01*
X58924369Y-119585564D01*
X58921806Y-119540910D01*
X58918656Y-119502172D01*
X58915252Y-119472553D01*
X58911924Y-119455258D01*
X58910582Y-119452390D01*
X58904878Y-119438769D01*
X58902600Y-119418295D01*
X58895332Y-119390252D01*
X58877037Y-119359539D01*
X58816724Y-119359539D01*
X58814531Y-119369784D01*
X58809467Y-119371533D01*
X58801484Y-119364915D01*
X58801000Y-119361616D01*
X58795766Y-119347991D01*
X58787568Y-119336858D01*
X58778831Y-119325953D01*
X58782441Y-119323443D01*
X58789084Y-119324210D01*
X58801628Y-119331246D01*
X58811632Y-119344857D01*
X58816724Y-119359539D01*
X58877037Y-119359539D01*
X58873585Y-119353744D01*
X58867853Y-119345905D01*
X58846562Y-119319557D01*
X58829013Y-119304143D01*
X58810375Y-119295992D01*
X58798761Y-119293426D01*
X58768549Y-119284195D01*
X58738503Y-119269399D01*
X58734024Y-119266498D01*
X58705611Y-119251348D01*
X58674788Y-119240815D01*
X58669767Y-119239785D01*
X58645070Y-119233702D01*
X58626582Y-119226105D01*
X58624021Y-119224379D01*
X58608356Y-119218969D01*
X58579884Y-119215353D01*
X58542631Y-119213495D01*
X58500623Y-119213359D01*
X58457886Y-119214909D01*
X58418449Y-119218107D01*
X58386336Y-119222919D01*
X58372005Y-119226650D01*
X58307108Y-119257057D01*
X58249453Y-119300746D01*
X58218362Y-119334367D01*
X58197501Y-119359472D01*
X58177874Y-119381304D01*
X58167028Y-119392076D01*
X58155414Y-119406450D01*
X58158093Y-119414212D01*
X58162671Y-119423047D01*
X58162368Y-119442717D01*
X58157503Y-119474102D01*
X58151720Y-119507924D01*
X58147081Y-119539714D01*
X58145044Y-119557799D01*
X58140729Y-119596398D01*
X58134790Y-119631682D01*
X58128210Y-119658383D01*
X58124485Y-119667866D01*
X58121272Y-119685402D01*
X58122093Y-119713338D01*
X58126139Y-119745850D01*
X58132596Y-119777114D01*
X58140654Y-119801306D01*
X58143921Y-119807363D01*
X58153847Y-119825593D01*
X58157533Y-119837843D01*
X58162681Y-119848825D01*
X58175861Y-119868039D01*
X58193680Y-119891222D01*
X58212745Y-119914111D01*
X58229661Y-119932441D01*
X58239858Y-119941279D01*
X58254831Y-119958752D01*
X58267399Y-119987562D01*
X58276178Y-120022140D01*
X58279781Y-120056922D01*
X58276823Y-120086339D01*
X58276362Y-120087960D01*
X58271202Y-120101709D01*
X58268408Y-120102542D01*
X58268328Y-120101783D01*
X58261681Y-120091670D01*
X58246505Y-120091349D01*
X58226740Y-120099152D01*
X58206321Y-120113411D01*
X58189186Y-120132457D01*
X58186691Y-120136371D01*
X58178228Y-120154726D01*
X58173551Y-120177455D01*
X58171945Y-120209374D01*
X58172143Y-120234233D01*
X58170240Y-120289563D01*
X58160824Y-120331768D01*
X58142117Y-120363654D01*
X58112344Y-120388028D01*
X58069725Y-120407698D01*
X58060167Y-120411088D01*
X58030698Y-120421981D01*
X57991666Y-120437508D01*
X57948926Y-120455300D01*
X57920467Y-120467602D01*
X57875726Y-120487468D01*
X57840210Y-120503815D01*
X57807543Y-120519713D01*
X57771354Y-120538235D01*
X57742013Y-120553616D01*
X57720139Y-120569116D01*
X57690576Y-120595710D01*
X57655628Y-120630826D01*
X57617601Y-120671889D01*
X57578800Y-120716325D01*
X57541533Y-120761560D01*
X57508102Y-120805022D01*
X57480815Y-120844135D01*
X57478372Y-120847930D01*
X57470276Y-120863277D01*
X57459775Y-120886380D01*
X57449272Y-120911492D01*
X57441169Y-120932868D01*
X57437867Y-120944761D01*
X57437866Y-120944832D01*
X57432047Y-120956221D01*
X57424802Y-120963569D01*
X57412081Y-120979912D01*
X57396753Y-121008188D01*
X57380818Y-121044033D01*
X57366273Y-121083083D01*
X57358389Y-121108556D01*
X57350185Y-121136030D01*
X57338269Y-121173698D01*
X57324498Y-121215763D01*
X57315447Y-121242666D01*
X57298792Y-121291821D01*
X57286632Y-121328595D01*
X57277907Y-121356602D01*
X57271558Y-121379457D01*
X57266525Y-121400775D01*
X57261746Y-121424170D01*
X57260822Y-121428933D01*
X57254027Y-121471710D01*
X57247582Y-121525900D01*
X57241965Y-121585982D01*
X57237656Y-121646437D01*
X57235132Y-121701744D01*
X57234674Y-121730540D01*
X57229627Y-121794180D01*
X57213417Y-121848768D01*
X57184417Y-121899243D01*
X57175009Y-121911759D01*
X57159108Y-121937465D01*
X57144194Y-121970393D01*
X57137626Y-121989592D01*
X57129496Y-122047189D01*
X57136536Y-122110477D01*
X57158560Y-122178012D01*
X57163439Y-122189067D01*
X57175788Y-122221670D01*
X57182105Y-122255303D01*
X57183866Y-122297438D01*
X57186145Y-122343722D01*
X57194370Y-122378057D01*
X57210629Y-122404978D01*
X57237010Y-122429025D01*
X57248017Y-122436914D01*
X57279364Y-122462967D01*
X57303475Y-122491697D01*
X57317251Y-122518992D01*
X57319302Y-122531429D01*
X57315802Y-122548383D01*
X57307146Y-122571377D01*
X57305204Y-122575587D01*
X57297843Y-122592956D01*
X57295453Y-122607936D01*
X57298157Y-122626534D01*
X57306076Y-122654755D01*
X57306864Y-122657363D01*
X57319866Y-122694664D01*
X57332888Y-122717868D01*
X57348060Y-122729675D01*
X57366307Y-122732800D01*
X57381886Y-122737102D01*
X57395260Y-122752334D01*
X57403802Y-122768256D01*
X57414363Y-122794615D01*
X57420392Y-122818382D01*
X57420933Y-122824737D01*
X57425832Y-122849219D01*
X57438612Y-122881371D01*
X57456400Y-122915783D01*
X57476321Y-122947047D01*
X57495501Y-122969754D01*
X57500038Y-122973608D01*
X57525811Y-122988056D01*
X57553317Y-122996374D01*
X57556178Y-122996721D01*
X57577036Y-123001120D01*
X57588471Y-123012756D01*
X57594683Y-123029133D01*
X57612816Y-123077255D01*
X57636599Y-123117123D01*
X57659463Y-123145049D01*
X57678010Y-123168382D01*
X57691267Y-123189976D01*
X57695125Y-123200082D01*
X57696349Y-123213125D01*
X57698018Y-123240892D01*
X57700031Y-123281185D01*
X57702286Y-123331804D01*
X57704684Y-123390551D01*
X57707125Y-123455224D01*
X57708381Y-123490566D01*
X57711055Y-123563310D01*
X57714004Y-123636482D01*
X57717079Y-123706783D01*
X57720125Y-123770912D01*
X57722992Y-123825569D01*
X57725528Y-123867454D01*
X57726111Y-123875800D01*
X57729706Y-123927258D01*
X57733783Y-123988784D01*
X57737900Y-124053537D01*
X57741617Y-124114677D01*
X57742501Y-124129800D01*
X57746067Y-124189328D01*
X57750189Y-124254865D01*
X57754415Y-124319369D01*
X57758288Y-124375799D01*
X57759164Y-124388033D01*
X57764411Y-124461522D01*
X57770179Y-124543975D01*
X57776221Y-124631744D01*
X57782291Y-124721183D01*
X57788145Y-124808645D01*
X57793536Y-124890482D01*
X57798219Y-124963050D01*
X57801949Y-125022700D01*
X57802226Y-125027266D01*
X57805503Y-125073806D01*
X57809347Y-125116681D01*
X57813341Y-125151885D01*
X57817069Y-125175410D01*
X57818095Y-125179666D01*
X57821818Y-125199911D01*
X57825545Y-125232412D01*
X57828817Y-125272498D01*
X57830980Y-125310899D01*
X57834441Y-125361741D01*
X57839913Y-125409525D01*
X57846691Y-125448699D01*
X57850342Y-125463299D01*
X57861328Y-125521276D01*
X57864636Y-125593924D01*
X57864632Y-125594533D01*
X57864047Y-125635639D01*
X57862877Y-125688234D01*
X57861210Y-125749929D01*
X57859135Y-125818331D01*
X57856741Y-125891049D01*
X57854117Y-125965692D01*
X57851351Y-126039868D01*
X57848533Y-126111187D01*
X57845751Y-126177257D01*
X57843094Y-126235687D01*
X57840652Y-126284086D01*
X57838512Y-126320062D01*
X57836944Y-126339600D01*
X57834450Y-126392704D01*
X57836935Y-126447428D01*
X57838933Y-126464443D01*
X57843386Y-126518136D01*
X57839713Y-126563658D01*
X57838443Y-126570276D01*
X57833675Y-126601335D01*
X57835135Y-126622855D01*
X57840166Y-126636025D01*
X57853568Y-126653841D01*
X57876967Y-126677406D01*
X57906280Y-126703065D01*
X57937425Y-126727164D01*
X57956383Y-126740048D01*
X57972461Y-126753847D01*
X57978249Y-126771951D01*
X57978391Y-126786368D01*
X57979658Y-126822890D01*
X57987336Y-126844941D01*
X58002162Y-126854005D01*
X58012124Y-126854170D01*
X58027584Y-126854574D01*
X58034723Y-126863221D01*
X58037563Y-126881277D01*
X58038807Y-126900333D01*
X58035871Y-126905105D01*
X58026462Y-126898134D01*
X58024197Y-126896094D01*
X58009949Y-126885024D01*
X58002243Y-126881466D01*
X57994703Y-126888924D01*
X57984447Y-126908422D01*
X57973149Y-126935642D01*
X57962481Y-126966268D01*
X57954114Y-126995985D01*
X57950289Y-127015560D01*
X57948033Y-127043166D01*
X57951099Y-127066584D01*
X57960915Y-127093538D01*
X57967341Y-127107655D01*
X57986929Y-127141899D01*
X58012157Y-127176450D01*
X58027725Y-127193811D01*
X58065125Y-127230989D01*
X58130379Y-127226070D01*
X58164928Y-127222760D01*
X58186747Y-127218346D01*
X58200041Y-127211534D01*
X58208333Y-127202069D01*
X58222605Y-127184084D01*
X58233286Y-127174043D01*
X58244561Y-127164184D01*
X58264126Y-127145553D01*
X58288470Y-127121523D01*
X58298560Y-127111358D01*
X58334849Y-127071595D01*
X58367002Y-127029160D01*
X58378988Y-127010035D01*
X58107908Y-127010035D01*
X58107076Y-127023083D01*
X58090830Y-127041426D01*
X58087579Y-127044222D01*
X58057854Y-127063070D01*
X58031304Y-127066049D01*
X58008868Y-127055638D01*
X57997784Y-127046136D01*
X58000352Y-127040785D01*
X58007201Y-127037817D01*
X58017810Y-127029918D01*
X58013959Y-127022319D01*
X57997980Y-127017517D01*
X57987700Y-127016933D01*
X57968453Y-127012345D01*
X57962948Y-126998418D01*
X57971162Y-126974905D01*
X57982187Y-126956802D01*
X58001295Y-126934812D01*
X58017713Y-126929264D01*
X58031116Y-126940216D01*
X58034658Y-126947083D01*
X58044959Y-126961730D01*
X58053708Y-126966133D01*
X58062967Y-126970062D01*
X58063397Y-126972483D01*
X58063025Y-126985599D01*
X58063397Y-126994686D01*
X58066309Y-127005377D01*
X58075479Y-127001318D01*
X58077100Y-127000000D01*
X58087846Y-126985849D01*
X58089800Y-126978296D01*
X58096151Y-126963895D01*
X58099494Y-126961141D01*
X58105853Y-126961973D01*
X58105006Y-126977027D01*
X58104342Y-126997751D01*
X58107908Y-127010035D01*
X58378988Y-127010035D01*
X58398043Y-126979631D01*
X58430995Y-126918586D01*
X58432700Y-126915245D01*
X58460844Y-126871372D01*
X58496617Y-126838028D01*
X58499125Y-126836223D01*
X58524917Y-126815306D01*
X58546947Y-126792986D01*
X58556217Y-126780668D01*
X58575216Y-126758808D01*
X58599835Y-126741156D01*
X58601975Y-126740089D01*
X58622464Y-126727477D01*
X58630738Y-126712612D01*
X58631667Y-126701541D01*
X58628466Y-126677051D01*
X58622540Y-126660100D01*
X58617657Y-126643387D01*
X58613462Y-126615601D01*
X58610827Y-126582598D01*
X58610751Y-126580888D01*
X58608791Y-126549426D01*
X58606109Y-126524474D01*
X58603253Y-126510990D01*
X58602974Y-126510455D01*
X58598799Y-126497410D01*
X58594528Y-126474759D01*
X58593324Y-126466081D01*
X58582862Y-126404626D01*
X58566285Y-126344631D01*
X58552512Y-126305683D01*
X58534917Y-126254491D01*
X58524497Y-126210935D01*
X58519999Y-126167965D01*
X58520004Y-126123088D01*
X58518580Y-126074536D01*
X58511082Y-126037545D01*
X58509172Y-126032523D01*
X58501802Y-126004523D01*
X58498182Y-125968863D01*
X58498306Y-125931642D01*
X58502162Y-125898961D01*
X58509403Y-125877463D01*
X58518999Y-125855516D01*
X58524364Y-125835130D01*
X58529982Y-125811490D01*
X58538898Y-125782357D01*
X58542081Y-125773238D01*
X58550635Y-125740026D01*
X58554873Y-125704489D01*
X58554980Y-125697038D01*
X58554733Y-125624659D01*
X58556149Y-125558006D01*
X58559074Y-125499204D01*
X58563355Y-125450380D01*
X58568839Y-125413660D01*
X58575373Y-125391172D01*
X58577228Y-125387915D01*
X58584720Y-125367722D01*
X58588828Y-125335963D01*
X58589333Y-125318516D01*
X58591291Y-125285006D01*
X58596335Y-125253799D01*
X58601060Y-125237850D01*
X58607986Y-125208625D01*
X58610713Y-125164417D01*
X58610321Y-125128866D01*
X58610907Y-125067950D01*
X58616906Y-125022754D01*
X58620208Y-125010837D01*
X58626967Y-124982892D01*
X58632715Y-124946087D01*
X58636145Y-124909237D01*
X58638818Y-124869893D01*
X58642718Y-124822483D01*
X58647112Y-124775761D01*
X58648245Y-124764799D01*
X58652842Y-124718253D01*
X58657352Y-124667374D01*
X58660941Y-124621689D01*
X58661525Y-124613252D01*
X58664743Y-124578316D01*
X58669072Y-124548460D01*
X58673715Y-124528873D01*
X58674972Y-124525916D01*
X58677825Y-124512608D01*
X58680554Y-124485302D01*
X58682975Y-124446933D01*
X58684904Y-124400435D01*
X58686158Y-124348745D01*
X58686181Y-124347263D01*
X58688559Y-124264046D01*
X58692926Y-124196881D01*
X58699403Y-124144991D01*
X58708107Y-124107600D01*
X58719159Y-124083929D01*
X58727967Y-124075339D01*
X58741777Y-124071488D01*
X58754252Y-124081550D01*
X58755554Y-124083233D01*
X58762114Y-124095743D01*
X58764734Y-124113408D01*
X58763738Y-124140636D01*
X58761514Y-124163666D01*
X58757186Y-124224806D01*
X58757342Y-124282623D01*
X58761839Y-124332199D01*
X58767165Y-124358196D01*
X58770799Y-124378442D01*
X58774461Y-124410946D01*
X58777701Y-124451041D01*
X58779874Y-124489539D01*
X58782091Y-124536109D01*
X58784902Y-124590135D01*
X58788117Y-124648462D01*
X58791548Y-124707935D01*
X58795005Y-124765399D01*
X58798301Y-124817697D01*
X58801247Y-124861675D01*
X58803653Y-124894176D01*
X58804948Y-124908733D01*
X58812830Y-124974406D01*
X58821572Y-125030124D01*
X58830750Y-125073517D01*
X58839426Y-125101026D01*
X58847458Y-125127330D01*
X58854079Y-125161763D01*
X58857018Y-125187339D01*
X58860343Y-125218105D01*
X58864893Y-125243502D01*
X58868931Y-125256235D01*
X58872297Y-125270709D01*
X58874924Y-125297610D01*
X58876455Y-125332435D01*
X58876701Y-125354395D01*
X58877850Y-125400700D01*
X58880972Y-125450362D01*
X58885466Y-125494583D01*
X58887017Y-125505633D01*
X58890769Y-125540353D01*
X58893544Y-125586604D01*
X58895118Y-125638998D01*
X58895264Y-125692149D01*
X58895140Y-125700366D01*
X58894785Y-125750350D01*
X58895804Y-125797144D01*
X58898506Y-125844056D01*
X58903199Y-125894393D01*
X58910190Y-125951460D01*
X58919787Y-126018566D01*
X58932184Y-126098300D01*
X58940306Y-126156847D01*
X58943989Y-126202216D01*
X58943205Y-126233421D01*
X58937927Y-126249476D01*
X58936467Y-126250700D01*
X58930399Y-126262129D01*
X58928000Y-126281170D01*
X58924071Y-126305093D01*
X58914330Y-126332787D01*
X58911317Y-126339108D01*
X58906304Y-126350237D01*
X58901851Y-126363720D01*
X58897759Y-126381224D01*
X58893827Y-126404416D01*
X58889857Y-126434961D01*
X58885646Y-126474527D01*
X58880997Y-126524781D01*
X58875708Y-126587389D01*
X58869579Y-126664017D01*
X58864515Y-126729066D01*
X58859747Y-126784640D01*
X58854181Y-126839764D01*
X58848318Y-126890060D01*
X58842658Y-126931148D01*
X58838820Y-126953433D01*
X58831507Y-126994704D01*
X58825650Y-127039385D01*
X58821137Y-127089620D01*
X58817858Y-127147550D01*
X58815698Y-127215317D01*
X58814548Y-127295064D01*
X58814293Y-127388934D01*
X58814376Y-127420630D01*
X58814749Y-127490617D01*
X58815373Y-127545674D01*
X58816367Y-127587805D01*
X58817850Y-127619012D01*
X58819939Y-127641299D01*
X58822751Y-127656669D01*
X58826406Y-127667125D01*
X58829181Y-127672071D01*
X58837232Y-127689717D01*
X58834772Y-127698558D01*
X58827961Y-127711254D01*
X58826958Y-127732167D01*
X58831508Y-127753700D01*
X58836983Y-127764004D01*
X58851586Y-127774730D01*
X58874978Y-127784625D01*
X58882564Y-127786850D01*
X58914916Y-127799211D01*
X58931943Y-127816113D01*
X58934959Y-127838969D01*
X58934379Y-127842511D01*
X58933298Y-127854093D01*
X58937108Y-127862021D01*
X58948514Y-127867251D01*
X58970222Y-127870738D01*
X59004938Y-127873437D01*
X59025366Y-127874641D01*
X59072688Y-127874512D01*
X59104476Y-127867904D01*
X59107916Y-127866346D01*
X59126604Y-127859396D01*
X59143276Y-127861706D01*
X59157342Y-127868217D01*
X59174661Y-127882435D01*
X59191495Y-127904488D01*
X59205016Y-127929255D01*
X59212399Y-127951618D01*
X59211233Y-127965846D01*
X59208876Y-127979740D01*
X59210693Y-128001225D01*
X59210926Y-128002509D01*
X59224549Y-128029794D01*
X59254601Y-128055421D01*
X59300639Y-128079187D01*
X59362220Y-128100887D01*
X59438903Y-128120317D01*
X59486800Y-128129860D01*
X59587856Y-128147799D01*
X59685717Y-128164078D01*
X59776197Y-128178030D01*
X59855111Y-128188987D01*
X59867800Y-128190594D01*
X59914175Y-128196922D01*
X59961446Y-128204305D01*
X60002983Y-128211665D01*
X60024433Y-128216075D01*
X60063171Y-128223671D01*
X60109233Y-128231065D01*
X60153063Y-128236731D01*
X60155667Y-128237009D01*
X60198968Y-128241802D01*
X60245141Y-128247283D01*
X60284654Y-128252319D01*
X60286900Y-128252622D01*
X60336699Y-128257381D01*
X60393091Y-128259571D01*
X60450750Y-128259263D01*
X60504349Y-128256532D01*
X60548561Y-128251449D01*
X60562066Y-128248855D01*
X60624309Y-128233416D01*
X60673259Y-128217743D01*
X60712523Y-128200501D01*
X60744234Y-128181381D01*
X60772364Y-128162599D01*
X60799492Y-128145692D01*
X60813290Y-128137819D01*
X60836765Y-128116575D01*
X60849104Y-128086190D01*
X60849850Y-128050664D01*
X60838545Y-128013995D01*
X60829270Y-127997988D01*
X60814878Y-127980705D01*
X60797142Y-127968922D01*
X60772718Y-127961665D01*
X60738264Y-127957959D01*
X60690438Y-127956832D01*
X60687984Y-127956826D01*
X60644882Y-127953832D01*
X60608072Y-127945739D01*
X60581098Y-127933659D01*
X60567647Y-127919091D01*
X60557337Y-127910297D01*
X60550544Y-127910886D01*
X60534728Y-127909769D01*
X60509529Y-127900246D01*
X60478898Y-127884353D01*
X60446784Y-127864122D01*
X60418934Y-127843102D01*
X60397246Y-127826353D01*
X60379849Y-127815347D01*
X60372882Y-127812798D01*
X60358156Y-127807736D01*
X60333864Y-127794133D01*
X60303387Y-127774360D01*
X60270107Y-127750791D01*
X60237406Y-127725796D01*
X60208664Y-127701749D01*
X60191650Y-127685669D01*
X60163200Y-127653262D01*
X60149124Y-127628878D01*
X60149182Y-127611985D01*
X60155667Y-127605366D01*
X60161697Y-127593163D01*
X60163901Y-127570351D01*
X60162491Y-127542768D01*
X60157679Y-127516248D01*
X60153113Y-127503797D01*
X59576950Y-127503797D01*
X59576201Y-127519970D01*
X59575501Y-127527752D01*
X59570525Y-127562816D01*
X59563892Y-127581212D01*
X59559167Y-127584200D01*
X59558936Y-127576895D01*
X59558962Y-127576732D01*
X59495266Y-127576732D01*
X59490050Y-127581323D01*
X59486800Y-127579966D01*
X59480804Y-127583275D01*
X59478337Y-127599747D01*
X59478333Y-127600633D01*
X59475734Y-127618679D01*
X59469454Y-127626522D01*
X59469194Y-127626533D01*
X59463920Y-127619159D01*
X59465956Y-127599016D01*
X59471098Y-127578200D01*
X59475498Y-127565340D01*
X59475681Y-127565011D01*
X59484109Y-127562162D01*
X59493010Y-127569206D01*
X59495266Y-127576732D01*
X59558962Y-127576732D01*
X59561872Y-127558728D01*
X59563167Y-127552450D01*
X59566183Y-127539099D01*
X59434387Y-127539099D01*
X59432257Y-127557810D01*
X59423781Y-127582699D01*
X59419570Y-127591679D01*
X59408803Y-127616387D01*
X59402672Y-127637439D01*
X59402133Y-127642629D01*
X59398320Y-127658978D01*
X59393666Y-127664633D01*
X59387534Y-127676095D01*
X59385200Y-127694431D01*
X59382885Y-127716025D01*
X59376940Y-127743243D01*
X59368861Y-127771232D01*
X59360143Y-127795141D01*
X59352285Y-127810117D01*
X59348685Y-127812800D01*
X59343989Y-127806706D01*
X59344891Y-127802216D01*
X59350176Y-127784216D01*
X59357640Y-127754554D01*
X59366144Y-127718174D01*
X59374547Y-127680019D01*
X59381708Y-127645032D01*
X59384104Y-127632286D01*
X59392646Y-127598666D01*
X59404745Y-127566555D01*
X59412395Y-127551853D01*
X59424472Y-127533590D01*
X59430780Y-127528646D01*
X59433825Y-127535567D01*
X59434387Y-127539099D01*
X59566183Y-127539099D01*
X59570537Y-127519829D01*
X59575097Y-127503680D01*
X59576950Y-127503797D01*
X60153113Y-127503797D01*
X60151832Y-127500305D01*
X60135927Y-127479937D01*
X60125625Y-127474133D01*
X59579933Y-127474133D01*
X59576835Y-127481102D01*
X59574289Y-127479777D01*
X59573275Y-127469729D01*
X59574289Y-127468488D01*
X59579322Y-127469651D01*
X59579933Y-127474133D01*
X60125625Y-127474133D01*
X60111246Y-127466033D01*
X60091390Y-127461433D01*
X59520666Y-127461433D01*
X59516433Y-127465666D01*
X59512200Y-127461433D01*
X59516433Y-127457200D01*
X59520666Y-127461433D01*
X60091390Y-127461433D01*
X60075272Y-127457699D01*
X60025483Y-127454041D01*
X60021165Y-127453931D01*
X59979164Y-127451325D01*
X59950136Y-127444480D01*
X59930277Y-127431451D01*
X59927616Y-127427566D01*
X59529133Y-127427566D01*
X59524900Y-127431800D01*
X59520666Y-127427566D01*
X59524900Y-127423333D01*
X59529133Y-127427566D01*
X59927616Y-127427566D01*
X59915784Y-127410296D01*
X59909742Y-127396989D01*
X59903891Y-127377584D01*
X59908185Y-127363542D01*
X59916946Y-127353126D01*
X59937797Y-127326444D01*
X59954051Y-127294458D01*
X59966421Y-127254577D01*
X59975617Y-127204213D01*
X59982350Y-127140777D01*
X59984859Y-127105833D01*
X59987184Y-127061661D01*
X59645530Y-127061661D01*
X59640780Y-127083771D01*
X59640663Y-127084110D01*
X59634622Y-127106904D01*
X59628518Y-127138532D01*
X59624883Y-127163068D01*
X59621180Y-127189421D01*
X59618522Y-127199999D01*
X59616471Y-127195896D01*
X59615362Y-127186947D01*
X59615697Y-127159562D01*
X59620123Y-127128352D01*
X59621623Y-127121814D01*
X59627443Y-127093282D01*
X59630565Y-127067420D01*
X59630733Y-127062290D01*
X59632429Y-127046992D01*
X59638287Y-127046684D01*
X59640252Y-127048465D01*
X59645530Y-127061661D01*
X59987184Y-127061661D01*
X59987661Y-127052615D01*
X59989484Y-126998696D01*
X59990217Y-126949292D01*
X59990166Y-126944966D01*
X59664600Y-126944966D01*
X59660366Y-126949200D01*
X59656133Y-126944966D01*
X59660366Y-126940733D01*
X59664600Y-126944966D01*
X59990166Y-126944966D01*
X59989748Y-126909614D01*
X59989246Y-126898400D01*
X59987526Y-126868061D01*
X59672398Y-126868061D01*
X59670841Y-126879042D01*
X59667951Y-126879173D01*
X59665930Y-126867841D01*
X59667283Y-126862945D01*
X59671042Y-126859738D01*
X59672398Y-126868061D01*
X59987526Y-126868061D01*
X59986511Y-126850164D01*
X59985153Y-126815552D01*
X59985521Y-126791288D01*
X59987962Y-126774092D01*
X59992827Y-126760688D01*
X60000463Y-126747798D01*
X60006150Y-126739480D01*
X60013504Y-126728563D01*
X60019180Y-126718162D01*
X60023372Y-126706051D01*
X60026273Y-126690003D01*
X60028079Y-126667794D01*
X60028982Y-126637198D01*
X60029177Y-126595988D01*
X60028858Y-126541939D01*
X60028336Y-126485041D01*
X60028437Y-126457138D01*
X60030382Y-126435777D01*
X60035696Y-126416349D01*
X60045906Y-126394241D01*
X60062537Y-126364845D01*
X60075153Y-126343601D01*
X60106472Y-126287167D01*
X60128757Y-126236179D01*
X60144534Y-126183716D01*
X60149602Y-126157566D01*
X59579933Y-126157566D01*
X59575700Y-126161800D01*
X59571466Y-126157566D01*
X59575700Y-126153333D01*
X59579933Y-126157566D01*
X60149602Y-126157566D01*
X60156332Y-126122851D01*
X60156789Y-126119937D01*
X60163213Y-126086158D01*
X60163615Y-126084563D01*
X59613800Y-126084563D01*
X59607944Y-126093601D01*
X59605333Y-126094066D01*
X59598454Y-126101157D01*
X59596866Y-126111000D01*
X59593650Y-126124763D01*
X59589192Y-126127933D01*
X59584800Y-126121204D01*
X59585874Y-126111277D01*
X59592625Y-126096340D01*
X59602225Y-126084508D01*
X59610622Y-126079661D01*
X59613800Y-126084563D01*
X60163615Y-126084563D01*
X60168689Y-126064433D01*
X59723866Y-126064433D01*
X59719633Y-126068666D01*
X59715400Y-126064433D01*
X59719633Y-126060200D01*
X59723866Y-126064433D01*
X60168689Y-126064433D01*
X60171110Y-126054829D01*
X60177062Y-126037180D01*
X60183767Y-126015114D01*
X60184633Y-125998321D01*
X60184222Y-125996944D01*
X60183987Y-125982773D01*
X60188121Y-125958416D01*
X60193886Y-125935768D01*
X60201403Y-125909548D01*
X60206526Y-125890983D01*
X60208035Y-125884705D01*
X60209929Y-125876174D01*
X60214946Y-125856266D01*
X60219580Y-125838499D01*
X60225311Y-125810433D01*
X59732333Y-125810433D01*
X59728100Y-125814666D01*
X59723866Y-125810433D01*
X59728100Y-125806199D01*
X59732333Y-125810433D01*
X60225311Y-125810433D01*
X60225507Y-125809478D01*
X60231199Y-125770431D01*
X60232352Y-125759633D01*
X59876266Y-125759633D01*
X59872033Y-125763866D01*
X59867800Y-125759633D01*
X59872033Y-125755399D01*
X59876266Y-125759633D01*
X60232352Y-125759633D01*
X60235517Y-125729999D01*
X59740800Y-125729999D01*
X59737702Y-125736969D01*
X59735155Y-125735644D01*
X59734142Y-125725596D01*
X59735155Y-125724355D01*
X59740189Y-125725517D01*
X59740800Y-125729999D01*
X60235517Y-125729999D01*
X60235704Y-125728252D01*
X60236865Y-125713427D01*
X60238061Y-125699661D01*
X59850198Y-125699661D01*
X59848641Y-125710642D01*
X59845751Y-125710773D01*
X59845280Y-125708127D01*
X59646998Y-125708127D01*
X59645441Y-125719109D01*
X59642551Y-125719240D01*
X59640530Y-125707908D01*
X59641883Y-125703012D01*
X59645642Y-125699805D01*
X59646998Y-125708127D01*
X59845280Y-125708127D01*
X59843730Y-125699441D01*
X59845083Y-125694545D01*
X59848842Y-125691338D01*
X59850198Y-125699661D01*
X60238061Y-125699661D01*
X60238892Y-125690093D01*
X59781768Y-125690093D01*
X59779708Y-125694825D01*
X59771183Y-125703914D01*
X59766282Y-125702049D01*
X59766200Y-125700866D01*
X59772214Y-125693705D01*
X59775975Y-125691091D01*
X59781768Y-125690093D01*
X60238892Y-125690093D01*
X60240053Y-125676738D01*
X60241853Y-125662266D01*
X59884733Y-125662266D01*
X59881635Y-125669235D01*
X59879089Y-125667911D01*
X59878209Y-125659189D01*
X59759370Y-125659189D01*
X59755923Y-125678293D01*
X59754629Y-125682694D01*
X59746978Y-125703436D01*
X59742633Y-125707940D01*
X59742260Y-125696698D01*
X59745416Y-125675905D01*
X59750600Y-125657222D01*
X59756268Y-125649189D01*
X59757472Y-125649405D01*
X59759370Y-125659189D01*
X59878209Y-125659189D01*
X59878075Y-125657863D01*
X59879089Y-125656622D01*
X59884122Y-125657784D01*
X59884733Y-125662266D01*
X60241853Y-125662266D01*
X60243947Y-125645442D01*
X60247912Y-125624166D01*
X59766200Y-125624166D01*
X59761966Y-125628399D01*
X59757733Y-125624166D01*
X59761966Y-125619933D01*
X59766200Y-125624166D01*
X60247912Y-125624166D01*
X60247923Y-125624109D01*
X60249820Y-125618464D01*
X60251915Y-125605990D01*
X60252094Y-125602999D01*
X59901666Y-125602999D01*
X59898569Y-125609969D01*
X59896022Y-125608644D01*
X59895453Y-125602999D01*
X59774666Y-125602999D01*
X59771569Y-125609969D01*
X59769022Y-125608644D01*
X59768825Y-125606689D01*
X59669544Y-125606689D01*
X59665506Y-125627290D01*
X59662851Y-125636564D01*
X59655590Y-125656095D01*
X59650752Y-125660160D01*
X59649399Y-125656103D01*
X59650510Y-125636477D01*
X59655986Y-125616087D01*
X59664086Y-125599006D01*
X59668838Y-125596567D01*
X59669544Y-125606689D01*
X59768825Y-125606689D01*
X59768009Y-125598596D01*
X59769022Y-125597355D01*
X59774055Y-125598517D01*
X59774666Y-125602999D01*
X59895453Y-125602999D01*
X59895009Y-125598596D01*
X59896022Y-125597355D01*
X59901055Y-125598517D01*
X59901666Y-125602999D01*
X60252094Y-125602999D01*
X60253366Y-125581833D01*
X59774666Y-125581833D01*
X59770433Y-125586066D01*
X59766200Y-125581833D01*
X59770433Y-125577599D01*
X59774666Y-125581833D01*
X60253366Y-125581833D01*
X60253515Y-125579361D01*
X60254553Y-125541350D01*
X60254569Y-125539499D01*
X59783133Y-125539499D01*
X59778900Y-125543733D01*
X59774666Y-125539499D01*
X59778900Y-125535266D01*
X59783133Y-125539499D01*
X60254569Y-125539499D01*
X60254958Y-125494728D01*
X60254664Y-125442268D01*
X60254491Y-125429746D01*
X60253722Y-125369597D01*
X60253613Y-125323761D01*
X60254323Y-125289628D01*
X60256013Y-125264585D01*
X60258840Y-125246020D01*
X60262965Y-125231322D01*
X60267240Y-125220741D01*
X60276841Y-125195672D01*
X60282237Y-125174553D01*
X60282667Y-125169718D01*
X60286688Y-125148195D01*
X60291259Y-125137098D01*
X60298044Y-125118517D01*
X60306072Y-125087784D01*
X60310977Y-125065366D01*
X59882312Y-125065366D01*
X59881774Y-125085445D01*
X59880264Y-125092784D01*
X59878773Y-125088766D01*
X59877249Y-125065538D01*
X59878658Y-125046433D01*
X59880597Y-125040557D01*
X59881931Y-125049708D01*
X59882312Y-125065366D01*
X60310977Y-125065366D01*
X60314440Y-125049545D01*
X60322247Y-125008448D01*
X60328591Y-124969136D01*
X60331290Y-124946833D01*
X59774666Y-124946833D01*
X59770433Y-124951066D01*
X59766200Y-124946833D01*
X59770433Y-124942599D01*
X59774666Y-124946833D01*
X60331290Y-124946833D01*
X60332570Y-124936256D01*
X60333467Y-124919606D01*
X60335690Y-124888774D01*
X60341360Y-124852483D01*
X60345486Y-124833755D01*
X60348815Y-124812182D01*
X60352062Y-124775092D01*
X60354757Y-124730933D01*
X59867800Y-124730933D01*
X59864702Y-124737902D01*
X59862155Y-124736577D01*
X59861142Y-124726529D01*
X59862155Y-124725288D01*
X59867189Y-124726451D01*
X59867800Y-124730933D01*
X60354757Y-124730933D01*
X60355187Y-124723900D01*
X60357805Y-124667433D01*
X59867800Y-124667433D01*
X59863566Y-124671666D01*
X59859333Y-124667433D01*
X59863566Y-124663199D01*
X59867800Y-124667433D01*
X60357805Y-124667433D01*
X60358149Y-124660024D01*
X60359586Y-124620866D01*
X59867800Y-124620866D01*
X59864702Y-124627835D01*
X59862155Y-124626511D01*
X59861142Y-124616463D01*
X59862155Y-124615222D01*
X59867189Y-124616384D01*
X59867800Y-124620866D01*
X60359586Y-124620866D01*
X60360907Y-124584877D01*
X60361344Y-124570066D01*
X59867800Y-124570066D01*
X59864702Y-124577035D01*
X59862155Y-124575711D01*
X59861142Y-124565663D01*
X59862155Y-124564422D01*
X59867189Y-124565584D01*
X59867800Y-124570066D01*
X60361344Y-124570066D01*
X60362491Y-124531261D01*
X59867131Y-124531261D01*
X59865575Y-124542242D01*
X59862685Y-124542373D01*
X59860663Y-124531041D01*
X59862016Y-124526145D01*
X59865776Y-124522938D01*
X59867131Y-124531261D01*
X60362491Y-124531261D01*
X60363420Y-124499877D01*
X60365380Y-124417666D01*
X59867800Y-124417666D01*
X59864702Y-124424635D01*
X59862155Y-124423311D01*
X59861142Y-124413263D01*
X59862155Y-124412022D01*
X59867189Y-124413184D01*
X59867800Y-124417666D01*
X60365380Y-124417666D01*
X60365648Y-124406440D01*
X60366490Y-124361927D01*
X59858665Y-124361927D01*
X59857108Y-124372909D01*
X59854218Y-124373040D01*
X59852197Y-124361708D01*
X59853549Y-124356812D01*
X59857309Y-124353605D01*
X59858665Y-124361927D01*
X60366490Y-124361927D01*
X60367549Y-124305981D01*
X60369083Y-124199917D01*
X60370208Y-124089663D01*
X60370342Y-124067253D01*
X59856423Y-124067253D01*
X59855100Y-124070533D01*
X59847492Y-124078610D01*
X59846133Y-124079000D01*
X59842497Y-124072449D01*
X59842400Y-124070533D01*
X59848909Y-124062392D01*
X59851366Y-124062066D01*
X59856423Y-124067253D01*
X60370342Y-124067253D01*
X60370525Y-124036666D01*
X59850866Y-124036666D01*
X59847769Y-124043635D01*
X59845222Y-124042311D01*
X59844209Y-124032263D01*
X59845222Y-124031022D01*
X59850255Y-124032184D01*
X59850866Y-124036666D01*
X60370525Y-124036666D01*
X60370885Y-123976635D01*
X60370910Y-123968933D01*
X59639200Y-123968933D01*
X59636102Y-123975902D01*
X59633555Y-123974577D01*
X59632542Y-123964529D01*
X59633555Y-123963288D01*
X59638589Y-123964451D01*
X59639200Y-123968933D01*
X60370910Y-123968933D01*
X60370973Y-123950186D01*
X60371200Y-123885329D01*
X60371306Y-123871566D01*
X60096400Y-123871566D01*
X60092167Y-123875800D01*
X60087933Y-123871566D01*
X60092167Y-123867333D01*
X60096400Y-123871566D01*
X60371306Y-123871566D01*
X60371589Y-123835253D01*
X60371607Y-123834325D01*
X60068601Y-123834325D01*
X60066825Y-123842808D01*
X60066222Y-123844415D01*
X60059515Y-123854782D01*
X60055702Y-123854857D01*
X60056651Y-123845900D01*
X60061483Y-123839675D01*
X60068601Y-123834325D01*
X60371607Y-123834325D01*
X60372330Y-123797806D01*
X60373609Y-123770835D01*
X60375612Y-123752188D01*
X60378528Y-123739712D01*
X60382544Y-123731256D01*
X60387846Y-123724667D01*
X60390852Y-123721586D01*
X60418422Y-123705125D01*
X60437418Y-123702233D01*
X59849216Y-123702233D01*
X59848301Y-123716692D01*
X59845650Y-123717965D01*
X59845313Y-123717211D01*
X59843638Y-123700403D01*
X59844999Y-123691811D01*
X59847694Y-123688358D01*
X59849160Y-123699604D01*
X59849216Y-123702233D01*
X60437418Y-123702233D01*
X60464700Y-123702233D01*
X60465535Y-123634500D01*
X60467579Y-123591866D01*
X60472017Y-123566766D01*
X59842400Y-123566766D01*
X59838166Y-123571000D01*
X59833933Y-123566766D01*
X59838166Y-123562533D01*
X59842400Y-123566766D01*
X60472017Y-123566766D01*
X60473196Y-123560104D01*
X60483472Y-123533335D01*
X60484585Y-123531120D01*
X60495854Y-123503393D01*
X60502250Y-123476656D01*
X60502800Y-123469180D01*
X60507286Y-123439453D01*
X60518758Y-123413454D01*
X60530957Y-123400246D01*
X60532801Y-123397433D01*
X60037133Y-123397433D01*
X60032900Y-123401666D01*
X60028667Y-123397433D01*
X59393666Y-123397433D01*
X59389433Y-123401666D01*
X59385200Y-123397433D01*
X59389433Y-123393200D01*
X59393666Y-123397433D01*
X60028667Y-123397433D01*
X60032900Y-123393200D01*
X60037133Y-123397433D01*
X60532801Y-123397433D01*
X60536904Y-123391175D01*
X59991128Y-123391175D01*
X59982805Y-123392531D01*
X59971824Y-123390974D01*
X59971734Y-123388981D01*
X59278269Y-123388981D01*
X59268653Y-123390258D01*
X59249733Y-123390662D01*
X59228831Y-123390137D01*
X59220997Y-123388771D01*
X59226450Y-123387135D01*
X59253798Y-123385718D01*
X59273016Y-123387135D01*
X59278269Y-123388981D01*
X59971734Y-123388981D01*
X59971693Y-123388084D01*
X59983025Y-123386063D01*
X59987921Y-123387416D01*
X59991128Y-123391175D01*
X60536904Y-123391175D01*
X60538913Y-123388112D01*
X60541328Y-123379088D01*
X59949644Y-123379088D01*
X59948482Y-123384122D01*
X59944000Y-123384733D01*
X59938460Y-123382270D01*
X59126966Y-123382270D01*
X59006316Y-123383501D01*
X58958323Y-123383773D01*
X58924789Y-123383280D01*
X58903248Y-123381777D01*
X58891233Y-123379020D01*
X58886277Y-123374763D01*
X58885666Y-123371514D01*
X58888596Y-123363684D01*
X58900037Y-123361453D01*
X58923790Y-123364012D01*
X58949486Y-123367222D01*
X58985853Y-123370953D01*
X59026669Y-123374589D01*
X59044440Y-123376000D01*
X59126966Y-123382270D01*
X59938460Y-123382270D01*
X59937031Y-123381635D01*
X59938355Y-123379088D01*
X59948403Y-123378075D01*
X59949644Y-123379088D01*
X60541328Y-123379088D01*
X60542464Y-123374846D01*
X60547938Y-123351422D01*
X60554249Y-123332908D01*
X60561420Y-123302579D01*
X60562433Y-123288551D01*
X59003494Y-123288551D01*
X58997627Y-123290077D01*
X58978858Y-123291171D01*
X58951220Y-123291599D01*
X58950578Y-123291600D01*
X58921821Y-123290454D01*
X58901594Y-123287435D01*
X58894133Y-123283263D01*
X58901642Y-123280468D01*
X58920594Y-123279495D01*
X58945627Y-123280085D01*
X58971379Y-123281978D01*
X58992488Y-123284916D01*
X59003494Y-123288551D01*
X60562433Y-123288551D01*
X60564435Y-123260856D01*
X60563391Y-123212733D01*
X60558382Y-123163207D01*
X60550185Y-123120008D01*
X60542129Y-123084189D01*
X60538807Y-123058907D01*
X60539902Y-123038538D01*
X60544533Y-123019330D01*
X60549217Y-122999557D01*
X60550177Y-122979809D01*
X60547086Y-122954996D01*
X60539618Y-122920025D01*
X60537608Y-122911522D01*
X60528129Y-122871498D01*
X60516591Y-122822358D01*
X60504727Y-122771493D01*
X60497720Y-122741266D01*
X60483357Y-122686402D01*
X60467919Y-122640251D01*
X60452706Y-122606644D01*
X60450909Y-122603556D01*
X60435501Y-122573560D01*
X60428241Y-122544748D01*
X60426600Y-122512501D01*
X60424285Y-122480815D01*
X60418112Y-122440064D01*
X60409236Y-122397355D01*
X60405433Y-122382239D01*
X60395466Y-122341000D01*
X60389096Y-122303359D01*
X60385619Y-122263128D01*
X60384331Y-122214120D01*
X60384267Y-122196132D01*
X60383952Y-122150034D01*
X60382446Y-122115447D01*
X60378907Y-122086953D01*
X60372494Y-122059131D01*
X60362365Y-122026564D01*
X60354215Y-122002672D01*
X60338826Y-121955297D01*
X60321911Y-121898370D01*
X60304334Y-121835307D01*
X60286964Y-121769523D01*
X60270666Y-121704436D01*
X60256306Y-121643461D01*
X60244752Y-121590015D01*
X60236869Y-121547513D01*
X60234469Y-121530533D01*
X60230433Y-121505586D01*
X60225476Y-121487649D01*
X60223572Y-121483966D01*
X60218453Y-121472273D01*
X60210566Y-121448665D01*
X60201376Y-121417624D01*
X60198648Y-121407766D01*
X60180009Y-121339618D01*
X60164177Y-121282442D01*
X60149651Y-121230837D01*
X60143372Y-121208799D01*
X60133868Y-121175414D01*
X60131339Y-121166466D01*
X59038066Y-121166466D01*
X59031624Y-121174687D01*
X59029600Y-121174933D01*
X59021379Y-121168490D01*
X59021133Y-121166466D01*
X59027576Y-121158246D01*
X59029600Y-121157999D01*
X59037820Y-121164442D01*
X59038066Y-121166466D01*
X60131339Y-121166466D01*
X60124556Y-121142471D01*
X60120598Y-121128366D01*
X60111374Y-121099048D01*
X60101167Y-121071594D01*
X60099843Y-121068467D01*
X60092954Y-121046992D01*
X60085636Y-121015428D01*
X60079443Y-120980505D01*
X60079304Y-120979567D01*
X60073548Y-120944796D01*
X60067229Y-120913314D01*
X60061684Y-120891765D01*
X60061530Y-120891299D01*
X60053484Y-120860860D01*
X60045352Y-120819340D01*
X60038007Y-120772564D01*
X60032322Y-120726358D01*
X60029172Y-120686547D01*
X60028814Y-120673168D01*
X60027432Y-120643712D01*
X60024030Y-120619634D01*
X60020922Y-120609668D01*
X60016864Y-120595438D01*
X60012004Y-120568586D01*
X60007037Y-120533355D01*
X60003743Y-120504784D01*
X59992931Y-120424235D01*
X59978776Y-120355822D01*
X59974104Y-120340966D01*
X59071933Y-120340966D01*
X59067700Y-120345200D01*
X59063466Y-120340966D01*
X59067700Y-120336733D01*
X59071933Y-120340966D01*
X59974104Y-120340966D01*
X59961727Y-120301615D01*
X59957246Y-120290930D01*
X59943750Y-120246822D01*
X59941583Y-120213966D01*
X59165066Y-120213966D01*
X59160833Y-120218200D01*
X59156600Y-120213966D01*
X59160833Y-120209733D01*
X59165066Y-120213966D01*
X59941583Y-120213966D01*
X59940821Y-120202420D01*
X59943127Y-120190775D01*
X59178328Y-120190775D01*
X59170005Y-120192131D01*
X59159024Y-120190574D01*
X59158893Y-120187684D01*
X59170225Y-120185663D01*
X59175121Y-120187016D01*
X59178328Y-120190775D01*
X59943127Y-120190775D01*
X59947757Y-120167400D01*
X59966629Y-120118320D01*
X59986553Y-120067798D01*
X60006073Y-120019407D01*
X60023733Y-119976722D01*
X60038076Y-119943316D01*
X60046463Y-119925110D01*
X60063594Y-119899642D01*
X60093060Y-119866451D01*
X60133148Y-119827274D01*
X60182145Y-119783844D01*
X60203777Y-119765735D01*
X60236118Y-119730290D01*
X60266976Y-119678915D01*
X60295941Y-119612578D01*
X60298666Y-119604366D01*
X59629083Y-119604366D01*
X59628167Y-119618826D01*
X59625517Y-119620099D01*
X59625180Y-119619344D01*
X59623505Y-119602536D01*
X59624866Y-119593944D01*
X59627561Y-119590491D01*
X59629027Y-119601737D01*
X59629083Y-119604366D01*
X60298666Y-119604366D01*
X60322603Y-119532250D01*
X60346550Y-119438899D01*
X60351117Y-119418099D01*
X60359864Y-119377223D01*
X60368658Y-119336223D01*
X60375926Y-119302427D01*
X60377456Y-119295333D01*
X60384190Y-119268912D01*
X60390956Y-119249859D01*
X60394804Y-119243756D01*
X60399569Y-119233406D01*
X60405099Y-119211040D01*
X60410210Y-119181461D01*
X60410287Y-119180916D01*
X60415410Y-119150473D01*
X60420945Y-119126395D01*
X60425663Y-119113960D01*
X60434578Y-119094843D01*
X60442171Y-119065144D01*
X60447375Y-119031210D01*
X60449122Y-118999392D01*
X60447811Y-118982331D01*
X60433065Y-118937264D01*
X60417247Y-118910100D01*
X59620131Y-118910100D01*
X59619450Y-118927525D01*
X59617531Y-118932022D01*
X59616449Y-118929248D01*
X59614872Y-118908916D01*
X59616278Y-118895382D01*
X59618509Y-118890689D01*
X59619912Y-118900866D01*
X59620131Y-118910100D01*
X60417247Y-118910100D01*
X60403216Y-118886008D01*
X60358674Y-118829161D01*
X60326091Y-118794861D01*
X59685186Y-118794861D01*
X59683877Y-118805796D01*
X59679170Y-118810096D01*
X59667247Y-118821223D01*
X59651999Y-118839990D01*
X59648782Y-118844483D01*
X59634675Y-118862007D01*
X59623406Y-118871463D01*
X59621431Y-118872000D01*
X59611444Y-118877870D01*
X59595464Y-118892743D01*
X59587014Y-118901917D01*
X59568998Y-118919870D01*
X59557840Y-118926571D01*
X59555504Y-118922314D01*
X59563959Y-118907396D01*
X59570098Y-118899378D01*
X59586139Y-118875887D01*
X59597876Y-118852950D01*
X59606961Y-118836323D01*
X59615534Y-118829666D01*
X59620540Y-118835837D01*
X59619309Y-118842095D01*
X59619074Y-118855517D01*
X59622027Y-118859151D01*
X59630024Y-118856139D01*
X59635014Y-118846450D01*
X59643881Y-118828728D01*
X59657380Y-118811226D01*
X59671547Y-118798021D01*
X59682415Y-118793191D01*
X59685186Y-118794861D01*
X60326091Y-118794861D01*
X60300924Y-118768368D01*
X60270871Y-118739657D01*
X59808578Y-118739657D01*
X59799470Y-118747215D01*
X59797950Y-118747859D01*
X59778588Y-118752555D01*
X59767306Y-118749330D01*
X59766200Y-118745987D01*
X59773430Y-118738987D01*
X59787366Y-118734461D01*
X59803667Y-118734296D01*
X59808578Y-118739657D01*
X60270871Y-118739657D01*
X60264696Y-118733758D01*
X60236738Y-118709271D01*
X60213866Y-118692559D01*
X60192898Y-118681271D01*
X60172600Y-118673674D01*
X60141517Y-118662521D01*
X60113003Y-118650254D01*
X60100633Y-118643804D01*
X60087923Y-118637492D01*
X60073214Y-118633640D01*
X60052972Y-118632010D01*
X60023662Y-118632366D01*
G37*
X60023662Y-118632366D02*
X59981750Y-118634469D01*
X59971160Y-118635102D01*
X59922806Y-118638636D01*
X59888767Y-118642689D01*
X59866428Y-118647708D01*
X59853173Y-118654140D01*
X59851512Y-118655515D01*
X59832716Y-118667362D01*
X59807762Y-118677360D01*
X59805301Y-118678070D01*
X59785495Y-118685386D01*
X59775116Y-118692826D01*
X59774667Y-118694271D01*
X59767288Y-118700962D01*
X59748707Y-118708712D01*
X59739048Y-118711605D01*
X59703510Y-118728264D01*
X59671070Y-118757958D01*
X59647114Y-118782393D01*
X59621708Y-118804157D01*
X59609321Y-118812884D01*
X59590802Y-118826652D01*
X59580614Y-118838736D01*
X59579933Y-118841363D01*
X59574458Y-118856231D01*
X59570613Y-118861000D01*
X59562058Y-118874073D01*
X59549587Y-118898432D01*
X59535106Y-118929667D01*
X59520525Y-118963367D01*
X59507752Y-118995121D01*
X59498697Y-119020518D01*
X59495266Y-119035128D01*
X59491297Y-119055534D01*
X59486107Y-119068028D01*
X59481236Y-119088990D01*
X59481818Y-119119663D01*
X59482668Y-119126738D01*
X59487550Y-119152476D01*
X59494291Y-119165076D01*
X59504528Y-119168333D01*
X59517891Y-119170127D01*
X59518192Y-119177204D01*
X59505351Y-119192106D01*
X59503733Y-119193733D01*
X59494516Y-119206170D01*
X59489299Y-119223466D01*
X59487091Y-119250244D01*
X59486800Y-119272755D01*
X59487612Y-119303852D01*
X59489752Y-119328098D01*
X59492779Y-119340717D01*
X59493150Y-119341194D01*
X59498536Y-119353730D01*
X59501265Y-119370122D01*
X59505773Y-119421717D01*
X59510225Y-119458371D01*
X59515019Y-119482067D01*
X59520556Y-119494793D01*
X59527140Y-119498533D01*
X59533721Y-119501109D01*
X59536905Y-119511047D01*
X59537136Y-119531661D01*
X59535351Y-119559916D01*
X59532260Y-119597730D01*
X59529166Y-119623167D01*
X59524897Y-119640745D01*
X59518282Y-119654980D01*
X59508149Y-119670388D01*
X59505850Y-119673651D01*
X59491233Y-119697604D01*
X59488673Y-119715470D01*
X59498515Y-119733391D01*
X59509934Y-119746120D01*
X59524026Y-119762994D01*
X59526031Y-119772985D01*
X59521697Y-119777296D01*
X59504568Y-119781129D01*
X59493092Y-119779817D01*
X59480849Y-119778997D01*
X59478961Y-119788741D01*
X59480240Y-119795672D01*
X59486192Y-119817804D01*
X59490557Y-119830085D01*
X59490140Y-119843653D01*
X59481062Y-119849122D01*
X59466862Y-119858962D01*
X59450038Y-119877531D01*
X59444843Y-119884700D01*
X59425405Y-119907349D01*
X59398860Y-119931223D01*
X59383474Y-119942621D01*
X59365295Y-119956707D01*
X59337570Y-119980534D01*
X59302744Y-120011885D01*
X59263265Y-120048545D01*
X59221580Y-120088302D01*
X59208261Y-120101230D01*
X59164182Y-120144402D01*
X59130872Y-120177672D01*
X59106842Y-120202821D01*
X59090604Y-120221630D01*
X59080668Y-120235881D01*
X59075546Y-120247354D01*
X59073748Y-120257830D01*
X59073626Y-120262284D01*
X59067329Y-120295485D01*
X59050699Y-120326705D01*
X59027135Y-120352181D01*
X59000031Y-120368148D01*
X58975301Y-120371261D01*
X58956137Y-120364956D01*
X58933332Y-120352604D01*
X58912069Y-120337701D01*
X58897533Y-120323744D01*
X58894133Y-120316497D01*
X58900102Y-120301755D01*
X58906833Y-120294399D01*
X58916351Y-120280610D01*
X58919290Y-120264751D01*
X58915083Y-120253674D01*
X58910334Y-120252066D01*
X58898751Y-120247444D01*
X58878883Y-120235573D01*
X58863767Y-120225231D01*
X58841621Y-120207854D01*
X58830457Y-120193312D01*
X58826664Y-120175851D01*
X58826400Y-120165692D01*
X58829946Y-120134485D01*
X58838523Y-120103994D01*
X58838956Y-120102937D01*
X58849301Y-120070743D01*
X58859483Y-120025639D01*
X58868806Y-119971640D01*
X58876574Y-119912761D01*
X58881989Y-119854470D01*
X58885961Y-119810459D01*
X58891288Y-119778881D01*
X58899243Y-119755234D01*
X58911097Y-119735018D01*
X58918504Y-119725264D01*
X58923095Y-119716069D01*
X58925890Y-119700552D01*
X58926997Y-119676125D01*
X58926525Y-119640201D01*
X58924582Y-119590189D01*
X58924369Y-119585564D01*
X58921806Y-119540910D01*
X58918656Y-119502172D01*
X58915252Y-119472553D01*
X58911924Y-119455258D01*
X58910582Y-119452390D01*
X58904878Y-119438769D01*
X58902600Y-119418295D01*
X58895332Y-119390252D01*
X58877037Y-119359539D01*
X58816724Y-119359539D01*
X58814531Y-119369784D01*
X58809467Y-119371533D01*
X58801484Y-119364915D01*
X58801000Y-119361616D01*
X58795766Y-119347991D01*
X58787568Y-119336858D01*
X58778831Y-119325953D01*
X58782441Y-119323443D01*
X58789084Y-119324210D01*
X58801628Y-119331246D01*
X58811632Y-119344857D01*
X58816724Y-119359539D01*
X58877037Y-119359539D01*
X58873585Y-119353744D01*
X58867853Y-119345905D01*
X58846562Y-119319557D01*
X58829013Y-119304143D01*
X58810375Y-119295992D01*
X58798761Y-119293426D01*
X58768549Y-119284195D01*
X58738503Y-119269399D01*
X58734024Y-119266498D01*
X58705611Y-119251348D01*
X58674788Y-119240815D01*
X58669767Y-119239785D01*
X58645070Y-119233702D01*
X58626582Y-119226105D01*
X58624021Y-119224379D01*
X58608356Y-119218969D01*
X58579884Y-119215353D01*
X58542631Y-119213495D01*
X58500623Y-119213359D01*
X58457886Y-119214909D01*
X58418449Y-119218107D01*
X58386336Y-119222919D01*
X58372005Y-119226650D01*
X58307108Y-119257057D01*
X58249453Y-119300746D01*
X58218362Y-119334367D01*
X58197501Y-119359472D01*
X58177874Y-119381304D01*
X58167028Y-119392076D01*
X58155414Y-119406450D01*
X58158093Y-119414212D01*
X58162671Y-119423047D01*
X58162368Y-119442717D01*
X58157503Y-119474102D01*
X58151720Y-119507924D01*
X58147081Y-119539714D01*
X58145044Y-119557799D01*
X58140729Y-119596398D01*
X58134790Y-119631682D01*
X58128210Y-119658383D01*
X58124485Y-119667866D01*
X58121272Y-119685402D01*
X58122093Y-119713338D01*
X58126139Y-119745850D01*
X58132596Y-119777114D01*
X58140654Y-119801306D01*
X58143921Y-119807363D01*
X58153847Y-119825593D01*
X58157533Y-119837843D01*
X58162681Y-119848825D01*
X58175861Y-119868039D01*
X58193680Y-119891222D01*
X58212745Y-119914111D01*
X58229661Y-119932441D01*
X58239858Y-119941279D01*
X58254831Y-119958752D01*
X58267399Y-119987562D01*
X58276178Y-120022140D01*
X58279781Y-120056922D01*
X58276823Y-120086339D01*
X58276362Y-120087960D01*
X58271202Y-120101709D01*
X58268408Y-120102542D01*
X58268328Y-120101783D01*
X58261681Y-120091670D01*
X58246505Y-120091349D01*
X58226740Y-120099152D01*
X58206321Y-120113411D01*
X58189186Y-120132457D01*
X58186691Y-120136371D01*
X58178228Y-120154726D01*
X58173551Y-120177455D01*
X58171945Y-120209374D01*
X58172143Y-120234233D01*
X58170240Y-120289563D01*
X58160824Y-120331768D01*
X58142117Y-120363654D01*
X58112344Y-120388028D01*
X58069725Y-120407698D01*
X58060167Y-120411088D01*
X58030698Y-120421981D01*
X57991666Y-120437508D01*
X57948926Y-120455300D01*
X57920467Y-120467602D01*
X57875726Y-120487468D01*
X57840210Y-120503815D01*
X57807543Y-120519713D01*
X57771354Y-120538235D01*
X57742013Y-120553616D01*
X57720139Y-120569116D01*
X57690576Y-120595710D01*
X57655628Y-120630826D01*
X57617601Y-120671889D01*
X57578800Y-120716325D01*
X57541533Y-120761560D01*
X57508102Y-120805022D01*
X57480815Y-120844135D01*
X57478372Y-120847930D01*
X57470276Y-120863277D01*
X57459775Y-120886380D01*
X57449272Y-120911492D01*
X57441169Y-120932868D01*
X57437867Y-120944761D01*
X57437866Y-120944832D01*
X57432047Y-120956221D01*
X57424802Y-120963569D01*
X57412081Y-120979912D01*
X57396753Y-121008188D01*
X57380818Y-121044033D01*
X57366273Y-121083083D01*
X57358389Y-121108556D01*
X57350185Y-121136030D01*
X57338269Y-121173698D01*
X57324498Y-121215763D01*
X57315447Y-121242666D01*
X57298792Y-121291821D01*
X57286632Y-121328595D01*
X57277907Y-121356602D01*
X57271558Y-121379457D01*
X57266525Y-121400775D01*
X57261746Y-121424170D01*
X57260822Y-121428933D01*
X57254027Y-121471710D01*
X57247582Y-121525900D01*
X57241965Y-121585982D01*
X57237656Y-121646437D01*
X57235132Y-121701744D01*
X57234674Y-121730540D01*
X57229627Y-121794180D01*
X57213417Y-121848768D01*
X57184417Y-121899243D01*
X57175009Y-121911759D01*
X57159108Y-121937465D01*
X57144194Y-121970393D01*
X57137626Y-121989592D01*
X57129496Y-122047189D01*
X57136536Y-122110477D01*
X57158560Y-122178012D01*
X57163439Y-122189067D01*
X57175788Y-122221670D01*
X57182105Y-122255303D01*
X57183866Y-122297438D01*
X57186145Y-122343722D01*
X57194370Y-122378057D01*
X57210629Y-122404978D01*
X57237010Y-122429025D01*
X57248017Y-122436914D01*
X57279364Y-122462967D01*
X57303475Y-122491697D01*
X57317251Y-122518992D01*
X57319302Y-122531429D01*
X57315802Y-122548383D01*
X57307146Y-122571377D01*
X57305204Y-122575587D01*
X57297843Y-122592956D01*
X57295453Y-122607936D01*
X57298157Y-122626534D01*
X57306076Y-122654755D01*
X57306864Y-122657363D01*
X57319866Y-122694664D01*
X57332888Y-122717868D01*
X57348060Y-122729675D01*
X57366307Y-122732800D01*
X57381886Y-122737102D01*
X57395260Y-122752334D01*
X57403802Y-122768256D01*
X57414363Y-122794615D01*
X57420392Y-122818382D01*
X57420933Y-122824737D01*
X57425832Y-122849219D01*
X57438612Y-122881371D01*
X57456400Y-122915783D01*
X57476321Y-122947047D01*
X57495501Y-122969754D01*
X57500038Y-122973608D01*
X57525811Y-122988056D01*
X57553317Y-122996374D01*
X57556178Y-122996721D01*
X57577036Y-123001120D01*
X57588471Y-123012756D01*
X57594683Y-123029133D01*
X57612816Y-123077255D01*
X57636599Y-123117123D01*
X57659463Y-123145049D01*
X57678010Y-123168382D01*
X57691267Y-123189976D01*
X57695125Y-123200082D01*
X57696349Y-123213125D01*
X57698018Y-123240892D01*
X57700031Y-123281185D01*
X57702286Y-123331804D01*
X57704684Y-123390551D01*
X57707125Y-123455224D01*
X57708381Y-123490566D01*
X57711055Y-123563310D01*
X57714004Y-123636482D01*
X57717079Y-123706783D01*
X57720125Y-123770912D01*
X57722992Y-123825569D01*
X57725528Y-123867454D01*
X57726111Y-123875800D01*
X57729706Y-123927258D01*
X57733783Y-123988784D01*
X57737900Y-124053537D01*
X57741617Y-124114677D01*
X57742501Y-124129800D01*
X57746067Y-124189328D01*
X57750189Y-124254865D01*
X57754415Y-124319369D01*
X57758288Y-124375799D01*
X57759164Y-124388033D01*
X57764411Y-124461522D01*
X57770179Y-124543975D01*
X57776221Y-124631744D01*
X57782291Y-124721183D01*
X57788145Y-124808645D01*
X57793536Y-124890482D01*
X57798219Y-124963050D01*
X57801949Y-125022700D01*
X57802226Y-125027266D01*
X57805503Y-125073806D01*
X57809347Y-125116681D01*
X57813341Y-125151885D01*
X57817069Y-125175410D01*
X57818095Y-125179666D01*
X57821818Y-125199911D01*
X57825545Y-125232412D01*
X57828817Y-125272498D01*
X57830980Y-125310899D01*
X57834441Y-125361741D01*
X57839913Y-125409525D01*
X57846691Y-125448699D01*
X57850342Y-125463299D01*
X57861328Y-125521276D01*
X57864636Y-125593924D01*
X57864632Y-125594533D01*
X57864047Y-125635639D01*
X57862877Y-125688234D01*
X57861210Y-125749929D01*
X57859135Y-125818331D01*
X57856741Y-125891049D01*
X57854117Y-125965692D01*
X57851351Y-126039868D01*
X57848533Y-126111187D01*
X57845751Y-126177257D01*
X57843094Y-126235687D01*
X57840652Y-126284086D01*
X57838512Y-126320062D01*
X57836944Y-126339600D01*
X57834450Y-126392704D01*
X57836935Y-126447428D01*
X57838933Y-126464443D01*
X57843386Y-126518136D01*
X57839713Y-126563658D01*
X57838443Y-126570276D01*
X57833675Y-126601335D01*
X57835135Y-126622855D01*
X57840166Y-126636025D01*
X57853568Y-126653841D01*
X57876967Y-126677406D01*
X57906280Y-126703065D01*
X57937425Y-126727164D01*
X57956383Y-126740048D01*
X57972461Y-126753847D01*
X57978249Y-126771951D01*
X57978391Y-126786368D01*
X57979658Y-126822890D01*
X57987336Y-126844941D01*
X58002162Y-126854005D01*
X58012124Y-126854170D01*
X58027584Y-126854574D01*
X58034723Y-126863221D01*
X58037563Y-126881277D01*
X58038807Y-126900333D01*
X58035871Y-126905105D01*
X58026462Y-126898134D01*
X58024197Y-126896094D01*
X58009949Y-126885024D01*
X58002243Y-126881466D01*
X57994703Y-126888924D01*
X57984447Y-126908422D01*
X57973149Y-126935642D01*
X57962481Y-126966268D01*
X57954114Y-126995985D01*
X57950289Y-127015560D01*
X57948033Y-127043166D01*
X57951099Y-127066584D01*
X57960915Y-127093538D01*
X57967341Y-127107655D01*
X57986929Y-127141899D01*
X58012157Y-127176450D01*
X58027725Y-127193811D01*
X58065125Y-127230989D01*
X58130379Y-127226070D01*
X58164928Y-127222760D01*
X58186747Y-127218346D01*
X58200041Y-127211534D01*
X58208333Y-127202069D01*
X58222605Y-127184084D01*
X58233286Y-127174043D01*
X58244561Y-127164184D01*
X58264126Y-127145553D01*
X58288470Y-127121523D01*
X58298560Y-127111358D01*
X58334849Y-127071595D01*
X58367002Y-127029160D01*
X58378988Y-127010035D01*
X58107908Y-127010035D01*
X58107076Y-127023083D01*
X58090830Y-127041426D01*
X58087579Y-127044222D01*
X58057854Y-127063070D01*
X58031304Y-127066049D01*
X58008868Y-127055638D01*
X57997784Y-127046136D01*
X58000352Y-127040785D01*
X58007201Y-127037817D01*
X58017810Y-127029918D01*
X58013959Y-127022319D01*
X57997980Y-127017517D01*
X57987700Y-127016933D01*
X57968453Y-127012345D01*
X57962948Y-126998418D01*
X57971162Y-126974905D01*
X57982187Y-126956802D01*
X58001295Y-126934812D01*
X58017713Y-126929264D01*
X58031116Y-126940216D01*
X58034658Y-126947083D01*
X58044959Y-126961730D01*
X58053708Y-126966133D01*
X58062967Y-126970062D01*
X58063397Y-126972483D01*
X58063025Y-126985599D01*
X58063397Y-126994686D01*
X58066309Y-127005377D01*
X58075479Y-127001318D01*
X58077100Y-127000000D01*
X58087846Y-126985849D01*
X58089800Y-126978296D01*
X58096151Y-126963895D01*
X58099494Y-126961141D01*
X58105853Y-126961973D01*
X58105006Y-126977027D01*
X58104342Y-126997751D01*
X58107908Y-127010035D01*
X58378988Y-127010035D01*
X58398043Y-126979631D01*
X58430995Y-126918586D01*
X58432700Y-126915245D01*
X58460844Y-126871372D01*
X58496617Y-126838028D01*
X58499125Y-126836223D01*
X58524917Y-126815306D01*
X58546947Y-126792986D01*
X58556217Y-126780668D01*
X58575216Y-126758808D01*
X58599835Y-126741156D01*
X58601975Y-126740089D01*
X58622464Y-126727477D01*
X58630738Y-126712612D01*
X58631667Y-126701541D01*
X58628466Y-126677051D01*
X58622540Y-126660100D01*
X58617657Y-126643387D01*
X58613462Y-126615601D01*
X58610827Y-126582598D01*
X58610751Y-126580888D01*
X58608791Y-126549426D01*
X58606109Y-126524474D01*
X58603253Y-126510990D01*
X58602974Y-126510455D01*
X58598799Y-126497410D01*
X58594528Y-126474759D01*
X58593324Y-126466081D01*
X58582862Y-126404626D01*
X58566285Y-126344631D01*
X58552512Y-126305683D01*
X58534917Y-126254491D01*
X58524497Y-126210935D01*
X58519999Y-126167965D01*
X58520004Y-126123088D01*
X58518580Y-126074536D01*
X58511082Y-126037545D01*
X58509172Y-126032523D01*
X58501802Y-126004523D01*
X58498182Y-125968863D01*
X58498306Y-125931642D01*
X58502162Y-125898961D01*
X58509403Y-125877463D01*
X58518999Y-125855516D01*
X58524364Y-125835130D01*
X58529982Y-125811490D01*
X58538898Y-125782357D01*
X58542081Y-125773238D01*
X58550635Y-125740026D01*
X58554873Y-125704489D01*
X58554980Y-125697038D01*
X58554733Y-125624659D01*
X58556149Y-125558006D01*
X58559074Y-125499204D01*
X58563355Y-125450380D01*
X58568839Y-125413660D01*
X58575373Y-125391172D01*
X58577228Y-125387915D01*
X58584720Y-125367722D01*
X58588828Y-125335963D01*
X58589333Y-125318516D01*
X58591291Y-125285006D01*
X58596335Y-125253799D01*
X58601060Y-125237850D01*
X58607986Y-125208625D01*
X58610713Y-125164417D01*
X58610321Y-125128866D01*
X58610907Y-125067950D01*
X58616906Y-125022754D01*
X58620208Y-125010837D01*
X58626967Y-124982892D01*
X58632715Y-124946087D01*
X58636145Y-124909237D01*
X58638818Y-124869893D01*
X58642718Y-124822483D01*
X58647112Y-124775761D01*
X58648245Y-124764799D01*
X58652842Y-124718253D01*
X58657352Y-124667374D01*
X58660941Y-124621689D01*
X58661525Y-124613252D01*
X58664743Y-124578316D01*
X58669072Y-124548460D01*
X58673715Y-124528873D01*
X58674972Y-124525916D01*
X58677825Y-124512608D01*
X58680554Y-124485302D01*
X58682975Y-124446933D01*
X58684904Y-124400435D01*
X58686158Y-124348745D01*
X58686181Y-124347263D01*
X58688559Y-124264046D01*
X58692926Y-124196881D01*
X58699403Y-124144991D01*
X58708107Y-124107600D01*
X58719159Y-124083929D01*
X58727967Y-124075339D01*
X58741777Y-124071488D01*
X58754252Y-124081550D01*
X58755554Y-124083233D01*
X58762114Y-124095743D01*
X58764734Y-124113408D01*
X58763738Y-124140636D01*
X58761514Y-124163666D01*
X58757186Y-124224806D01*
X58757342Y-124282623D01*
X58761839Y-124332199D01*
X58767165Y-124358196D01*
X58770799Y-124378442D01*
X58774461Y-124410946D01*
X58777701Y-124451041D01*
X58779874Y-124489539D01*
X58782091Y-124536109D01*
X58784902Y-124590135D01*
X58788117Y-124648462D01*
X58791548Y-124707935D01*
X58795005Y-124765399D01*
X58798301Y-124817697D01*
X58801247Y-124861675D01*
X58803653Y-124894176D01*
X58804948Y-124908733D01*
X58812830Y-124974406D01*
X58821572Y-125030124D01*
X58830750Y-125073517D01*
X58839426Y-125101026D01*
X58847458Y-125127330D01*
X58854079Y-125161763D01*
X58857018Y-125187339D01*
X58860343Y-125218105D01*
X58864893Y-125243502D01*
X58868931Y-125256235D01*
X58872297Y-125270709D01*
X58874924Y-125297610D01*
X58876455Y-125332435D01*
X58876701Y-125354395D01*
X58877850Y-125400700D01*
X58880972Y-125450362D01*
X58885466Y-125494583D01*
X58887017Y-125505633D01*
X58890769Y-125540353D01*
X58893544Y-125586604D01*
X58895118Y-125638998D01*
X58895264Y-125692149D01*
X58895140Y-125700366D01*
X58894785Y-125750350D01*
X58895804Y-125797144D01*
X58898506Y-125844056D01*
X58903199Y-125894393D01*
X58910190Y-125951460D01*
X58919787Y-126018566D01*
X58932184Y-126098300D01*
X58940306Y-126156847D01*
X58943989Y-126202216D01*
X58943205Y-126233421D01*
X58937927Y-126249476D01*
X58936467Y-126250700D01*
X58930399Y-126262129D01*
X58928000Y-126281170D01*
X58924071Y-126305093D01*
X58914330Y-126332787D01*
X58911317Y-126339108D01*
X58906304Y-126350237D01*
X58901851Y-126363720D01*
X58897759Y-126381224D01*
X58893827Y-126404416D01*
X58889857Y-126434961D01*
X58885646Y-126474527D01*
X58880997Y-126524781D01*
X58875708Y-126587389D01*
X58869579Y-126664017D01*
X58864515Y-126729066D01*
X58859747Y-126784640D01*
X58854181Y-126839764D01*
X58848318Y-126890060D01*
X58842658Y-126931148D01*
X58838820Y-126953433D01*
X58831507Y-126994704D01*
X58825650Y-127039385D01*
X58821137Y-127089620D01*
X58817858Y-127147550D01*
X58815698Y-127215317D01*
X58814548Y-127295064D01*
X58814293Y-127388934D01*
X58814376Y-127420630D01*
X58814749Y-127490617D01*
X58815373Y-127545674D01*
X58816367Y-127587805D01*
X58817850Y-127619012D01*
X58819939Y-127641299D01*
X58822751Y-127656669D01*
X58826406Y-127667125D01*
X58829181Y-127672071D01*
X58837232Y-127689717D01*
X58834772Y-127698558D01*
X58827961Y-127711254D01*
X58826958Y-127732167D01*
X58831508Y-127753700D01*
X58836983Y-127764004D01*
X58851586Y-127774730D01*
X58874978Y-127784625D01*
X58882564Y-127786850D01*
X58914916Y-127799211D01*
X58931943Y-127816113D01*
X58934959Y-127838969D01*
X58934379Y-127842511D01*
X58933298Y-127854093D01*
X58937108Y-127862021D01*
X58948514Y-127867251D01*
X58970222Y-127870738D01*
X59004938Y-127873437D01*
X59025366Y-127874641D01*
X59072688Y-127874512D01*
X59104476Y-127867904D01*
X59107916Y-127866346D01*
X59126604Y-127859396D01*
X59143276Y-127861706D01*
X59157342Y-127868217D01*
X59174661Y-127882435D01*
X59191495Y-127904488D01*
X59205016Y-127929255D01*
X59212399Y-127951618D01*
X59211233Y-127965846D01*
X59208876Y-127979740D01*
X59210693Y-128001225D01*
X59210926Y-128002509D01*
X59224549Y-128029794D01*
X59254601Y-128055421D01*
X59300639Y-128079187D01*
X59362220Y-128100887D01*
X59438903Y-128120317D01*
X59486800Y-128129860D01*
X59587856Y-128147799D01*
X59685717Y-128164078D01*
X59776197Y-128178030D01*
X59855111Y-128188987D01*
X59867800Y-128190594D01*
X59914175Y-128196922D01*
X59961446Y-128204305D01*
X60002983Y-128211665D01*
X60024433Y-128216075D01*
X60063171Y-128223671D01*
X60109233Y-128231065D01*
X60153063Y-128236731D01*
X60155667Y-128237009D01*
X60198968Y-128241802D01*
X60245141Y-128247283D01*
X60284654Y-128252319D01*
X60286900Y-128252622D01*
X60336699Y-128257381D01*
X60393091Y-128259571D01*
X60450750Y-128259263D01*
X60504349Y-128256532D01*
X60548561Y-128251449D01*
X60562066Y-128248855D01*
X60624309Y-128233416D01*
X60673259Y-128217743D01*
X60712523Y-128200501D01*
X60744234Y-128181381D01*
X60772364Y-128162599D01*
X60799492Y-128145692D01*
X60813290Y-128137819D01*
X60836765Y-128116575D01*
X60849104Y-128086190D01*
X60849850Y-128050664D01*
X60838545Y-128013995D01*
X60829270Y-127997988D01*
X60814878Y-127980705D01*
X60797142Y-127968922D01*
X60772718Y-127961665D01*
X60738264Y-127957959D01*
X60690438Y-127956832D01*
X60687984Y-127956826D01*
X60644882Y-127953832D01*
X60608072Y-127945739D01*
X60581098Y-127933659D01*
X60567647Y-127919091D01*
X60557337Y-127910297D01*
X60550544Y-127910886D01*
X60534728Y-127909769D01*
X60509529Y-127900246D01*
X60478898Y-127884353D01*
X60446784Y-127864122D01*
X60418934Y-127843102D01*
X60397246Y-127826353D01*
X60379849Y-127815347D01*
X60372882Y-127812798D01*
X60358156Y-127807736D01*
X60333864Y-127794133D01*
X60303387Y-127774360D01*
X60270107Y-127750791D01*
X60237406Y-127725796D01*
X60208664Y-127701749D01*
X60191650Y-127685669D01*
X60163200Y-127653262D01*
X60149124Y-127628878D01*
X60149182Y-127611985D01*
X60155667Y-127605366D01*
X60161697Y-127593163D01*
X60163901Y-127570351D01*
X60162491Y-127542768D01*
X60157679Y-127516248D01*
X60153113Y-127503797D01*
X59576950Y-127503797D01*
X59576201Y-127519970D01*
X59575501Y-127527752D01*
X59570525Y-127562816D01*
X59563892Y-127581212D01*
X59559167Y-127584200D01*
X59558936Y-127576895D01*
X59558962Y-127576732D01*
X59495266Y-127576732D01*
X59490050Y-127581323D01*
X59486800Y-127579966D01*
X59480804Y-127583275D01*
X59478337Y-127599747D01*
X59478333Y-127600633D01*
X59475734Y-127618679D01*
X59469454Y-127626522D01*
X59469194Y-127626533D01*
X59463920Y-127619159D01*
X59465956Y-127599016D01*
X59471098Y-127578200D01*
X59475498Y-127565340D01*
X59475681Y-127565011D01*
X59484109Y-127562162D01*
X59493010Y-127569206D01*
X59495266Y-127576732D01*
X59558962Y-127576732D01*
X59561872Y-127558728D01*
X59563167Y-127552450D01*
X59566183Y-127539099D01*
X59434387Y-127539099D01*
X59432257Y-127557810D01*
X59423781Y-127582699D01*
X59419570Y-127591679D01*
X59408803Y-127616387D01*
X59402672Y-127637439D01*
X59402133Y-127642629D01*
X59398320Y-127658978D01*
X59393666Y-127664633D01*
X59387534Y-127676095D01*
X59385200Y-127694431D01*
X59382885Y-127716025D01*
X59376940Y-127743243D01*
X59368861Y-127771232D01*
X59360143Y-127795141D01*
X59352285Y-127810117D01*
X59348685Y-127812800D01*
X59343989Y-127806706D01*
X59344891Y-127802216D01*
X59350176Y-127784216D01*
X59357640Y-127754554D01*
X59366144Y-127718174D01*
X59374547Y-127680019D01*
X59381708Y-127645032D01*
X59384104Y-127632286D01*
X59392646Y-127598666D01*
X59404745Y-127566555D01*
X59412395Y-127551853D01*
X59424472Y-127533590D01*
X59430780Y-127528646D01*
X59433825Y-127535567D01*
X59434387Y-127539099D01*
X59566183Y-127539099D01*
X59570537Y-127519829D01*
X59575097Y-127503680D01*
X59576950Y-127503797D01*
X60153113Y-127503797D01*
X60151832Y-127500305D01*
X60135927Y-127479937D01*
X60125625Y-127474133D01*
X59579933Y-127474133D01*
X59576835Y-127481102D01*
X59574289Y-127479777D01*
X59573275Y-127469729D01*
X59574289Y-127468488D01*
X59579322Y-127469651D01*
X59579933Y-127474133D01*
X60125625Y-127474133D01*
X60111246Y-127466033D01*
X60091390Y-127461433D01*
X59520666Y-127461433D01*
X59516433Y-127465666D01*
X59512200Y-127461433D01*
X59516433Y-127457200D01*
X59520666Y-127461433D01*
X60091390Y-127461433D01*
X60075272Y-127457699D01*
X60025483Y-127454041D01*
X60021165Y-127453931D01*
X59979164Y-127451325D01*
X59950136Y-127444480D01*
X59930277Y-127431451D01*
X59927616Y-127427566D01*
X59529133Y-127427566D01*
X59524900Y-127431800D01*
X59520666Y-127427566D01*
X59524900Y-127423333D01*
X59529133Y-127427566D01*
X59927616Y-127427566D01*
X59915784Y-127410296D01*
X59909742Y-127396989D01*
X59903891Y-127377584D01*
X59908185Y-127363542D01*
X59916946Y-127353126D01*
X59937797Y-127326444D01*
X59954051Y-127294458D01*
X59966421Y-127254577D01*
X59975617Y-127204213D01*
X59982350Y-127140777D01*
X59984859Y-127105833D01*
X59987184Y-127061661D01*
X59645530Y-127061661D01*
X59640780Y-127083771D01*
X59640663Y-127084110D01*
X59634622Y-127106904D01*
X59628518Y-127138532D01*
X59624883Y-127163068D01*
X59621180Y-127189421D01*
X59618522Y-127199999D01*
X59616471Y-127195896D01*
X59615362Y-127186947D01*
X59615697Y-127159562D01*
X59620123Y-127128352D01*
X59621623Y-127121814D01*
X59627443Y-127093282D01*
X59630565Y-127067420D01*
X59630733Y-127062290D01*
X59632429Y-127046992D01*
X59638287Y-127046684D01*
X59640252Y-127048465D01*
X59645530Y-127061661D01*
X59987184Y-127061661D01*
X59987661Y-127052615D01*
X59989484Y-126998696D01*
X59990217Y-126949292D01*
X59990166Y-126944966D01*
X59664600Y-126944966D01*
X59660366Y-126949200D01*
X59656133Y-126944966D01*
X59660366Y-126940733D01*
X59664600Y-126944966D01*
X59990166Y-126944966D01*
X59989748Y-126909614D01*
X59989246Y-126898400D01*
X59987526Y-126868061D01*
X59672398Y-126868061D01*
X59670841Y-126879042D01*
X59667951Y-126879173D01*
X59665930Y-126867841D01*
X59667283Y-126862945D01*
X59671042Y-126859738D01*
X59672398Y-126868061D01*
X59987526Y-126868061D01*
X59986511Y-126850164D01*
X59985153Y-126815552D01*
X59985521Y-126791288D01*
X59987962Y-126774092D01*
X59992827Y-126760688D01*
X60000463Y-126747798D01*
X60006150Y-126739480D01*
X60013504Y-126728563D01*
X60019180Y-126718162D01*
X60023372Y-126706051D01*
X60026273Y-126690003D01*
X60028079Y-126667794D01*
X60028982Y-126637198D01*
X60029177Y-126595988D01*
X60028858Y-126541939D01*
X60028336Y-126485041D01*
X60028437Y-126457138D01*
X60030382Y-126435777D01*
X60035696Y-126416349D01*
X60045906Y-126394241D01*
X60062537Y-126364845D01*
X60075153Y-126343601D01*
X60106472Y-126287167D01*
X60128757Y-126236179D01*
X60144534Y-126183716D01*
X60149602Y-126157566D01*
X59579933Y-126157566D01*
X59575700Y-126161800D01*
X59571466Y-126157566D01*
X59575700Y-126153333D01*
X59579933Y-126157566D01*
X60149602Y-126157566D01*
X60156332Y-126122851D01*
X60156789Y-126119937D01*
X60163213Y-126086158D01*
X60163615Y-126084563D01*
X59613800Y-126084563D01*
X59607944Y-126093601D01*
X59605333Y-126094066D01*
X59598454Y-126101157D01*
X59596866Y-126111000D01*
X59593650Y-126124763D01*
X59589192Y-126127933D01*
X59584800Y-126121204D01*
X59585874Y-126111277D01*
X59592625Y-126096340D01*
X59602225Y-126084508D01*
X59610622Y-126079661D01*
X59613800Y-126084563D01*
X60163615Y-126084563D01*
X60168689Y-126064433D01*
X59723866Y-126064433D01*
X59719633Y-126068666D01*
X59715400Y-126064433D01*
X59719633Y-126060200D01*
X59723866Y-126064433D01*
X60168689Y-126064433D01*
X60171110Y-126054829D01*
X60177062Y-126037180D01*
X60183767Y-126015114D01*
X60184633Y-125998321D01*
X60184222Y-125996944D01*
X60183987Y-125982773D01*
X60188121Y-125958416D01*
X60193886Y-125935768D01*
X60201403Y-125909548D01*
X60206526Y-125890983D01*
X60208035Y-125884705D01*
X60209929Y-125876174D01*
X60214946Y-125856266D01*
X60219580Y-125838499D01*
X60225311Y-125810433D01*
X59732333Y-125810433D01*
X59728100Y-125814666D01*
X59723866Y-125810433D01*
X59728100Y-125806199D01*
X59732333Y-125810433D01*
X60225311Y-125810433D01*
X60225507Y-125809478D01*
X60231199Y-125770431D01*
X60232352Y-125759633D01*
X59876266Y-125759633D01*
X59872033Y-125763866D01*
X59867800Y-125759633D01*
X59872033Y-125755399D01*
X59876266Y-125759633D01*
X60232352Y-125759633D01*
X60235517Y-125729999D01*
X59740800Y-125729999D01*
X59737702Y-125736969D01*
X59735155Y-125735644D01*
X59734142Y-125725596D01*
X59735155Y-125724355D01*
X59740189Y-125725517D01*
X59740800Y-125729999D01*
X60235517Y-125729999D01*
X60235704Y-125728252D01*
X60236865Y-125713427D01*
X60238061Y-125699661D01*
X59850198Y-125699661D01*
X59848641Y-125710642D01*
X59845751Y-125710773D01*
X59845280Y-125708127D01*
X59646998Y-125708127D01*
X59645441Y-125719109D01*
X59642551Y-125719240D01*
X59640530Y-125707908D01*
X59641883Y-125703012D01*
X59645642Y-125699805D01*
X59646998Y-125708127D01*
X59845280Y-125708127D01*
X59843730Y-125699441D01*
X59845083Y-125694545D01*
X59848842Y-125691338D01*
X59850198Y-125699661D01*
X60238061Y-125699661D01*
X60238892Y-125690093D01*
X59781768Y-125690093D01*
X59779708Y-125694825D01*
X59771183Y-125703914D01*
X59766282Y-125702049D01*
X59766200Y-125700866D01*
X59772214Y-125693705D01*
X59775975Y-125691091D01*
X59781768Y-125690093D01*
X60238892Y-125690093D01*
X60240053Y-125676738D01*
X60241853Y-125662266D01*
X59884733Y-125662266D01*
X59881635Y-125669235D01*
X59879089Y-125667911D01*
X59878209Y-125659189D01*
X59759370Y-125659189D01*
X59755923Y-125678293D01*
X59754629Y-125682694D01*
X59746978Y-125703436D01*
X59742633Y-125707940D01*
X59742260Y-125696698D01*
X59745416Y-125675905D01*
X59750600Y-125657222D01*
X59756268Y-125649189D01*
X59757472Y-125649405D01*
X59759370Y-125659189D01*
X59878209Y-125659189D01*
X59878075Y-125657863D01*
X59879089Y-125656622D01*
X59884122Y-125657784D01*
X59884733Y-125662266D01*
X60241853Y-125662266D01*
X60243947Y-125645442D01*
X60247912Y-125624166D01*
X59766200Y-125624166D01*
X59761966Y-125628399D01*
X59757733Y-125624166D01*
X59761966Y-125619933D01*
X59766200Y-125624166D01*
X60247912Y-125624166D01*
X60247923Y-125624109D01*
X60249820Y-125618464D01*
X60251915Y-125605990D01*
X60252094Y-125602999D01*
X59901666Y-125602999D01*
X59898569Y-125609969D01*
X59896022Y-125608644D01*
X59895453Y-125602999D01*
X59774666Y-125602999D01*
X59771569Y-125609969D01*
X59769022Y-125608644D01*
X59768825Y-125606689D01*
X59669544Y-125606689D01*
X59665506Y-125627290D01*
X59662851Y-125636564D01*
X59655590Y-125656095D01*
X59650752Y-125660160D01*
X59649399Y-125656103D01*
X59650510Y-125636477D01*
X59655986Y-125616087D01*
X59664086Y-125599006D01*
X59668838Y-125596567D01*
X59669544Y-125606689D01*
X59768825Y-125606689D01*
X59768009Y-125598596D01*
X59769022Y-125597355D01*
X59774055Y-125598517D01*
X59774666Y-125602999D01*
X59895453Y-125602999D01*
X59895009Y-125598596D01*
X59896022Y-125597355D01*
X59901055Y-125598517D01*
X59901666Y-125602999D01*
X60252094Y-125602999D01*
X60253366Y-125581833D01*
X59774666Y-125581833D01*
X59770433Y-125586066D01*
X59766200Y-125581833D01*
X59770433Y-125577599D01*
X59774666Y-125581833D01*
X60253366Y-125581833D01*
X60253515Y-125579361D01*
X60254553Y-125541350D01*
X60254569Y-125539499D01*
X59783133Y-125539499D01*
X59778900Y-125543733D01*
X59774666Y-125539499D01*
X59778900Y-125535266D01*
X59783133Y-125539499D01*
X60254569Y-125539499D01*
X60254958Y-125494728D01*
X60254664Y-125442268D01*
X60254491Y-125429746D01*
X60253722Y-125369597D01*
X60253613Y-125323761D01*
X60254323Y-125289628D01*
X60256013Y-125264585D01*
X60258840Y-125246020D01*
X60262965Y-125231322D01*
X60267240Y-125220741D01*
X60276841Y-125195672D01*
X60282237Y-125174553D01*
X60282667Y-125169718D01*
X60286688Y-125148195D01*
X60291259Y-125137098D01*
X60298044Y-125118517D01*
X60306072Y-125087784D01*
X60310977Y-125065366D01*
X59882312Y-125065366D01*
X59881774Y-125085445D01*
X59880264Y-125092784D01*
X59878773Y-125088766D01*
X59877249Y-125065538D01*
X59878658Y-125046433D01*
X59880597Y-125040557D01*
X59881931Y-125049708D01*
X59882312Y-125065366D01*
X60310977Y-125065366D01*
X60314440Y-125049545D01*
X60322247Y-125008448D01*
X60328591Y-124969136D01*
X60331290Y-124946833D01*
X59774666Y-124946833D01*
X59770433Y-124951066D01*
X59766200Y-124946833D01*
X59770433Y-124942599D01*
X59774666Y-124946833D01*
X60331290Y-124946833D01*
X60332570Y-124936256D01*
X60333467Y-124919606D01*
X60335690Y-124888774D01*
X60341360Y-124852483D01*
X60345486Y-124833755D01*
X60348815Y-124812182D01*
X60352062Y-124775092D01*
X60354757Y-124730933D01*
X59867800Y-124730933D01*
X59864702Y-124737902D01*
X59862155Y-124736577D01*
X59861142Y-124726529D01*
X59862155Y-124725288D01*
X59867189Y-124726451D01*
X59867800Y-124730933D01*
X60354757Y-124730933D01*
X60355187Y-124723900D01*
X60357805Y-124667433D01*
X59867800Y-124667433D01*
X59863566Y-124671666D01*
X59859333Y-124667433D01*
X59863566Y-124663199D01*
X59867800Y-124667433D01*
X60357805Y-124667433D01*
X60358149Y-124660024D01*
X60359586Y-124620866D01*
X59867800Y-124620866D01*
X59864702Y-124627835D01*
X59862155Y-124626511D01*
X59861142Y-124616463D01*
X59862155Y-124615222D01*
X59867189Y-124616384D01*
X59867800Y-124620866D01*
X60359586Y-124620866D01*
X60360907Y-124584877D01*
X60361344Y-124570066D01*
X59867800Y-124570066D01*
X59864702Y-124577035D01*
X59862155Y-124575711D01*
X59861142Y-124565663D01*
X59862155Y-124564422D01*
X59867189Y-124565584D01*
X59867800Y-124570066D01*
X60361344Y-124570066D01*
X60362491Y-124531261D01*
X59867131Y-124531261D01*
X59865575Y-124542242D01*
X59862685Y-124542373D01*
X59860663Y-124531041D01*
X59862016Y-124526145D01*
X59865776Y-124522938D01*
X59867131Y-124531261D01*
X60362491Y-124531261D01*
X60363420Y-124499877D01*
X60365380Y-124417666D01*
X59867800Y-124417666D01*
X59864702Y-124424635D01*
X59862155Y-124423311D01*
X59861142Y-124413263D01*
X59862155Y-124412022D01*
X59867189Y-124413184D01*
X59867800Y-124417666D01*
X60365380Y-124417666D01*
X60365648Y-124406440D01*
X60366490Y-124361927D01*
X59858665Y-124361927D01*
X59857108Y-124372909D01*
X59854218Y-124373040D01*
X59852197Y-124361708D01*
X59853549Y-124356812D01*
X59857309Y-124353605D01*
X59858665Y-124361927D01*
X60366490Y-124361927D01*
X60367549Y-124305981D01*
X60369083Y-124199917D01*
X60370208Y-124089663D01*
X60370342Y-124067253D01*
X59856423Y-124067253D01*
X59855100Y-124070533D01*
X59847492Y-124078610D01*
X59846133Y-124079000D01*
X59842497Y-124072449D01*
X59842400Y-124070533D01*
X59848909Y-124062392D01*
X59851366Y-124062066D01*
X59856423Y-124067253D01*
X60370342Y-124067253D01*
X60370525Y-124036666D01*
X59850866Y-124036666D01*
X59847769Y-124043635D01*
X59845222Y-124042311D01*
X59844209Y-124032263D01*
X59845222Y-124031022D01*
X59850255Y-124032184D01*
X59850866Y-124036666D01*
X60370525Y-124036666D01*
X60370885Y-123976635D01*
X60370910Y-123968933D01*
X59639200Y-123968933D01*
X59636102Y-123975902D01*
X59633555Y-123974577D01*
X59632542Y-123964529D01*
X59633555Y-123963288D01*
X59638589Y-123964451D01*
X59639200Y-123968933D01*
X60370910Y-123968933D01*
X60370973Y-123950186D01*
X60371200Y-123885329D01*
X60371306Y-123871566D01*
X60096400Y-123871566D01*
X60092167Y-123875800D01*
X60087933Y-123871566D01*
X60092167Y-123867333D01*
X60096400Y-123871566D01*
X60371306Y-123871566D01*
X60371589Y-123835253D01*
X60371607Y-123834325D01*
X60068601Y-123834325D01*
X60066825Y-123842808D01*
X60066222Y-123844415D01*
X60059515Y-123854782D01*
X60055702Y-123854857D01*
X60056651Y-123845900D01*
X60061483Y-123839675D01*
X60068601Y-123834325D01*
X60371607Y-123834325D01*
X60372330Y-123797806D01*
X60373609Y-123770835D01*
X60375612Y-123752188D01*
X60378528Y-123739712D01*
X60382544Y-123731256D01*
X60387846Y-123724667D01*
X60390852Y-123721586D01*
X60418422Y-123705125D01*
X60437418Y-123702233D01*
X59849216Y-123702233D01*
X59848301Y-123716692D01*
X59845650Y-123717965D01*
X59845313Y-123717211D01*
X59843638Y-123700403D01*
X59844999Y-123691811D01*
X59847694Y-123688358D01*
X59849160Y-123699604D01*
X59849216Y-123702233D01*
X60437418Y-123702233D01*
X60464700Y-123702233D01*
X60465535Y-123634500D01*
X60467579Y-123591866D01*
X60472017Y-123566766D01*
X59842400Y-123566766D01*
X59838166Y-123571000D01*
X59833933Y-123566766D01*
X59838166Y-123562533D01*
X59842400Y-123566766D01*
X60472017Y-123566766D01*
X60473196Y-123560104D01*
X60483472Y-123533335D01*
X60484585Y-123531120D01*
X60495854Y-123503393D01*
X60502250Y-123476656D01*
X60502800Y-123469180D01*
X60507286Y-123439453D01*
X60518758Y-123413454D01*
X60530957Y-123400246D01*
X60532801Y-123397433D01*
X60037133Y-123397433D01*
X60032900Y-123401666D01*
X60028667Y-123397433D01*
X59393666Y-123397433D01*
X59389433Y-123401666D01*
X59385200Y-123397433D01*
X59389433Y-123393200D01*
X59393666Y-123397433D01*
X60028667Y-123397433D01*
X60032900Y-123393200D01*
X60037133Y-123397433D01*
X60532801Y-123397433D01*
X60536904Y-123391175D01*
X59991128Y-123391175D01*
X59982805Y-123392531D01*
X59971824Y-123390974D01*
X59971734Y-123388981D01*
X59278269Y-123388981D01*
X59268653Y-123390258D01*
X59249733Y-123390662D01*
X59228831Y-123390137D01*
X59220997Y-123388771D01*
X59226450Y-123387135D01*
X59253798Y-123385718D01*
X59273016Y-123387135D01*
X59278269Y-123388981D01*
X59971734Y-123388981D01*
X59971693Y-123388084D01*
X59983025Y-123386063D01*
X59987921Y-123387416D01*
X59991128Y-123391175D01*
X60536904Y-123391175D01*
X60538913Y-123388112D01*
X60541328Y-123379088D01*
X59949644Y-123379088D01*
X59948482Y-123384122D01*
X59944000Y-123384733D01*
X59938460Y-123382270D01*
X59126966Y-123382270D01*
X59006316Y-123383501D01*
X58958323Y-123383773D01*
X58924789Y-123383280D01*
X58903248Y-123381777D01*
X58891233Y-123379020D01*
X58886277Y-123374763D01*
X58885666Y-123371514D01*
X58888596Y-123363684D01*
X58900037Y-123361453D01*
X58923790Y-123364012D01*
X58949486Y-123367222D01*
X58985853Y-123370953D01*
X59026669Y-123374589D01*
X59044440Y-123376000D01*
X59126966Y-123382270D01*
X59938460Y-123382270D01*
X59937031Y-123381635D01*
X59938355Y-123379088D01*
X59948403Y-123378075D01*
X59949644Y-123379088D01*
X60541328Y-123379088D01*
X60542464Y-123374846D01*
X60547938Y-123351422D01*
X60554249Y-123332908D01*
X60561420Y-123302579D01*
X60562433Y-123288551D01*
X59003494Y-123288551D01*
X58997627Y-123290077D01*
X58978858Y-123291171D01*
X58951220Y-123291599D01*
X58950578Y-123291600D01*
X58921821Y-123290454D01*
X58901594Y-123287435D01*
X58894133Y-123283263D01*
X58901642Y-123280468D01*
X58920594Y-123279495D01*
X58945627Y-123280085D01*
X58971379Y-123281978D01*
X58992488Y-123284916D01*
X59003494Y-123288551D01*
X60562433Y-123288551D01*
X60564435Y-123260856D01*
X60563391Y-123212733D01*
X60558382Y-123163207D01*
X60550185Y-123120008D01*
X60542129Y-123084189D01*
X60538807Y-123058907D01*
X60539902Y-123038538D01*
X60544533Y-123019330D01*
X60549217Y-122999557D01*
X60550177Y-122979809D01*
X60547086Y-122954996D01*
X60539618Y-122920025D01*
X60537608Y-122911522D01*
X60528129Y-122871498D01*
X60516591Y-122822358D01*
X60504727Y-122771493D01*
X60497720Y-122741266D01*
X60483357Y-122686402D01*
X60467919Y-122640251D01*
X60452706Y-122606644D01*
X60450909Y-122603556D01*
X60435501Y-122573560D01*
X60428241Y-122544748D01*
X60426600Y-122512501D01*
X60424285Y-122480815D01*
X60418112Y-122440064D01*
X60409236Y-122397355D01*
X60405433Y-122382239D01*
X60395466Y-122341000D01*
X60389096Y-122303359D01*
X60385619Y-122263128D01*
X60384331Y-122214120D01*
X60384267Y-122196132D01*
X60383952Y-122150034D01*
X60382446Y-122115447D01*
X60378907Y-122086953D01*
X60372494Y-122059131D01*
X60362365Y-122026564D01*
X60354215Y-122002672D01*
X60338826Y-121955297D01*
X60321911Y-121898370D01*
X60304334Y-121835307D01*
X60286964Y-121769523D01*
X60270666Y-121704436D01*
X60256306Y-121643461D01*
X60244752Y-121590015D01*
X60236869Y-121547513D01*
X60234469Y-121530533D01*
X60230433Y-121505586D01*
X60225476Y-121487649D01*
X60223572Y-121483966D01*
X60218453Y-121472273D01*
X60210566Y-121448665D01*
X60201376Y-121417624D01*
X60198648Y-121407766D01*
X60180009Y-121339618D01*
X60164177Y-121282442D01*
X60149651Y-121230837D01*
X60143372Y-121208799D01*
X60133868Y-121175414D01*
X60131339Y-121166466D01*
X59038066Y-121166466D01*
X59031624Y-121174687D01*
X59029600Y-121174933D01*
X59021379Y-121168490D01*
X59021133Y-121166466D01*
X59027576Y-121158246D01*
X59029600Y-121157999D01*
X59037820Y-121164442D01*
X59038066Y-121166466D01*
X60131339Y-121166466D01*
X60124556Y-121142471D01*
X60120598Y-121128366D01*
X60111374Y-121099048D01*
X60101167Y-121071594D01*
X60099843Y-121068467D01*
X60092954Y-121046992D01*
X60085636Y-121015428D01*
X60079443Y-120980505D01*
X60079304Y-120979567D01*
X60073548Y-120944796D01*
X60067229Y-120913314D01*
X60061684Y-120891765D01*
X60061530Y-120891299D01*
X60053484Y-120860860D01*
X60045352Y-120819340D01*
X60038007Y-120772564D01*
X60032322Y-120726358D01*
X60029172Y-120686547D01*
X60028814Y-120673168D01*
X60027432Y-120643712D01*
X60024030Y-120619634D01*
X60020922Y-120609668D01*
X60016864Y-120595438D01*
X60012004Y-120568586D01*
X60007037Y-120533355D01*
X60003743Y-120504784D01*
X59992931Y-120424235D01*
X59978776Y-120355822D01*
X59974104Y-120340966D01*
X59071933Y-120340966D01*
X59067700Y-120345200D01*
X59063466Y-120340966D01*
X59067700Y-120336733D01*
X59071933Y-120340966D01*
X59974104Y-120340966D01*
X59961727Y-120301615D01*
X59957246Y-120290930D01*
X59943750Y-120246822D01*
X59941583Y-120213966D01*
X59165066Y-120213966D01*
X59160833Y-120218200D01*
X59156600Y-120213966D01*
X59160833Y-120209733D01*
X59165066Y-120213966D01*
X59941583Y-120213966D01*
X59940821Y-120202420D01*
X59943127Y-120190775D01*
X59178328Y-120190775D01*
X59170005Y-120192131D01*
X59159024Y-120190574D01*
X59158893Y-120187684D01*
X59170225Y-120185663D01*
X59175121Y-120187016D01*
X59178328Y-120190775D01*
X59943127Y-120190775D01*
X59947757Y-120167400D01*
X59966629Y-120118320D01*
X59986553Y-120067798D01*
X60006073Y-120019407D01*
X60023733Y-119976722D01*
X60038076Y-119943316D01*
X60046463Y-119925110D01*
X60063594Y-119899642D01*
X60093060Y-119866451D01*
X60133148Y-119827274D01*
X60182145Y-119783844D01*
X60203777Y-119765735D01*
X60236118Y-119730290D01*
X60266976Y-119678915D01*
X60295941Y-119612578D01*
X60298666Y-119604366D01*
X59629083Y-119604366D01*
X59628167Y-119618826D01*
X59625517Y-119620099D01*
X59625180Y-119619344D01*
X59623505Y-119602536D01*
X59624866Y-119593944D01*
X59627561Y-119590491D01*
X59629027Y-119601737D01*
X59629083Y-119604366D01*
X60298666Y-119604366D01*
X60322603Y-119532250D01*
X60346550Y-119438899D01*
X60351117Y-119418099D01*
X60359864Y-119377223D01*
X60368658Y-119336223D01*
X60375926Y-119302427D01*
X60377456Y-119295333D01*
X60384190Y-119268912D01*
X60390956Y-119249859D01*
X60394804Y-119243756D01*
X60399569Y-119233406D01*
X60405099Y-119211040D01*
X60410210Y-119181461D01*
X60410287Y-119180916D01*
X60415410Y-119150473D01*
X60420945Y-119126395D01*
X60425663Y-119113960D01*
X60434578Y-119094843D01*
X60442171Y-119065144D01*
X60447375Y-119031210D01*
X60449122Y-118999392D01*
X60447811Y-118982331D01*
X60433065Y-118937264D01*
X60417247Y-118910100D01*
X59620131Y-118910100D01*
X59619450Y-118927525D01*
X59617531Y-118932022D01*
X59616449Y-118929248D01*
X59614872Y-118908916D01*
X59616278Y-118895382D01*
X59618509Y-118890689D01*
X59619912Y-118900866D01*
X59620131Y-118910100D01*
X60417247Y-118910100D01*
X60403216Y-118886008D01*
X60358674Y-118829161D01*
X60326091Y-118794861D01*
X59685186Y-118794861D01*
X59683877Y-118805796D01*
X59679170Y-118810096D01*
X59667247Y-118821223D01*
X59651999Y-118839990D01*
X59648782Y-118844483D01*
X59634675Y-118862007D01*
X59623406Y-118871463D01*
X59621431Y-118872000D01*
X59611444Y-118877870D01*
X59595464Y-118892743D01*
X59587014Y-118901917D01*
X59568998Y-118919870D01*
X59557840Y-118926571D01*
X59555504Y-118922314D01*
X59563959Y-118907396D01*
X59570098Y-118899378D01*
X59586139Y-118875887D01*
X59597876Y-118852950D01*
X59606961Y-118836323D01*
X59615534Y-118829666D01*
X59620540Y-118835837D01*
X59619309Y-118842095D01*
X59619074Y-118855517D01*
X59622027Y-118859151D01*
X59630024Y-118856139D01*
X59635014Y-118846450D01*
X59643881Y-118828728D01*
X59657380Y-118811226D01*
X59671547Y-118798021D01*
X59682415Y-118793191D01*
X59685186Y-118794861D01*
X60326091Y-118794861D01*
X60300924Y-118768368D01*
X60270871Y-118739657D01*
X59808578Y-118739657D01*
X59799470Y-118747215D01*
X59797950Y-118747859D01*
X59778588Y-118752555D01*
X59767306Y-118749330D01*
X59766200Y-118745987D01*
X59773430Y-118738987D01*
X59787366Y-118734461D01*
X59803667Y-118734296D01*
X59808578Y-118739657D01*
X60270871Y-118739657D01*
X60264696Y-118733758D01*
X60236738Y-118709271D01*
X60213866Y-118692559D01*
X60192898Y-118681271D01*
X60172600Y-118673674D01*
X60141517Y-118662521D01*
X60113003Y-118650254D01*
X60100633Y-118643804D01*
X60087923Y-118637492D01*
X60073214Y-118633640D01*
X60052972Y-118632010D01*
X60023662Y-118632366D01*
D12*
X53400000Y-149920000D02*
X50740000Y-149920000D01*
X53400000Y-132080000D02*
X53400000Y-149920000D01*
X50740000Y-132080000D02*
X50740000Y-149920000D01*
X53400000Y-132080000D02*
X50740000Y-132080000D01*
X53400000Y-130810000D02*
X53400000Y-129480000D01*
X53400000Y-129480000D02*
X52070000Y-129480000D01*
X76260000Y-129480000D02*
X74930000Y-129480000D01*
X76260000Y-130810000D02*
X76260000Y-129480000D01*
X76260000Y-132080000D02*
X73600000Y-132080000D01*
X73600000Y-132080000D02*
X73600000Y-149920000D01*
X76260000Y-132080000D02*
X76260000Y-149920000D01*
X76260000Y-149920000D02*
X73600000Y-149920000D01*
M02*
